<?xml version="1.0" encoding="UTF-8"?>
<svg id="Layer_2" data-name="Layer 2" xmlns="http://www.w3.org/2000/svg" viewBox="0 0 41.68 105.92">
  <defs>
    <style>
      .cls-1 {
        fill: #0f0f0f;
      }

      .cls-2 {
        fill: #d2d2d2;
      }

      .cls-3 {
        fill: none;
        stroke: #bb2025;
        stroke-miterlimit: 10;
      }
    </style>
  </defs>
  <g id="Layer_1-2" data-name="Layer 1">
    <g>
      <g>
        <path class="cls-2" d="M23.64,90.87l-5.65.09c-.51.37-.02,3.03-1.7,3.98-.74.42-4.44.48-5.31.23-1.54-.44-1.21-2.56-1.08-3.79,1.03-9.8,5.09-20.59,6.36-30.51.19-.81.69-1.71,1.59-1.87.67-.12,3.62-.31,4.37-.29.93.02,2.46.34,2.78,1.32l6.84,32.26c.53,3.37-3.86,3.03-6.11,2.94s-1.55-4.02-2.1-4.36ZM29.99,93.66l-6.36-32.56c-.39-1.05-4.48-.35-5.58-.5l-6.65,33.06,4.12-.14c.55-.39.06-3.67,1.88-4.43.77-.32,5.75-.3,6.63-.02,2.21.69,1.17,3.96,1.86,4.45l4.12.14Z"/>
        <path class="cls-2" d="M20.82,11.27c.72.52,2.54,5.32,2.56,6.29.03,1.09-.68,1.69-.66,2.8.05,2.66,1.05,6.56,1.27,9.48.23,3.06.86,10.84-.26,13.29-.23.51-1.36,2.16-1.74,2.51-1.45,1.33-3,.9-3.92-.74l-2.87-28.97c.31-2.01,3.31-6.35,5.62-4.66"/>
        <path class="cls-2" d="M19.88,12.68c-.98-.66-3.42,3.07-2.84,4.25l2.54,27.1.78.79c.13-.03,1.56-1.83,1.69-2.09,1.1-2.22.01-14.64-.31-17.88-.15-1.51-.89-3.81-.89-5.13,0-.97.89-1.32.85-2.1-.07-1.32-1.57-3.51-1.83-4.93"/>
        <path class="cls-1" d="M29.99,93.66l-4.12-.14c-.69-.48.36-3.76-1.86-4.45-.88-.27-5.86-.3-6.63.02-1.82.76-1.33,4.03-1.88,4.43l-4.12.14,6.65-33.06c1.1.15,5.19-.55,5.58.5l6.36,32.56ZM19.81,75.12c-1.25.38-2.73,7.67-2.37,8.86.49,1.61,6.06,1.99,6.27-.56.07-.89-1.03-5.81-1.37-6.85-.41-1.24-1.16-1.86-2.53-1.44Z"/>
        <path class="cls-1" d="M19.88,12.68c.26,1.42,1.77,3.6,1.83,4.93.04.78-.85,1.13-.85,2.1,0,1.32.74,3.62.89,5.13.33,3.24,1.42,15.66.31,17.88-.13.26-1.56,2.06-1.69,2.09l-.78-.79-2.54-27.1c-.58-1.17,1.86-4.91,2.84-4.25"/>
        <path class="cls-2" d="M19.81,75.12c1.37-.42,2.13.2,2.53,1.44.34,1.05,1.45,5.96,1.37,6.85-.21,2.55-5.78,2.18-6.27.56-.36-1.19,1.12-8.48,2.37-8.86ZM20.84,76.95c-.78-.1-.5,0-.66.44-.41,1.1-1.17,4.63-.93,5.65l2.85.52-1.26-6.62Z"/>
      </g>
      <rect class="cls-3" x=".5" y=".5" width="40.68" height="104.92"/>
    </g>
  </g>
</svg>