<?xml version="1.0" encoding="UTF-8"?>
<svg id="Layer_2" data-name="Layer 2" xmlns="http://www.w3.org/2000/svg" viewBox="0 0 22.09 78.76">
  <defs>
    <style>
      .cls-1 {
        fill: #0f0f0f;
      }

      .cls-2 {
        fill: #d2d2d2;
      }
    </style>
  </defs>
  <g id="Layer_1-2" data-name="Layer 1">
    <g>
      <path class="cls-2" d="M8.56,37.22c6.32-.91,12.44,1.75,13.13,8.67.58,5.88.48,17.39.02,23.35-1,12.73-20.18,12.54-21.29.33-.49-5.38-.66-19.44.15-24.56.62-3.96,4.05-7.22,8-7.79ZM9.6,38.94c-3.45.37-6.17,2.2-7.05,5.65.52,8.11-.98,17.74-.08,25.67.97,8.58,15.78,8.43,17.09.6-.5-8.14.95-17.69.08-25.67-.53-4.91-5.67-6.72-10.03-6.25Z"/>
      <path class="cls-2" d="M9.58.12c.77-.23,1.34-.13,2.01.26.46.26,5.73,5.27,6.17,5.85.73.97,1.15,1.4.59,2.66-.3.68-5.25,6.37-5.9,6.8-.82.55-1.14.66-2.18.43-.8-.18-5.47-4.72-6.08-5.6-.95-1.35-.89-1.81-.15-3.24C4.5,6.38,9.03.29,9.58.12ZM10.24,2.14l-4.7,6.65,5.67,5.68,5.34-6.35c0-.69-5.67-6.09-6.32-5.98Z"/>
      <path class="cls-1" d="M9.6,38.94c4.36-.47,9.94,1.32,10.03,6.25.15,7.99.15,17.84-.08,25.67-1.31,7.83-16.68,8.02-17.09-.6-.37-7.92-.14-17.48.08-25.67.88-3.45,3.6-5.28,7.05-5.65ZM9.58,43.05c-2,.41-3.39,2.68-3.65,4.59-.56,4.13-.46,15.61-.03,19.88.72,7.13,9.59,7.14,10.55.6.61-4.11.51-15.55.09-19.82-.4-4.01-2.87-6.09-6.96-5.25Z"/>
      <path class="cls-1" d="M10.24,2.14c.65-.11,6.32,5.3,6.32,5.98l-5.34,6.35-5.67-5.68,4.7-6.65Z"/>
      <path class="cls-2" d="M9.58,43.05c4.09-.84,6.55,1.24,6.96,5.25.43,4.27.52,15.7-.09,19.82-.96,6.54-9.83,6.53-10.55-.6-.43-4.27-.54-15.75.03-19.88.26-1.9,1.66-4.17,3.65-4.59ZM10.26,44.75c-1.34.3-2.1,1.62-2.27,2.88-.53,3.8-.51,16.36-.04,20.23.52,4.33,6,3.88,6.51.66-.42-6.51.63-13.85.03-20.25-.23-2.49-1.52-4.13-4.23-3.52Z"/>
    </g>
  </g>
</svg>