<?xml version="1.0" encoding="UTF-8"?>
<svg id="Layer_2" data-name="Layer 2" xmlns="http://www.w3.org/2000/svg" viewBox="0 0 15.22 92.16">
  <defs>
    <style>
      .cls-1 {
        fill: #0f0f0f;
      }

      .cls-2 {
        fill: #d2d2d2;
      }
    </style>
  </defs>
  <g id="Layer_1-2" data-name="Layer 1">
    <g>
      <path class="cls-2" d="M7.67,61.17c-1.83,1.01-4.16,5.44-6.52,4.3-1.34-.65-1.23-5.14-1.01-6.51.15-.97,3.81-4.87,4.78-5.87.62-.64,1.98-2.18,2.74-2.41,1.06-.33,7.57-.51,7.57.71v39.82c0,1.17-5.9,1.13-6.72.54-.16-.11-.83-1.14-.83-1.23v-29.35ZM13.5,52.24h-4.98l-6.35,6.35v4.98c1.75-.86,4.43-5.03,5.84-5.68.68-.31,1.71.29,1.71.7v31.41c1.18.27,2.81.85,3.78-.17v-37.59Z"/>
      <path class="cls-2" d="M5.85.13c2.52-.78,3.27,2.24,4.05,4.06,3.29,7.74,5.37,18.51,4.2,26.85-.26,1.87-1.65,8.35-2.97,9.39-5.06,4.01-3.68-9.79-3.81-11.7-.27-4.23-1.44-9.12-2.57-13.22-.65-2.36-2.47-5.68-2.08-7.91C2.88,6.43,4.87.43,5.85.13ZM6.97,2.12c-.88-.14-.53.08-.71.48-3.06,6.76-.71,8.31.89,14.62,1.92,7.59,1.69,13.23,2.23,20.78.12,1.73.74.77,1.14-.24,4.31-11.07,1.18-25.17-3.54-35.64Z"/>
      <path class="cls-1" d="M13.5,52.24v37.59c-.97,1.02-2.59.44-3.78.17v-31.41c0-.41-1.02-1.01-1.71-.7-1.41.64-4.1,4.82-5.84,5.68v-4.98l6.35-6.35h4.98Z"/>
      <path class="cls-1" d="M6.97,2.12c4.73,10.47,7.85,24.56,3.54,35.64-.4,1.02-1.01,1.97-1.14.24-.54-7.54-.31-13.19-2.23-20.78-1.6-6.31-3.95-7.87-.89-14.62.18-.4-.16-.62.71-.48Z"/>
    </g>
  </g>
</svg>