<?xml version="1.0" encoding="UTF-8"?>
<svg id="Layer_2" data-name="Layer 2" xmlns="http://www.w3.org/2000/svg" viewBox="0 0 21.99 91.95">
  <defs>
    <style>
      .cls-1 {
        fill: #0f0f0f;
      }

      .cls-2 {
        fill: #d2d2d2;
      }
    </style>
  </defs>
  <g id="Layer_1-2" data-name="Layer 1">
    <g>
      <path class="cls-2" d="M8.89,84.18h11.5c1.99,0,2.3,6.79-.07,7.48-5.59-.35-12.34.72-17.79.08-3.02-.36-2.48-4.92-2.24-7.4.4-4.05,10.72-16.44,13-21.33,2.57-5.51-3.41-6.72-5.25-3.87-1.12,1.72-.15,3.3-3.13,3.73-8.93,1.28-4-9.83,1.48-11.91,9.4-3.56,18.44,5.4,14.46,14.45-1.88,4.27-7,10.4-9.7,14.68-.8,1.26-1.82,2.67-2.26,4.09ZM19.88,85.9H7c-.1,0-.75-.69-.81-.93l.21-1.03,12.73-19.21c4.8-13.57-16.37-18.54-17.11-3.89h3.21c2.15-8.43,14.34-5.53,9.43,3.54-1.49,2.74-12.29,17.82-12.29,18.95v6.35h17.51v-3.78Z"/>
      <path class="cls-2" d="M8.55,8.31l7.51,23.89c1.09,2.87-2.27,11.31-5.18,6.21C7.86,33.11,1.45,18.06,1,12.25.18,1.74,6.92-1.54,16.39.64c5,1.15,4.57,2.95,1.71,6.75-2.67,3.55-5.83.73-9.55.92ZM13.35,37.83c1.04-2.36,1.11-4.11.6-6.6-1.49-7.15-5.57-14.85-6.96-21.88-1.03-5.21,6.01-1.59,8.89-2.13l2.28-3.88C13.69,1.1,5.41.7,3.38,6.4.28,15.1,9.49,29.07,12.4,37.24l.95.59Z"/>
      <path class="cls-1" d="M19.88,85.9v3.78H2.37v-6.35c0-1.13,10.81-16.21,12.29-18.95,4.92-9.07-7.27-11.96-9.43-3.52h-3.21c.75-14.66,21.91-9.69,17.11,3.88l-12.73,19.21-.21,1.03c.06.24.71.93.81.93h12.87Z"/>
      <path class="cls-1" d="M13.35,37.83l-.95-.59C9.49,29.07.28,15.1,3.38,6.4,5.41.7,13.69,1.1,18.16,3.35l-2.28,3.88c-2.87.54-9.92-3.08-8.89,2.13,1.39,7.03,5.47,14.73,6.96,21.88.52,2.49.44,4.24-.6,6.6Z"/>
    </g>
  </g>
</svg>