<?xml version="1.0" encoding="UTF-8"?>
<svg id="Layer_2" data-name="Layer 2" xmlns="http://www.w3.org/2000/svg" viewBox="0 0 21.76 92.03">
  <defs>
    <style>
      .cls-1 {
        fill: #0f0f0f;
      }

      .cls-2 {
        fill: #d2d2d2;
      }
    </style>
  </defs>
  <g id="Layer_1-2" data-name="Layer 1">
    <g>
      <path class="cls-2" d="M8.53,50.65c10.61-1.46,16.26,10.4,10.45,18.68,3.75,5.46,3.65,17.83-2.7,21.34-6.82,3.76-15.95-.64-16.27-8.69-.12-3.14,1.94-3.21,4.65-2.92,3.2.34,2.02,1.89,3.32,3.89s5.1,2.09,5.71-.01c.21-.72.21-7.03,0-7.75-.83-2.84-5.73-.5-5.76-5.22,0-.4.42-3.45.51-3.61.57-.99,2.66-.44,3.6-.86,3.07-1.35,1.81-7.95-2.2-7.36-2.87.42-2.08,4.2-3.87,4.72-.89.26-5.09.27-5.63-.41-1.56-5.65,2.45-11,8.19-11.79ZM4.61,87.86c3.43,3.44,10.44,3.02,13.21-1.14,2.18-3.28,2.34-10.24.91-13.84-.54-1.36-1.5-2.27-1.92-3.61,1.2-2.36,2.81-4.37,2.81-7.21-.02-12.05-18.09-13.53-17.88-.86l3.45-.16c1.14-6.25,9.35-6.52,10.25.01.59,4.27-1.39,6.12-5.42,6.71l-.07,3.18c.08.31,4.22.7,5.44,3.21.59,1.22.63,6.67.4,8.14-.95,6.09-10.34,4.94-10.29-1.17H1.74c.17,2.13,1.35,5.2,2.87,6.73Z"/>
      <path class="cls-2" d="M6.47,1.55c.25.25.38,1,.77,1.46,3.62,4.32,2.71-1.97,5.41-2.52,2.94-.6,2.54,1.88,3.14,3.58.17.49-.1.58.72.48.1-1.14.45-4.04,1.61-4.4,5.09-1.56,4,8.72,1.82,11.43-2.36,2.95-6.18.77-8.55,3.83,1.82,6.09,2.99,12.41,2.37,18.82-.23,2.41-1.65,8.38-5.06,6.79-1.6-.75-1.2-6.18-1.49-8.12-.6-4.02-1.8-8.58-2.96-12.49-1.05-3.53-3.61-8.32-3.1-11.84.11-.77,1.7-6.08,2.01-6.57.63-.97,2.52-1.23,3.31-.46ZM19.6,1.81c-1.9.29-.3,3.33-2.41,4.28-2.62,1.19-3.85-1.27-3.43-3.6-1.92-.11-1.21,2.06-2.73,3.28-3.41,2.74-5.88-3.17-6.19-2.93-.34,2.15-2.35,5.92-2,7.98.43,2.53,2.63,7.11,3.46,9.95,1.75,5.98,3.28,12.17,3,18.46.55.05.8.08,1.2-.34.74-.78,1.5-6.04,1.56-7.37.26-5.69-1.35-11.33-2.72-16.77.06-.24,3.47-3.03,3.74-3.15,1.05-.48,2.66.02,3.87-.25,3.27-.73,3.13-7,2.65-9.54Z"/>
      <path class="cls-1" d="M4.61,87.86c-1.52-1.52-2.7-4.59-2.87-6.74h3.76c-.05,6.12,9.34,7.27,10.29,1.18.23-1.47.19-6.92-.4-8.14-1.22-2.51-5.35-2.89-5.44-3.21l.07-3.18c4.02-.59,6-2.44,5.42-6.71-.9-6.54-9.11-6.27-10.25-.01l-3.45.16c-.21-12.67,17.86-11.19,17.88.86,0,2.84-1.61,4.85-2.81,7.21.42,1.34,1.38,2.25,1.92,3.61,1.43,3.6,1.27,10.56-.91,13.84-2.77,4.16-9.78,4.58-13.21,1.14Z"/>
      <path class="cls-1" d="M19.6,1.81c.48,2.54.62,8.81-2.65,9.54-1.21.27-2.82-.23-3.87.25-.27.12-3.68,2.91-3.74,3.15,1.37,5.44,2.98,11.08,2.72,16.77-.06,1.32-.82,6.58-1.56,7.37-.4.43-.65.39-1.2.34.28-6.29-1.25-12.47-3-18.46-.83-2.84-3.03-7.42-3.46-9.95-.35-2.06,1.66-5.83,2-7.98.31-.24,2.78,5.67,6.19,2.93,1.52-1.22.81-3.39,2.73-3.28-.42,2.33.81,4.79,3.43,3.6,2.11-.96.5-3.99,2.41-4.28Z"/>
    </g>
  </g>
</svg>