<?xml version="1.0" encoding="UTF-8"?>
<svg id="Layer_2" data-name="Layer 2" xmlns="http://www.w3.org/2000/svg" viewBox="0 0 21.71 92.2">
  <defs>
    <style>
      .cls-1 {
        fill: #0f0f0f;
      }

      .cls-2 {
        fill: #d2d2d2;
      }
    </style>
  </defs>
  <g id="Layer_1-2" data-name="Layer 1">
    <g>
      <path class="cls-2" d="M1.2,86.93c-1.31-.37-.9-5.05-.76-6.26,1.02-8.94,5.51-19.34,6.94-28.42.15-.52.34-1.29.86-1.54,1.07-.53,7.19-.76,6.87,1.75l-6.87,27.09,3.09.18v-4.98c0-.41,1.67-1.43,2.25-1.52,5.25-.86,5.25,2.3,4.96,6.5,3.24-.53,3.31,2.12,3.1,4.65-.19,2.33-.67,2.84-3.09,2.92.43,4.35-.76,5.3-5,4.8-3.46-.41-.87-3.22-2.4-5.16H1.2ZM2.06,85.21h10.47c1.35,1.25.74,3.19.86,4.81h3.09c0-3.16-.82-4.91,3.09-5v-3.58c-.96.17-3.1.07-3.1-1.2v-4.98h-3.43v5.66l-.51.51h-6.01l-.28-1.8,6.81-27.39-3.73.04-7.25,30v2.91Z"/>
      <path class="cls-2" d="M9.61,10.36c5.09,2.9,6.43,6.38,4.62,12.01-.36,1.12-3.98,7.87-3.59,8.25,2.97.81,4.66-.91,6.93-1.48,3.77-.96,3.98,2.24,2.49,4.89-1.77,3.16-6.43,6.59-10.01,7.15-4.45.7-10.53-1.59-10.01-6.92.4-4.14,4.15-5.75,5.76-9.35,2.21-4.95-2.76-4.55-4.57-7.71-1.93-3.37-.07-7.51,1.92-10.39C3.97,5.63,8.48.57,9.59.22c3.98-1.25,5.07,3.01,3.88,5.94-.47,1.16-4.33,3.52-3.86,4.2ZM18.88,30.97c-1.31-.1-2.14.8-3.43,1.2-2.22.68-5.73,1.13-7.16-1.11-.34-1.28,2.03-4.43,2.65-5.81,1.14-2.53,2.53-5.7,2.09-8.51-.49-3.08-5.77-5.18-5.81-6.54-.06-2.31,6.29-3.91,4.54-7.65-.71-1.52-1.97-.43-2.85.42-1.84,1.79-6.01,6.91-6.43,9.36-1.09,6.43,6.08,5.27,5.78,10.91-.29,5.34-7.32,7.71-6.13,12.96.6,2.65,5.09,3.2,7.3,2.99,3.85-.37,8.94-4.32,9.44-8.23Z"/>
      <path class="cls-1" d="M2.06,85.21v-2.91s7.26-30,7.26-30l3.73-.04-6.81,27.39.28,1.8h6.01l.51-.51v-5.66h3.43v4.98c0,1.27,2.14,1.37,3.09,1.2v3.58c-3.91.09-3.1,1.84-3.09,5h-3.09c-.11-1.62.49-3.56-.86-4.81H2.06Z"/>
      <path class="cls-1" d="M18.88,30.97c-.5,3.92-5.59,7.86-9.44,8.23-2.22.21-6.7-.33-7.3-2.99-1.19-5.25,5.84-7.63,6.13-12.96.3-5.64-6.87-4.49-5.78-10.91.42-2.46,4.58-7.57,6.43-9.36.87-.85,2.14-1.94,2.85-.42,1.75,3.74-4.6,5.34-4.54,7.65.03,1.36,5.32,3.45,5.81,6.54.44,2.81-.94,5.99-2.09,8.51-.62,1.37-2.98,4.53-2.65,5.81,1.43,2.24,4.94,1.79,7.16,1.11,1.3-.4,2.12-1.3,3.43-1.2Z"/>
    </g>
  </g>
</svg>