<?xml version="1.0" encoding="UTF-8"?>
<svg id="Layer_2" data-name="Layer 2" xmlns="http://www.w3.org/2000/svg" viewBox="0 0 21.63 84.01">
  <defs>
    <style>
      .cls-1 {
        fill: #0f0f0f;
      }

      .cls-2 {
        fill: #d2d2d2;
      }
    </style>
  </defs>
  <g id="Layer_1-2" data-name="Layer 1">
    <g>
      <path class="cls-2" d="M8.26,49.42c-1.1.34-.55,2.78-.55,3.56,0,1.42-.2,2.71.2,4.01l.38.28c4.6-1.06,10.18.83,12.22,5.3,1.24,2.7,1.28,8.7.93,11.7-1.45,12.39-18.34,13.11-21.09,1.26-1.32-5.67,1.2-5.12,6.02-4.65,1.22.54,1.55,4.03,3.34,4.56,1.54.45,3.65.38,3.89-1.46.25-1.88.43-7.78-1.26-8.73-3.34-1.88-3.92,1.72-5.46,2.01-1.13.21-5.55.37-5.93-.92v-23.22c.22-.68,1.18-.85,1.81-.92,5.19-.6,11.7.33,17.02.16,1.52.17,1.21,5.2.83,6.02-.08.18-.95,1.04-1.02,1.04h-11.33ZM19.08,43.93H2.6v21.63h3.88c1.65-3.66,8.34-3.35,8.83.85.19,1.57.18,8.09-.4,9.23-2.1,4.13-9.29,1.26-9.26-3.18l-3.75-.04c-.63,10.57,14.37,13.77,17.26,3.36,1.07-3.84,1.24-10.99-1.48-14.16-.59-.69-3.23-2.58-3.94-2.58h-7.21l-.51-.51v-10.47c.34.11.74-.34.86-.34h12.19v-3.78Z"/>
      <path class="cls-2" d="M9.71.06c5.05-.88,9.58,7.66,10.29,11.86,1.61,9.45-2.06,15.82-12.41,14.47-3.09-.41-5.9-2.43-6.35-5.66C.71,16.76,4.01,4.59,6.88,1.69c.67-.68,1.9-1.46,2.84-1.63ZM10.37,1.8c-3.37.18-5.35,7.73-6.04,10.4-1.43,5.58-3.4,11.79,4.61,12.5,8.31.74,10.15-4.58,9.4-11.8-.33-3.18-4.28-11.29-7.97-11.1Z"/>
      <path class="cls-1" d="M19.08,43.93v3.78H6.89c-.11,0-.52.45-.86.34v10.47l.51.51h7.21c.71,0,3.35,1.89,3.94,2.58,2.71,3.18,2.55,10.32,1.48,14.16-2.9,10.41-17.89,7.21-17.26-3.36l3.75.04c-.04,4.45,7.16,7.32,9.26,3.18.58-1.14.58-7.66.4-9.23-.5-4.2-7.18-4.51-8.83-.84h-3.88v-21.63h16.48Z"/>
      <path class="cls-1" d="M10.37,1.8c3.69-.19,7.64,7.92,7.97,11.1.76,7.22-1.08,12.54-9.4,11.8-8.01-.72-6.05-6.93-4.61-12.5.69-2.66,2.67-10.22,6.04-10.4ZM8.68,8.98c-2.44.56-4.2,5.83-3.36,8.02.83,1.17,6.22.98,7.76.84,1.08-.09,3.9-.52,3.93-1.89-1.31-3.06-4.45-7.87-8.33-6.97Z"/>
      <path class="cls-2" d="M8.68,8.98c3.88-.89,7.03,3.91,8.33,6.97-.02,1.37-2.84,1.8-3.93,1.89-1.54.13-6.93.33-7.76-.84-.85-2.19.91-7.46,3.36-8.02ZM7.57,16.12c.86.27,4.88,0,6.18,0,.05,0,.85-.36.88-.56-.35-1.64-3.4-4.98-5.01-4.97-1.83.02-3.41,5.1-2.05,5.52Z"/>
    </g>
  </g>
</svg>