<?xml version="1.0" encoding="UTF-8"?>
<svg id="Layer_2" data-name="Layer 2" xmlns="http://www.w3.org/2000/svg" viewBox="0 0 21.9 92.11">
  <defs>
    <style>
      .cls-1 {
        fill: #0f0f0f;
      }

      .cls-2 {
        fill: #d2d2d2;
      }
    </style>
  </defs>
  <g id="Layer_1-2" data-name="Layer 1">
    <g>
      <path class="cls-2" d="M7.49,65.97c5.3-1.26,10.56.25,13,5.36,1.52,3.19,1.56,11.07.4,14.39-3.32,9.54-19.68,8.13-20.63-2.4-.71-7.91.49-16.96.1-24.99,1.77-10.27,17.3-11.05,20.53-1.47.46,1.37,1.52,5.43-.25,5.95-.64.19-4.38.19-5.01,0-1.5-.45-1.19-4.12-3.57-4.66-.95-.22-2.75-.23-3.52.45-.25.22-1.04,1.86-1.04,2.05v5.32ZM5.77,67.17c-.3-1.84,0-5.16,0-7.21,0-.75,1.38-2.61,2.08-3.07,3.65-2.41,7.68.21,8.55,4.12l3.45.16c-.13-4.53-2.59-8.51-7.37-8.94-5.75-.52-9.87,1.63-10.48,7.74-.55,5.52-.52,17.11-.02,22.67.9,9.99,16.77,10.61,17.86-.36.71-7.19-.8-16.05-10.1-14.9-1.08.13-3.67,1.66-3.97-.2Z"/>
      <path class="cls-2" d="M9.55,11.38c-3.78.26-8.39-.15-9.25-4.65C.01,5.22-.32,2.14.61.91c1.69-2.24,4.61.34,6.7.52,2.49.22,4.58-1.86,6.87.33,1.73,1.65.94,4.31,1.24,6.32,1.11,7.63,3.71,14.89,6.45,22.04.2,1.53-1.06,9.32-1.87,10.43-.87,1.18-2.91.8-3.75-.33-.6-.81-2.18-4.81-2.6-5.99-2.53-7.14-3.56-15.31-4.1-22.85ZM17.79,39.19c.73.13.82-.33,1.02-.86.28-.74,1.41-6.85,1.36-7.53-.07-1.05-1.92-4.78-2.39-6.19-1.67-4.99-3.25-9.94-4.06-15.16-.2-1.29-.22-5.27-.56-5.96-.62-1.27-5.17-.15-6.84-.37-1.5-.2-2.8-1.24-4.32-1.34-.1,1.86-.03,5.61,1.53,6.88,1.94,1.58,7.29-.53,8.01,1.95.22,9.84,2.2,19.65,6.26,28.59Z"/>
      <path class="cls-1" d="M5.77,67.17c.31,1.86,2.9.33,3.97.2,9.3-1.15,10.81,7.71,10.1,14.9-1.09,10.97-16.97,10.35-17.86.36-.5-5.56-.53-17.14.02-22.67.61-6.12,4.74-8.26,10.48-7.74,4.78.43,7.24,4.41,7.37,8.94l-3.45-.16c-.87-3.91-4.9-6.53-8.55-4.12-.7.46-2.08,2.32-2.08,3.07,0,2.05-.3,5.37,0,7.21ZM9.8,71.2c-2.01.34-3.32,1.42-3.79,3.41-.52,2.18-.58,8.04.64,9.88,1.97,2.99,8.44,2.25,9.34-1.27.29-1.12.26-7.2.06-8.48-.46-2.99-3.58-3.99-6.25-3.54Z"/>
      <path class="cls-1" d="M17.79,39.19c-4.05-8.95-6.04-18.75-6.26-28.59-.71-2.48-6.06-.37-8.01-1.95C1.97,7.38,1.89,3.63,2,1.77c1.52.1,2.82,1.14,4.32,1.34,1.67.22,6.22-.9,6.84.37.34.69.36,4.67.56,5.96.82,5.22,2.4,10.17,4.06,15.16.47,1.41,2.33,5.14,2.39,6.19.05.69-1.08,6.8-1.36,7.53-.2.53-.29.99-1.02.86Z"/>
      <path class="cls-2" d="M9.8,71.2c2.67-.45,5.79.55,6.25,3.54.2,1.28.23,7.35-.06,8.48-.9,3.52-7.37,4.26-9.34,1.27-1.22-1.84-1.16-7.7-.64-9.88.48-1.99,1.79-3.08,3.79-3.41ZM9.45,73.25c-2.54.56-2.29,6.86-1.81,8.88.77,3.23,6.02,3.24,6.65.42.24-1.08.24-6.33,0-7.41-.49-2.19-2.99-2.29-4.83-1.89Z"/>
    </g>
  </g>
</svg>