<?xml version="1.0" encoding="UTF-8"?>
<svg id="Layer_2" data-name="Layer 2" xmlns="http://www.w3.org/2000/svg" viewBox="0 0 22.32 92.22">
  <defs>
    <style>
      .cls-1 {
        fill: #0f0f0f;
      }

      .cls-2 {
        fill: #d2d2d2;
      }
    </style>
  </defs>
  <g id="Layer_1-2" data-name="Layer 1">
    <g>
      <path class="cls-2" d="M11.02,14.82l2.3-9.54c.21-.67,1.79-4.75,2.04-4.91.95-.62,2.55-.48,3.22.53.38.58,2.08,6.76,2.08,7.56,0,2.16-2.05,5.65-2.79,7.88-1.91,5.76-3.35,11.96-4.36,17.95-.33,1.94.12,9.25-4,6.57-1.3-.84-1.6-6.77-2.02-8.62-1-4.47-2.74-10.19-4.45-14.43C2.34,16.08.02,12.28,0,10.87-.01,9.84,1.6,2.07,2.01,1.18,2.58-.05,3.63-.21,4.86.21c.89.31,2.28,3.66,2.78,4.77,1.39,3.07,2.61,6.61,3.38,9.84ZM16.51,2.12c-2.42,4.91-2.47,10.76-3.95,15.8-.52,1.76-1.4,3.16-2.49.76-.85-1.85-1.38-5.55-2.14-7.81-1.02-3.01-2.38-5.91-3.79-8.75-.53.06-.53.51-.65.89-.46,1.46-1.25,5.05-1.36,6.54-.19,2.59,2.4,6.84,3.4,9.56,2.31,6.31,4.21,13.39,4.8,20.09h1.03c.2-6.63,1.79-13.8,3.69-20.18.63-2.1,3.78-9.07,3.86-10.23.03-.5-1.39-5.16-1.69-5.83-.16-.34-.23-.81-.7-.84Z"/>
      <path class="cls-2" d="M13.76,58.08c-2.75.39-5.98.55-8.77.36-1.35-.1-4-.13-4.27-1.57-.13-.67-.13-4.55.05-5.08.23-.68,1.19-.85,1.83-.92,5.26-.61,11.71.4,17.1.08,3.15.71,3.03,6.57,1.88,8.95l-13.37,31.26c-.65,1.31-5.8,1.17-6.92.84-1.18-.35-1.09-2.06-.76-3.03l13.22-30.89ZM19.08,52.58H2.43v3.78h12.87c.09,0,.74.67.79.9L2.1,89.85c-.1.69.02.44.5.5.66.09,3.57.11,3.97-.16l13.48-31.49c.34-1.39.75-5.64-.97-6.12Z"/>
      <path class="cls-1" d="M16.51,2.12c.47.04.54.5.7.84.31.67,1.72,5.34,1.69,5.83-.08,1.16-3.23,8.12-3.86,10.23-1.9,6.37-3.49,13.54-3.69,20.18h-1.03c-.59-6.7-2.49-13.78-4.8-20.09-1-2.72-3.59-6.98-3.4-9.56.11-1.49.9-5.08,1.36-6.54.12-.38.12-.83.65-.89,1.41,2.84,2.76,5.74,3.79,8.75.77,2.26,1.3,5.96,2.14,7.81,1.09,2.39,1.97,1,2.49-.76,1.48-5.04,1.52-10.89,3.95-15.8Z"/>
      <path class="cls-1" d="M19.08,52.58c1.72.47,1.3,4.73.97,6.12l-13.48,31.49c-.4.27-3.3.24-3.97.16-.47-.06-.6.19-.5-.5l13.99-32.58c-.05-.24-.7-.9-.79-.9H2.43v-3.78h16.65Z"/>
    </g>
  </g>
</svg>