<?xml version="1.0" encoding="UTF-8"?>
<svg id="Layer_2" data-name="Layer 2" xmlns="http://www.w3.org/2000/svg" viewBox="0 0 22.65 92.2">
  <defs>
    <style>
      .cls-1 {
        fill: #0f0f0f;
      }

      .cls-2 {
        fill: #d2d2d2;
      }
    </style>
  </defs>
  <g id="Layer_1-2" data-name="Layer 1">
    <g>
      <path class="cls-2" d="M10.74,26.6l-2.15,9c-.73,1.35-1.35,4.85-2.74,5.52-.8.38-2.12.09-2.63-.64s-2.17-7.21-2.11-8.22c.09-1.78,2.13-5.24,2.79-7.19,1.9-5.6,3.37-12.11,4.36-17.96.39-2.34-.29-8.65,3.87-6.77,1.73.79,1.47,4.67,1.82,6.42,1.16,5.81,2.96,12.01,5.13,17.53.73,1.85,2.64,4.44,2.7,6.26.03.98-1.74,9.18-2.16,9.89-.57.98-1.6,1.04-2.54.62-.79-.36-2.24-3.18-2.71-4.16-1.54-3.19-2.54-6.91-3.61-10.29ZM17.62,39.3c.53-.06.53-.51.65-.89.29-.91,1.71-7.6,1.65-8.17-.09-.89-1.98-3.83-2.46-5.03-2.08-5.16-4.02-11.36-5.17-16.8-.19-.91-.73-6.52-1.36-6.53-.65.42-.47.92-.53,1.53-.71,7.58-2.36,15.12-4.79,22.33-.55,1.65-2.85,6.22-2.69,7.45.11.88,1.29,4.22,1.68,5.22.14.36.14.83.66.88.58-1.66,1.21-3.3,1.69-5,.65-2.29,2.02-11.53,2.94-12.51.31-.33.54-.45,1-.32l6.73,17.83Z"/>
      <path class="cls-2" d="M9.63,50.38c10.84-1.47,16.35,10.63,10.39,18.97,4.95,7.78,3.22,22.31-8.07,22.84-12.02.57-14.83-14.72-9.11-22.84-5.44-6.61-1.93-17.78,6.79-18.96ZM8.94,52.43c-2.39.41-5.32,3.31-6.15,5.52-1.59,4.24-.37,8.13,2.48,11.39-3.31,3.47-3.56,8.09-3.1,12.7.72,7.09,8.96,10.66,14.74,6.51,5.33-3.84,5.02-14.57.7-19.2,3.12-4.1,4.43-8.47,1.45-13.12-2.27-3.54-6.09-4.48-10.11-3.8Z"/>
      <path class="cls-1" d="M17.62,39.3l-6.73-17.83c-.46-.13-.69-.01-1,.32-.92.98-2.29,10.21-2.94,12.51-.48,1.7-1.11,3.34-1.69,5-.52-.05-.53-.52-.66-.88-.39-1-1.56-4.35-1.68-5.22-.16-1.23,2.14-5.81,2.69-7.45,2.43-7.21,4.08-14.75,4.79-22.33.06-.61-.12-1.11.53-1.53.63,0,1.17,5.62,1.36,6.53,1.15,5.44,3.09,11.64,5.17,16.8.48,1.2,2.37,4.15,2.46,5.03.06.57-1.36,7.26-1.65,8.17-.12.38-.12.83-.65.89Z"/>
      <path class="cls-1" d="M8.94,52.43c4.02-.68,7.84.26,10.11,3.8,2.99,4.65,1.67,9.02-1.45,13.12,4.31,4.62,4.63,15.36-.7,19.2-5.78,4.16-14.02.59-14.74-6.51-.47-4.61-.21-9.22,3.1-12.7-2.85-3.26-4.07-7.16-2.48-11.39.83-2.21,3.76-5.11,6.15-5.52ZM9.97,56.55c-6.03,1.25-4.27,11.91,2.24,10.83,6.54-1.08,5.69-12.48-2.24-10.83ZM10.31,71.66c-1.64.3-3.34,1.81-3.8,3.41-.38,1.33-.43,5.56-.21,6.96.58,3.75,5.88,5.36,8.58,2.79,2.2-2.09,2.4-8.45.82-10.81-1.22-1.83-3.2-2.75-5.39-2.35Z"/>
      <path class="cls-2" d="M10.31,71.66c2.19-.4,4.17.52,5.39,2.35,1.58,2.36,1.38,8.71-.82,10.81-2.7,2.58-8,.96-8.58-2.79-.22-1.4-.17-5.63.21-6.96.46-1.6,2.15-3.11,3.8-3.41ZM10.66,73.35c-3.06.62-3.02,5.59-2.64,7.99.27,1.68,2.19,3.15,3.9,2.93,4.49-.58,4.19-12.03-1.26-10.92Z"/>
      <path class="cls-2" d="M9.97,56.55c7.93-1.65,8.78,9.75,2.24,10.83-6.51,1.08-8.27-9.58-2.24-10.83ZM10.66,58.26c-4.09.79-3.54,8.31,1.9,7.06,3.7-.84,2.62-7.93-1.9-7.06Z"/>
    </g>
  </g>
</svg>