<?xml version="1.0" encoding="UTF-8"?>
<svg id="Layer_2" data-name="Layer 2" xmlns="http://www.w3.org/2000/svg" viewBox="0 0 22.2 92.15">
  <defs>
    <style>
      .cls-1 {
        fill: #0f0f0f;
      }

      .cls-2 {
        fill: #d2d2d2;
      }
    </style>
  </defs>
  <g id="Layer_1-2" data-name="Layer 1">
    <g>
      <path class="cls-2" d="M14.26,76.33c-6.33,2.05-12.88-1.92-13.92-8.57-.93-5.94-.28-14.45,6.27-16.76,7.18-2.54,14.41.74,15.2,8.68.56,5.61.46,16.63.02,22.32-.43,5.47-3.48,9.52-9.15,10.07-5.09.5-10.05-1.65-11.71-6.75-1.65-5.1-.58-6.66,4.9-5.93,1.96.26,1.47,1.88,2.27,3.23,1.43,2.4,6.13,2.12,6.13-.29v-6.01ZM2.24,81.13c-1.05,10.97,16.55,12.77,17.53,1.9.7-7.84-.53-16.75-.04-24.7-1.75-8.63-16.14-8.32-17.39.4-1.01,7.02.2,17.86,9.96,16.13,1.27-.22,2.59-1.67,3.71-.11.49.68.44,5.44.32,6.55-.79,7.04-9.67,6.35-10.69-.13l-3.39-.05Z"/>
      <path class="cls-2" d="M10.49,19.68C-1.51,22.76-.28,5.12,6.6.86c2.31-1.44,5.93-1.08,7.67,1.15,4.34,5.55,1.75,18.27,4.1,25.08.58,1.69,2.05,3.12,2.11,4.79.09,2.51-2.19,12.9-6.22,8.59-3.32-3.55-3.93-15.98-3.77-20.78ZM8.68,1.91c-5.2,1.05-9.11,16.9-.08,16.06,1.13-.1,2.79-1.35,3.43,0,.46.96.34,7.68.52,9.43.21,2.07,1.6,10.3,2.92,11.5.86.78,1.18.33,1.57-.49.24-.5,1.68-6.18,1.66-6.56-.03-.6-1.25-1.95-1.61-2.81-2.8-6.66-1.15-14.33-2.64-21.39-.66-3.11-1.81-6.55-5.77-5.75Z"/>
      <path class="cls-1" d="M2.24,81.13l3.39.05c1.02,6.48,9.9,7.16,10.69.13.12-1.11.17-5.87-.32-6.55-1.12-1.56-2.44-.11-3.71.11-9.76,1.72-10.96-9.12-9.96-16.13,1.25-8.73,15.63-9.03,17.39-.4-.48,7.96.75,16.86.04,24.7-.97,10.87-18.58,9.06-17.53-1.9ZM9.02,56.15c-1.34.27-2.65,1.58-2.92,2.92-.3,1.47-.27,7.26,0,8.77.76,4.18,8.14,4.4,9.56.79.5-1.27.53-7.75.3-9.27-.49-3.21-4.27-3.75-6.94-3.21Z"/>
      <path class="cls-1" d="M8.68,1.91c3.96-.8,5.11,2.64,5.77,5.75,1.49,7.06-.16,14.73,2.64,21.39.36.85,1.58,2.21,1.61,2.81.02.39-1.42,6.07-1.66,6.56-.39.82-.71,1.27-1.57.49-1.32-1.2-2.7-9.44-2.92-11.5-.18-1.75-.06-8.47-.52-9.43-.64-1.34-2.3-.1-3.43,0-9.03.83-5.11-15.01.08-16.06ZM11.09,11.36c1.88-1.81-2.95-5.22-5.41-2.5-2.79,3.07,3.64,4.21,5.41,2.5Z"/>
      <path class="cls-2" d="M9.02,56.15c2.67-.54,6.45,0,6.94,3.21.23,1.52.2,8.01-.3,9.27-1.42,3.61-8.8,3.38-9.56-.79-.27-1.51-.3-7.3,0-8.77.27-1.34,1.57-2.65,2.92-2.92ZM8.19,68.33c.99,1.23,5.32,1.3,5.93-.57.32-.99.32-6.55.13-7.72-.48-3.05-5.58-3.02-6.35-.55-.36,1.14-.36,8.04.29,8.84Z"/>
      <path class="cls-2" d="M11.09,11.36c-1.77,1.71-8.2.57-5.41-2.5,2.47-2.72,7.29.69,5.41,2.5Z"/>
    </g>
  </g>
</svg>