<?xml version="1.0" encoding="UTF-8"?>
<svg id="Layer_2" data-name="Layer 2" xmlns="http://www.w3.org/2000/svg" viewBox="0 0 24.19 92.37">
  <defs>
    <style>
      .cls-1 {
        fill: #0f0f0f;
      }

      .cls-2 {
        fill: #d2d2d2;
      }
    </style>
  </defs>
  <g id="Layer_1-2" data-name="Layer 1">
    <g>
      <path class="cls-2" d="M15.16,87.5l-6.18.1c-.56.4-.03,3.31-1.86,4.35-.8.46-4.86.53-5.81.25-1.68-.48-1.33-2.8-1.18-4.14,1.13-10.72,5.57-22.53,6.96-33.38.21-.89.76-1.87,1.74-2.05.73-.14,3.96-.34,4.78-.32,1.02.02,2.7.37,3.04,1.44l7.49,35.3c.58,3.69-4.23,3.31-6.69,3.21s-1.7-4.4-2.3-4.77ZM22.11,90.56l-6.96-35.62c-.43-1.15-4.9-.38-6.11-.55L1.76,90.56l4.51-.15c.6-.43.06-4.02,2.05-4.84.84-.35,6.29-.32,7.25-.03,2.42.75,1.28,4.34,2.03,4.87l4.51.15Z"/>
      <path class="cls-2" d="M12.08.42c.79.57,2.78,5.82,2.81,6.88.03,1.2-.74,1.85-.72,3.07.05,2.91,1.14,7.17,1.39,10.37.26,3.34.94,11.86-.28,14.54-.25.55-1.49,2.37-1.91,2.75-1.59,1.45-3.28.99-4.29-.81L5.93,5.52c.34-2.2,3.62-6.95,6.15-5.1"/>
      <path class="cls-2" d="M11.05,1.96c-1.07-.72-3.75,3.36-3.11,4.65l2.78,29.64.86.86c.14-.03,1.71-2,1.85-2.29,1.21-2.43.01-16.01-.34-19.56-.17-1.65-.97-4.17-.97-5.61,0-1.06.98-1.44.93-2.3-.07-1.45-1.72-3.84-2-5.39"/>
      <path class="cls-1" d="M22.11,90.56l-4.51-.15c-.75-.53.39-4.11-2.03-4.87-.96-.3-6.41-.32-7.25.03-1.99.83-1.46,4.41-2.05,4.84l-4.51.15,7.28-36.17c1.2.16,5.68-.6,6.11.55l6.96,35.62ZM10.97,70.28c-1.36.42-2.99,8.4-2.59,9.69.54,1.76,6.63,2.17,6.86-.62.08-.98-1.12-6.35-1.5-7.5-.45-1.36-1.27-2.04-2.77-1.58Z"/>
      <path class="cls-1" d="M11.05,1.96c.28,1.55,1.93,3.94,2,5.39.04.86-.93,1.24-.93,2.3,0,1.45.81,3.96.97,5.61.36,3.55,1.55,17.13.34,19.56-.14.29-1.71,2.26-1.85,2.29l-.86-.86L7.94,6.6c-.64-1.28,2.04-5.37,3.11-4.65"/>
      <path class="cls-2" d="M10.97,70.28c1.5-.46,2.33.22,2.77,1.58.38,1.14,1.58,6.52,1.5,7.5-.23,2.79-6.32,2.38-6.86.62-.4-1.3,1.23-9.28,2.59-9.69ZM12.1,72.28c-.85-.11-.55,0-.72.48-.44,1.2-1.28,5.07-1.01,6.19l3.12.57-1.38-7.24Z"/>
    </g>
  </g>
</svg>