<?xml version="1.0" encoding="UTF-8"?>
<svg id="Layer_2" data-name="Layer 2" xmlns="http://www.w3.org/2000/svg" viewBox="0 0 28.36 82.68">
  <defs>
    <style>
      .cls-1 {
        fill: #0f0f0f;
      }

      .cls-2 {
        fill: #d2d2d2;
      }
    </style>
  </defs>
  <g id="Layer_1-2" data-name="Layer 1">
    <g>
      <path class="cls-2" d="M4.44,42.89c2-.44,9.67-.27,12.01-.09,7.95.63,13.6,9.08,10.33,16.56-.43.98-2.13,2.86-2.18,3.68-.03.59,1.08,1.61,1.38,2.29,2.89,6.55.73,14.93-6.81,16.76-2.49.61-11.85.75-14.44.35-1.72-.27-2.23-1.65-2.28-3.24.76-10.66-.97-22.63,0-33.13.13-1.4.38-2.83,1.98-3.19ZM4.54,80.4h13.62c.77,0,3.27-1.33,3.97-1.89,2.82-2.24,3.59-6.49,3.01-9.93-.34-2.03-2.36-3.77-2.36-5.6,0-2.03,2.2-3.56,2.64-5.67.92-4.48-.92-9.4-5.13-11.46-.48-.24-3.56-1.32-3.85-1.32H5.06l-.52.52v35.34Z"/>
      <path class="cls-2" d="M17.3,19.72c-.51.45,2.64,1.97,2.27,3.79-.13.62-2.76,3.83-3.32,4.29-1.96,1.59-4.79-1.15-5.84-2.74-1.36-2.04.19-2.85,1.03-4.65-3.26.17-8.21-.05-10.35-2.93C-1.85,13.53,1.55-.85,6.75,2.51c2.89,1.87-1.17,6.47.19,7.4.75.51,13.37.09,13.81-.54,0-1.08-1.08-1.69-1.3-2.65-.61-2.64,1.97-7.9,5.09-6.47,1.59.72,3.83,8.16,3.82,9.99,0,5.79-5.85,9.18-11.06,9.48ZM23.84,1.79c-.79-.61-2.72,2.93-2.76,3.65-.08,1.46,3.04,3.6,2.11,4.81-.85,1.11-7.22,1.78-8.83,1.88-2.76.16-10.1.89-9.81-3.23.05-.67,2.49-5.47.51-5.04C2.12,6.29.16,14.92,3.73,17.25c3.96,2.58,15.89,1.19,19.75-1.52,5.16-3.63,2.04-9.34.36-13.94ZM13.89,20.1l-2.06,3.53c2.7,3.62,3.66,3.08,5.79-.59-.7-.63-2.79-3.49-3.73-2.94Z"/>
      <path class="cls-1" d="M4.54,80.4v-35.34l.52-.52h11.38c.3,0,3.37,1.08,3.85,1.32,4.21,2.06,6.05,6.98,5.13,11.46-.43,2.11-2.64,3.64-2.64,5.67,0,1.83,2.02,3.56,2.36,5.6.58,3.43-.19,7.69-3.01,9.93-.71.56-3.21,1.89-3.97,1.89H4.54ZM9.1,60.32c4.68.88,11.12,1.6,11.9-4.67.87-6.99-7.22-6.49-11.9-5.52-.68.68-.66,9.52,0,10.18ZM8.68,66.09c-.38,1.4,0,7.02,0,8.97,0,.06.53.61.69.68.8.37,7.2.29,8.28.02,3.91-1.01,5.15-9.3-.42-10.64-1.38-.33-5.66-.49-7-.23-.46.09-1.47.87-1.56,1.2Z"/>
      <path class="cls-1" d="M23.84,1.79c1.68,4.61,4.8,10.32-.36,13.94-3.86,2.71-15.79,4.1-19.75,1.52C.16,14.92,2.12,6.29,5.06,3.86c1.97-.44-.47,4.37-.51,5.04-.28,4.12,7.06,3.39,9.81,3.23,1.61-.09,7.98-.77,8.83-1.88.93-1.21-2.18-3.35-2.11-4.81.04-.72,1.97-4.26,2.76-3.65Z"/>
      <path class="cls-1" d="M13.89,20.1c.94-.55,3.03,2.31,3.73,2.94-2.12,3.68-3.09,4.21-5.79.59l2.06-3.53Z"/>
      <path class="cls-2" d="M8.68,66.09c.09-.33,1.1-1.11,1.56-1.2,1.34-.26,5.61-.1,7,.23,5.57,1.34,4.33,9.62.42,10.64-1.08.28-7.48.36-8.28-.02-.16-.08-.69-.62-.69-.68,0-1.94-.38-7.57,0-8.97ZM10.74,74.2h6.03c.29,0,1.48-1.04,1.7-1.41.93-1.54.73-5.84-1.35-5.84h-6.38v7.24Z"/>
      <path class="cls-2" d="M9.1,60.32c-.66-.66-.68-9.5,0-10.18,4.68-.98,12.77-1.48,11.9,5.52-.78,6.26-7.22,5.54-11.9,4.67ZM10.74,59.03h5.69c.37,0,1.67-1.01,1.98-1.47.8-1.22,1.07-3.83-.06-4.93-.31-.3-1.97-1.19-2.26-1.19h-5.34v7.59Z"/>
    </g>
  </g>
</svg>