<?xml version="1.0" encoding="UTF-8"?>
<svg id="Layer_2" data-name="Layer 2" xmlns="http://www.w3.org/2000/svg" viewBox="0 0 26.15 85.92">
  <defs>
    <style>
      .cls-1 {
        fill: #0f0f0f;
      }

      .cls-2 {
        fill: #d2d2d2;
      }
    </style>
  </defs>
  <g id="Layer_1-2" data-name="Layer 1">
    <g>
      <path class="cls-2" d="M2.64,46.08c5,.39,11.59-.8,16.4.02,4.44.75,6.5,4.93,6.82,9.04.37,4.67.57,19.59-.59,23.57-1.07,3.66-3.98,6.54-7.87,6.96-3.2.35-10.23.31-13.47.01-1.97-.18-2.4-.61-2.59-2.59-1.02-11.05.8-23.64,0-34.85.02-.76.51-1.94,1.28-2.17ZM3.61,47.74l-.52.52v35.17l.52.52h12.76c.2,0,2.14-.49,2.49-.61,2.79-.98,4.68-3.9,4.94-6.79.66-7.4-.45-15.87-.1-23.38-.4-1.51-1.21-3.13-2.5-4.05-.55-.39-2.95-1.38-3.45-1.38H3.61Z"/>
      <path class="cls-2" d="M17.57,18.43c-.58-2.81-4.84-8.95-7.38-10.03-1.01-.43-1.89-.15-2.62-.49-2.38-1.1.35-9.02,4.67-7.78,6.65,1.91,11.02,11.01,11.54,17.44.18,2.2.22,8.31-1.97,9.4-2.45,1.22-13.16,1.74-16.14,1.47-2.05-.18-3.93-1.17-4.82-3.11-.84-1.84-1.69-5.95.85-6.75l15.88-.16ZM21.3,25.26c1.65-6.23.26-14.51-4.09-19.41-1.19-1.34-5.06-4.71-6.89-3.81-1.03,1.15-1.88,2.74-1.73,4.32,3.93,0,7.82,5.08,9.5,8.26,2.03,3.85,2.59,5.43-2.43,5.87-4.3.38-9.27-.09-13.58-.31-.52,3.44.32,6.27,4.26,6.53,1.93.13,6.23-.19,8.29-.36.9-.08,6.39-.78,6.66-1.1Z"/>
      <path class="cls-1" d="M3.61,47.74h14.14c.5,0,2.9.99,3.45,1.38,1.3.92,2.1,2.54,2.5,4.05-.36,7.51.76,15.98.1,23.38-.26,2.89-2.14,5.8-4.94,6.79-.35.12-2.29.61-2.49.61H3.61l-.52-.52v-35.17l.52-.52ZM7.65,78.69c.62.62,7.8.59,8.98.35,1.45-.29,2.71-1.66,3.19-3.01l.14-20.85c-.3-1.42-1.27-2.76-2.73-3.14-1.21-.31-7.56-.39-8.8-.16-.63.12-.86.43-1.05,1.02l.27,25.8Z"/>
      <path class="cls-1" d="M21.3,25.26c-.28.31-5.76,1.02-6.66,1.1-2.05.18-6.36.49-8.29.36-3.94-.26-4.78-3.09-4.26-6.53,4.31.22,9.28.68,13.58.31,5.02-.44,4.46-2.02,2.43-5.87-1.68-3.18-5.57-8.27-9.5-8.26-.15-1.57.69-3.16,1.73-4.32,1.83-.9,5.7,2.47,6.89,3.81,4.35,4.89,5.74,13.17,4.09,19.41Z"/>
      <path class="cls-2" d="M7.65,78.69l-.27-25.8c.19-.59.42-.9,1.05-1.02,1.25-.23,7.6-.15,8.8.16,1.45.38,2.43,1.71,2.73,3.14l-.14,20.85c-.48,1.36-1.75,2.72-3.19,3.01-1.18.24-8.35.27-8.98-.35ZM8.95,53.6v23.27l.52.52h6.21c1.71,0,2.47-1.38,2.6-2.91.53-5.91-.41-12.62-.04-18.61.16-1.05-1.84-2.26-2.56-2.26h-6.72Z"/>
    </g>
  </g>
</svg>