<?xml version="1.0" encoding="UTF-8"?>
<svg id="Layer_2" data-name="Layer 2" xmlns="http://www.w3.org/2000/svg" viewBox="0 0 27.39 94.39">
  <defs>
    <style>
      .cls-1 {
        fill: #0f0f0f;
      }

      .cls-2 {
        fill: #d2d2d2;
      }
    </style>
  </defs>
  <g id="Layer_1-2" data-name="Layer 1">
    <g>
      <path class="cls-2" d="M10.02,69.71c.37.37,7.65.14,8.78.35,2.74.51,1.63,7.92.35,7.92h-8.62l-.52.52v6.55l.52.52h14.48c2.4,0,2.92,7.95-.23,8.39-6.08,0-13.1.77-19.1.24-2.53-.22-3.4-.68-3.62-3.28-.9-10.82.71-22.86,0-33.82-.04-1.82,1.2-2.98,2.98-3.23,6-.84,13.96.44,20.16.12,3.15.26,2.61,8.81.15,8.81h-14.83l-.52.52v6.38ZM25.19,55.92H4.16v36.21h20.17c1.04-1.1.32-3.05.52-4.48h-14.31c-.1,0-1.75-.7-1.82-.77-.57-.56-.66-8.71-.25-9.58.95-1.99,7.86-.51,9.85-1.18l.32-4.33h-8.79c-.08,0-1.12-.68-1.23-.84-.54-.75-.54-8.79.1-9.43.07-.07,1.72-.77,1.82-.77h14.66v-4.83Z"/>
      <path class="cls-2" d="M1.86,36.14C.43,34.55-.13,29.6.03,27.47c.36-4.8,3.17-8.33,6.22-11.73l-.18-.52C-1.7,10.78,5.99.61,12.59.04c2.03-.18,6.96.1,7.37,2.67.67,4.28-10.16,3.75-9.59,6.13,1.76,1.17,3.91,1.82,6.04,1.56,1.36-.17,2.4-1.1,3.68-1.49,5.6-1.71,6.73,1.53,3.67,5.74-1.02,1.41-5.7,2.07-7.77,2.92-3.7,1.52-9.18,5.33-10.29,9.36-.64,2.32.26,2.32,2.02,3.17,2.85,1.38,7.93,2.63,11.08,2.71,2.22.06,6.5-1.52,7.28,1.35.46,1.68-3.14,5.06-4.57,5.81-1.35.71-4.29,1.47-5.8,1.47-3.18,0-11.7-2.94-13.85-5.32ZM17.95,2.47C12.41.38,6.49,3.1,4.83,8.83c-1.31,4.53,2.72,4.2,3.64,5.7,1.28,2.08-1.61,3.25-2.59,4.32-3.3,3.58-4.34,7.9-3.76,12.72.43,3.5,1.92,4.2,4.8,5.54,3.83,1.78,9.15,3.36,13.17,1.47.78-.37,4.86-3.62,4.06-4.39-5.26.82-10.39.07-15.35-1.72-3.11-1.12-5.46-1.45-4.96-5.32.75-5.8,8.56-10.25,13.49-12.02,3.06-1.1,5.69-.4,6.13-4.73-2.88-.57-5.38,2.12-8.08,2.08-1.43-.02-6.6-1.61-7.02-3.02-1.34-4.51,8.47-4.42,9.43-5.94.22-.35.17-.67.16-1.05Z"/>
      <path class="cls-1" d="M25.19,55.92v4.83h-14.66c-.1,0-1.75.7-1.82.77-.65.63-.65,8.67-.1,9.43.11.16,1.15.84,1.23.84h8.79l-.32,4.33c-1.99.67-8.9-.81-9.85,1.18-.41.86-.32,9.02.25,9.58.07.07,1.72.77,1.82.77h14.31c-.2,1.43.52,3.39-.52,4.48H4.16v-36.21h21.03Z"/>
      <path class="cls-1" d="M17.95,2.47c.01.38.06.7-.16,1.05-.96,1.52-10.77,1.43-9.43,5.94.42,1.41,5.59,3,7.02,3.02,2.71.04,5.2-2.65,8.08-2.08-.44,4.32-3.08,3.63-6.13,4.73-4.93,1.77-12.74,6.22-13.49,12.02-.5,3.87,1.85,4.2,4.96,5.32,4.96,1.79,10.09,2.54,15.35,1.72.8.77-3.27,4.02-4.06,4.39-4.03,1.89-9.34.31-13.17-1.47-2.88-1.34-4.38-2.04-4.8-5.54-.59-4.82.46-9.13,3.76-12.72.98-1.07,3.87-2.24,2.59-4.32-.92-1.5-4.95-1.17-3.64-5.7C6.49,3.1,12.41.38,17.95,2.47Z"/>
    </g>
  </g>
</svg>