<?xml version="1.0" encoding="UTF-8"?>
<svg id="Layer_2" data-name="Layer 2" xmlns="http://www.w3.org/2000/svg" viewBox="0 0 28.4 91.96">
  <defs>
    <style>
      .cls-1 {
        fill: #0f0f0f;
      }

      .cls-2 {
        fill: #d2d2d2;
      }
    </style>
  </defs>
  <g id="Layer_1-2" data-name="Layer 1">
    <g>
      <path class="cls-2" d="M13.4,51.83c4.06,0,8.9,1.69,10.81,5.55.84,1.71,1.06,2.6-.52,3.98-.47.41-2.54,1.61-3.13,1.71-2.37.36-2.3-1.02-3.83-2-3.74-2.4-6.66-.78-7.03,3.55-.31,3.62-.27,9.83,0,13.47.16,2.19.51,4.39,3.02,4.9,3.95.82,5.76-1.37,5.47-5.12-.47-.64-3.21.13-3.63-2.58-.24-1.52-.3-5.09,1.36-5.84.72-.33,7.35-.32,8.42-.16,1.12.18,1.72.76,1.9,1.9.47,2.98.22,11.17-.85,13.94-3.64,9.45-19.33,8.97-22.68-.76-1.46-4.22-1.33-16.35-.95-21.14.54-6.89,4.51-11.4,11.62-11.41ZM24.55,81.52c.37-3.1-.27-6.82,0-10l-.52-.52h-7.41v4.48c3.35-.46,3.86,1.8,3.42,4.63-1.04,6.76-11.34,7.23-12.06-1-.32-3.71-.43-12.29,0-15.88.18-1.5,1.65-3.9,3.02-4.57,3.25-1.58,6.82.57,9.17,2.64,2.71-1.44,3.88-1.9,1.29-4.62-5.07-5.32-16.67-3.76-17.6,4.84-.49,4.54-.4,14.35-.01,18.98,1.09,12.82,19.34,12.55,20.7,1.02Z"/>
      <path class="cls-2" d="M23.38,2.06c-2.62,2.32-2.39,3.73.61,5.48l2.3-2.91-2.91-2.57Z"/>
      <path class="cls-2" d="M14.54.15c.47.21,3.74,3.67,3.81,4.16.2,1.41-2.91,5-4.14,5.19-1.74.26-5.51-3.3-4.66-5.37.09-.21,2.5-3.56,2.68-3.7"/>
      <path class="cls-2" d="M13.4,2.08c-.52.14-1.97,2.35-1.95,2.91l2.53,2.55c.7-.72,2.41-1.82,2.31-2.89-.07-.69-2.13-2.77-2.89-2.57Z"/>
      <path class="cls-1" d="M24.55,81.52c-1.37,11.53-19.62,11.8-20.7-1.02-.39-4.63-.48-14.44.01-18.98.94-8.6,12.53-10.16,17.6-4.84,2.6,2.73,1.42,3.18-1.29,4.62-2.35-2.06-5.91-4.21-9.17-2.64-1.37.66-2.84,3.07-3.02,4.57-.44,3.59-.33,12.17,0,15.88.71,8.23,11.02,7.77,12.06,1,.44-2.83-.07-5.09-3.43-4.63v-4.48h7.42l.52.52c-.27,3.18.37,6.9,0,10Z"/>
      <path class="cls-1" d="M13.4,2.08c.76-.2,2.82,1.88,2.89,2.57.1,1.06-1.6,2.16-2.31,2.89l-2.53-2.55c-.01-.56,1.44-2.77,1.95-2.91Z"/>
      <g>
        <path class="cls-2" d="M24.21,9.79v-.5c1.09-.36,3.89-3.03,4.08-4.05.32-1.77-3.88-6.07-5.81-5.1-.42.21-3.05,3.95-3.1,4.52-.18,1.87,1.83,1.98,2.07,3.59-7.1.52-10.06,16.5-1.04,16.56-.25.5-1.56,1.02-2.07,1.19-2.44.82-5.55,1.09-8.11.88-.94-.07-4.63-.6-4.58-1.83.09-2.05,2.67-6.55.62-8.34C2.83,13.73.24,23.39.05,25.65c-.93,11.39,10.35,12.86,18.9,9.94,10.64-3.63,12.14-18.07,5.25-25.79ZM9.21,34.8C-.25,33.86.53,24.38,4.73,18.25c.76-.14.51.3.48.82-.32,4.62-4.15,7.75,2.77,9.37,3.51.82,8.15.38,11.49-.96,1.92-.78,4.74-2.32,4.39-4.74-1.47-.21-3.64.29-5,0-4.16-.89-1.41-12.74,2.07-12.73,2.85,0,4.74,5.27,5.19,7.54,2.36,11.81-5.49,18.39-16.91,17.26Z"/>
        <path class="cls-2" d="M21.4,14.3c.42.11.77.32,1.04.62-.27-.3-.62-.51-1.04-.62Z"/>
        <path class="cls-1" d="M26.12,17.54c-.45-2.27-2.35-7.54-5.19-7.54-3.48,0-6.23,11.85-2.07,12.73,1.36.29,3.53-.21,5,0,.35,2.43-2.47,3.97-4.39,4.74-3.34,1.35-7.98,1.78-11.49.96-6.92-1.61-3.1-4.75-2.77-9.37.04-.52.28-.96-.48-.82C.53,24.38-.25,33.86,9.21,34.8c11.43,1.14,19.28-5.44,16.91-17.26ZM22.67,18.94c-.09.12-.18.22-.29.31-.22.18-.47.31-.77.37-2.76.53-3.83-1.64-3.38-3.39.13-.52.41-1.01.81-1.38.4-.36.94-.61,1.6-.64.28-.02.53.02.76.09.42.11.77.32,1.04.62.03.03.05.06.07.09.18.21.32.45.43.71.18.44.27.94.27,1.43,0,0,0,.02,0,.02-.01.66-.19,1.3-.54,1.76Z"/>
        <path class="cls-2" d="M22.94,15.73c-.11-.26-.26-.5-.43-.71-.02-.03-.04-.06-.07-.09-.27-.3-.62-.51-1.04-.62-.23-.06-.48-.1-.76-.09-.66.04-1.2.28-1.6.64-.4.37-.68.85-.81,1.38-.45,1.75.62,3.92,3.38,3.39.3-.06.56-.19.77-.37.11-.09.21-.2.29-.31.35-.46.53-1.1.54-1.76,0,0,0-.02,0-.02,0-.49-.08-.98-.27-1.43ZM21.44,17.9l-1.32-.05c-1.15-2.28,1.77-2.31,1.32.05Z"/>
      </g>
      <path class="cls-1" d="M23.38,2.06l2.91,2.57-2.3,2.91c-3-1.75-3.23-3.16-.61-5.48Z"/>
    </g>
  </g>
</svg>