<?xml version="1.0" encoding="UTF-8"?>
<svg id="Layer_2" data-name="Layer 2" xmlns="http://www.w3.org/2000/svg" viewBox="0 0 26.77 89.06">
  <defs>
    <style>
      .cls-1 {
        fill: #0f0f0f;
      }

      .cls-2 {
        fill: #d2d2d2;
      }
    </style>
  </defs>
  <g id="Layer_1-2" data-name="Layer 1">
    <g>
      <path class="cls-2" d="M10.88,64.43h6.39v-14.29c0-1.83,9.19-2.82,8.42,1.33l-.09,35.57c-.27,2.97-8.33,2.22-8.33.41v-14.45l-.5-.5h-5.88v14.96c0,1.87-8.95,2.75-8.42-.99l.09-35.91c.72-3.24,8.33-1.93,8.33-.41v14.29ZM9.2,50.65h-5.04v36.3c1.59-.22,3.78.54,5.04-.5v-15.13l.5-.5h8.74l.5.5v15.63l4.49-.05.55-.79-.15-35.15-4.9-.31v14.96l-.5.5h-8.74l-.5-.5v-14.96Z"/>
      <path class="cls-2" d="M7.21.08c1.63-.28,2.51.22,3.97.7,6.36,2.07,14.58,8.2,15.4,15.29,1.27,11.02-3.74,15.7-14.22,10.9-2.99,2.1-6.01,4.68-9.87,3.2-2.11-.81-3.07-2.28-2.1-4.5.8-1.83,4.88-3.84,5.15-4.88.22-.84-.51-3.17-.14-4.94.43-2.11,2.6-3.63,2.9-4.71.42-1.54-1.52-2.66-2.3-3.78C4.31,4.93,3.38.74,7.21.08ZM7.56,1.78c-4.26.73,2.27,6.66,2.66,7.53,1.35,2.95-3.46,4.93-3.25,8.4.08,1.34,1.14,2.42.42,3.93-.73,1.52-6.59,4.08-5.11,6.3,3.89,2.15,6.71-1.12,9.72-3.03,5.71,2.2,12.17,4.44,12.9-4.04.57-6.63-2.44-11.44-7.76-15.02-1.72-1.16-7.75-4.39-9.58-4.07Z"/>
      <path class="cls-1" d="M9.2,50.65v14.96l.5.5h8.74l.5-.5v-14.96l4.9.31.15,35.15-.55.79-4.49.05v-15.63l-.5-.5h-8.74l-.5.5v15.13c-1.26,1.05-3.45.28-5.04.5v-36.3h5.04Z"/>
      <path class="cls-1" d="M7.56,1.78c1.83-.31,7.86,2.91,9.58,4.07,5.32,3.58,8.33,8.39,7.76,15.02-.73,8.48-7.19,6.23-12.9,4.04-3.01,1.91-5.82,5.19-9.72,3.03-1.48-2.22,4.38-4.78,5.11-6.3.72-1.51-.34-2.59-.42-3.93-.21-3.46,4.6-5.44,3.25-8.4-.4-.87-6.92-6.8-2.66-7.53ZM12.03,13.17c-1.64.25-3.77,4.27-1.88,5.54,4.4,2.94,7.51-2.53,3.88-4.91-.56-.36-1.32-.73-2-.63ZM19.61,14.23c-.5.01-1.29.37-1.59.8-.24.36-1.82,4.77-1.72,5.09,1.03,1.65,5.93,1.82,6.69.23,1-1.73-1.6-6.16-3.39-6.12Z"/>
      <path class="cls-2" d="M19.61,14.23c1.79-.04,4.39,4.39,3.39,6.12-.76,1.59-5.66,1.42-6.69-.23-.1-.31,1.47-4.73,1.72-5.09.29-.43,1.09-.79,1.59-.8ZM21.44,19.65c.39-.87-1.06-3.3-1.89-3.1l-1.21,2.58c.14.78,2.45.5,3.11.52Z"/>
      <path class="cls-2" d="M12.03,13.17c.68-.1,1.44.26,2,.63,3.64,2.38.52,7.85-3.88,4.91-1.89-1.26.24-5.28,1.88-5.54ZM11.49,17.54c.8,1.25,3.64-.61,1.88-2.05-1.35-1.11-2.44,1.16-1.88,2.05Z"/>
    </g>
  </g>
</svg>