<?xml version="1.0" encoding="UTF-8"?>
<svg id="Layer_2" data-name="Layer 2" xmlns="http://www.w3.org/2000/svg" viewBox="0 0 25.82 90.49">
  <defs>
    <style>
      .cls-1 {
        fill: #0f0f0f;
      }

      .cls-2 {
        fill: #d2d2d2;
      }
    </style>
  </defs>
  <g id="Layer_1-2" data-name="Layer 1">
    <g>
      <path class="cls-2" d="M7.76,0c3.82,0,10.58.63,14.48,1.06,5.1.57,4.15,6.17.87,7.42-6.4,2.44-11.64,1.94-16.02,8.81-2.72,4.27-1.31,6.72,3.16,8.51,4.98,2,7.95.9,12.68,1.46,3.22.38,2.71,3.71.68,5.52-7.95,7.07-20.94,2.34-23.18-7.84C-.96,18.56,1.81,12.47,6.21,7.96-2.68,8.71.98,0,7.76,0"/>
      <path class="cls-2" d="M3.28,5.89h5.52c.26,0,1.01.57,1.55.35.38,2.03-1.54,2.18-2.59,3.1-11.63,10.24-3.9,28.78,10.5,24.29,1.48-.46,7.93-4.2,4-4.66-4.08-.47-6.75.45-11.15-.92-13.62-4.23-5.31-15.42,3.48-19.12,1.79-.75,7.71-1.96,8.49-2.54.74-.55.82-1.84.66-2.69l-.82-.57c-4.16.16-8.31-.82-12.42-1.03-2.87-.14-6.78-.51-7.76,2.94l.52.85Z"/>
      <path class="cls-2" d="M18.89,50.46c1.68-.25,5.19-.32,5.59,1.81l-.08,27.83c-1.87,11.81-18.2,14.38-23.19,3.37-2.14-4.72-1.9-8.64,4.46-7.57,2.67.45,2.6,4.17,5.17,5.18s5.12.4,5.39-2.6c.71-7.88-.79-16.99-.01-24.84.21-2.14.47-2.86,2.67-3.19ZM18.28,52.44v26.72c0,.89-1.64,2.89-2.44,3.42-3.96,2.64-8.62-.4-9.68-4.59-4.41-.18-5.26-.62-3.57,3.74,4.22,10.86,19.03,8.12,20.16-3.27.79-7.94-.58-17.1,0-25.17l-.57-.81-3.92-.05Z"/>
      <path class="cls-1" d="M3.28,5.89l-.52-.85c.97-3.45,4.89-3.09,7.76-2.94,4.11.21,8.26,1.19,12.42,1.03l.82.57c.16.85.08,2.14-.66,2.69-.79.58-6.71,1.79-8.49,2.54-8.8,3.71-17.11,14.89-3.48,19.12,4.4,1.37,7.06.45,11.15.92,3.93.45-2.52,4.19-4,4.66C3.86,38.12-3.87,19.58,7.76,9.34c1.05-.92,2.97-1.06,2.59-3.1-.54.22-1.29-.35-1.55-.35H3.28Z"/>
      <path class="cls-1" d="M18.28,52.44l3.92.05.57.81c-.59,8.07.79,17.23,0,25.17-1.14,11.4-15.94,14.13-20.16,3.27-1.69-4.36-.84-3.92,3.57-3.74,1.05,4.19,5.71,7.23,9.68,4.59.79-.53,2.44-2.53,2.44-3.42v-26.72Z"/>
    </g>
  </g>
</svg>