<?xml version="1.0" encoding="UTF-8"?>
<svg id="Layer_2" data-name="Layer 2" xmlns="http://www.w3.org/2000/svg" viewBox="0 0 27.27 93.94">
  <defs>
    <style>
      .cls-1 {
        fill: #0f0f0f;
      }

      .cls-2 {
        fill: #d2d2d2;
      }
    </style>
  </defs>
  <g id="Layer_1-2" data-name="Layer 1">
    <g>
      <path class="cls-2" d="M11.23,65.4l8.76-11.44c1.58-.27,5.99-.8,6.9.62,1.18,1.87-.68,3.73-1.69,5.25-2.82,4.23-6.29,8.08-8.98,12.43l9.99,19.35c.51,2.88-6.02,2.54-7.15,1.86-1.1-.66-5.08-8.82-6.1-10.6-.58-1.02-1.2-2.35-2.06-3.11v12.85c0,1.48-7.77,2.24-7.6-.75.64-11.33-1.13-24.16-.09-35.33.11-1.19.42-2.88,1.86-3.15,1.76-.33,6.17-.38,6.17,2.16v9.85ZM9.23,55.39h-4.01v36.73c.91-.17,3.63.47,3.96-.55.57-3.76-.61-9.08.06-12.63.27-1.43,2.24-2.2,3.15-.83l7.58,13.96,4.29.05-10.02-19.84,11.35-16.38c-.17-.82-3.88-.56-4.68-.34l-8.65,12.05c-.77.98-3.03.48-3.03-.69v-11.52Z"/>
      <path class="cls-2" d="M23.14.05c2.44-.51,4.03,3.06,4.13,4.99.05.95-.81,1.66-.95,2.69-1.06,7.76,2.63,19.26-3.25,25.37-4.8,4.99-21.23,8.96-22.86-.61-.36-2.14-.56-10.32,2.18-10.78,4.77-.81.59,6.72,4.19,7.51,2.89.64,10.56-.42,12.7-2.67,2.22-2.33,1.62-11.59,1.55-15.03-.05-2.3-.83-6-.63-8.18.1-1.15,1.82-3.06,2.94-3.3ZM3.23,28.78c-.31-1.45.22-3.78,0-5.34-.93-.3-1.22,1.76-1.29,2.33-.88,7.01.48,11.38,8.32,10.73,4.7-.39,10.93-2.69,13.26-7.09,2.63-4.97.23-16.41,1.08-22.37.12-.83.72-1.31.74-2.04.01-.59-1.18-3.19-1.59-3.29-2.78,1.02-1.23,5.17-1.18,7.4.09,3.88.57,13.73-.78,16.84-1.28,2.94-4.52,4.03-7.44,4.62-2.5.51-10.36,1.73-11.1-1.79Z"/>
      <path class="cls-2" d="M14.26,15.85c2.63-.4,4.3,2.32,2.25,4.15-1.32,1.18-7.62,3.56-8.82,1.56-1.11-1.83.34-2.44.63-3.55.46-1.76-.25-2.47,1.03-4.49,2.71-4.25,7.81-1.71,4.91,2.32ZM13.23,13.09c-1.47-.09-3.01,1.98-3.09,3.32-.04.71.4,1.45.28,1.96-.16.7-1.7,1.16-1.33,2.31,2.39.16,4.38-1.38,6.55-2.07-.49-2.29-3.37.52-3.14-2.93.06-.91.98-1.54.72-2.58Z"/>
      <path class="cls-1" d="M9.23,55.39v11.52c0,1.17,2.26,1.67,3.03.69l8.65-12.05c.8-.22,4.51-.47,4.68.34l-11.35,16.38,10.02,19.84-4.29-.05-7.58-13.96c-.91-1.37-2.88-.6-3.15.83-.66,3.55.51,8.88-.06,12.63-.33,1.02-3.05.38-3.96.55v-36.73h4.01Z"/>
      <path class="cls-1" d="M3.23,28.78c.75,3.52,8.61,2.3,11.1,1.79,2.92-.59,6.17-1.68,7.44-4.62,1.35-3.11.86-12.96.78-16.84-.05-2.23-1.59-6.38,1.18-7.4.41.09,1.6,2.7,1.59,3.29-.02.73-.62,1.21-.74,2.04-.84,5.96,1.55,17.4-1.08,22.37-2.32,4.4-8.56,6.7-13.26,7.09-7.83.65-9.2-3.71-8.32-10.73.07-.57.36-2.63,1.29-2.33.22,1.57-.31,3.9,0,5.34Z"/>
      <path class="cls-1" d="M13.23,13.09c.26,1.04-.66,1.67-.72,2.58-.24,3.45,2.65.64,3.14,2.93-2.17.69-4.15,2.23-6.55,2.07-.37-1.14,1.16-1.61,1.33-2.31.12-.51-.33-1.25-.28-1.96.08-1.34,1.62-3.41,3.09-3.32Z"/>
    </g>
  </g>
</svg>