<?xml version="1.0" encoding="UTF-8"?>
<svg id="Layer_2" data-name="Layer 2" xmlns="http://www.w3.org/2000/svg" viewBox="0 0 25.32 94.13">
  <defs>
    <style>
      .cls-1 {
        fill: #0f0f0f;
      }

      .cls-2 {
        fill: #d2d2d2;
      }
    </style>
  </defs>
  <g id="Layer_1-2" data-name="Layer 1">
    <g>
      <path class="cls-2" d="M19.9.14c1.03-.24,2.02-.25,2.68.62.36.47,1.5,4.37,1.54,5.05.08,1.5-.87,1.78-1.03,3.04-.99,7.77,2.62,15.15-1.78,22.71-7.13,12.26-26.08,8.53-20.2-7.78.65-1.8,2.33-5.33,4.73-3.51,2.02,1.53-1.12,5.07.55,7.39,1.8,2.52,10.49.64,10.88-3.25.63-6.37-1.3-14.19-.34-20.34.18-1.16,1.84-3.65,2.98-3.91ZM4.83,21.79c-1.19.01-1.75,1.64-2.08,2.57-2.72,7.63,1.05,14.53,9.74,12.15,12.77-3.5,8.29-18.76,8.59-28.02.03-1.03,1.3-1.71,1.25-2.68-.02-.42-1.23-3.97-1.47-4.03-2.68,1.22-2.3,3.88-2.23,6.37.14,5.04,1.02,12.38.36,17.26-.62,4.56-11.09,6.7-13.82,3.78-2.34-2.5-.08-7.13-.34-7.42Z"/>
      <path class="cls-2" d="M23.36,85.47c2.64.56,2.49,8.01.27,8.66l-21.51-.18-.84-.84-.24-37.68c.3-2.83,8.39-2.39,8.39-.34v29.88l.5.5h13.43ZM2.72,55.76v36.26l.5.5h19.47c.77-.53.66-4.62.36-5.06l-.4-.27c-4.26-.46-9.24.44-13.4-.03-.48-.05-.88-.04-1.13-.55l-.41-30.82-.27-.4c-.85-.17-4.46-.49-4.72.36Z"/>
      <path class="cls-1" d="M4.83,21.79c.26.29-2,4.92.34,7.42,2.72,2.91,13.19.78,13.82-3.78.67-4.88-.21-12.22-.36-17.26-.07-2.5-.45-5.15,2.23-6.37.24.05,1.45,3.6,1.47,4.03.05.97-1.22,1.64-1.25,2.68-.31,9.26,4.17,24.51-8.59,28.02C3.8,38.9.03,31.99,2.75,24.36c.33-.93.89-2.56,2.08-2.57Z"/>
      <path class="cls-1" d="M2.72,55.76c.26-.84,3.87-.53,4.72-.36l.27.4.41,30.82c.25.51.65.49,1.13.55,4.16.47,9.15-.43,13.4.03l.4.27c.3.44.41,4.53-.36,5.06H3.22l-.5-.5v-36.26Z"/>
    </g>
  </g>
</svg>