<?xml version="1.0" encoding="UTF-8"?>
<svg id="Layer_2" data-name="Layer 2" xmlns="http://www.w3.org/2000/svg" viewBox="0 0 27.53 93.61">
  <defs>
    <style>
      .cls-1 {
        fill: #0f0f0f;
      }

      .cls-2 {
        fill: #d2d2d2;
      }
    </style>
  </defs>
  <g id="Layer_1-2" data-name="Layer 1">
    <g>
      <path class="cls-2" d="M8.79,91.32c-.02.11-.68,1.69-.75,1.76-.64.65-6.62,1.06-6.6-1.1l.24-37.86c.79-1.64,6.41-1.43,7.3-.44l8.5,19.08v-18.22c0-2.09,7.41-2.47,7.28.42-.65,11.46,1.14,24.43.09,35.71-.39,4.25-6.29,2.78-7.72,2.34l-8.35-18.57v16.89ZM22.84,54.71c-.87.15-3.31-.45-3.63.55l-.36,20.04c-1.15.41-2.28.24-2.76-.96l-8.46-19.29-4.52-.33v37.11h3.68v-19.89c0-1.08,2.95-1.16,3.29.38l8.23,19.19,4.52.32v-37.11Z"/>
      <path class="cls-2" d="M2.59,34.06C-.85,30.59-.23,23.67.85,19.29c.46-1.89,2.92-8.55,4.71-9.1,1.43-.43,2.56.37,2.69,1.83.37,4.01-6.18,14.24.83,16.06,3.32.86,8.86-.23,10.35-3.66,1.89-4.37-1.33-7.56-1.03-11.34.07-.85,1.6-4.86,2.14-5.47,2.38-2.63,4.37,2.61,5.03,4.33,2.44,6.32,2.97,13.35-.63,19.38-4.24,7.1-16.63,8.53-22.36,2.74ZM6.26,12.12c-.96.45-1.34,1.63-1.78,2.53-3.66,7.51-5.3,19.59,5.79,20.88,11.16,1.3,16.27-6.24,15.3-16.68-.18-1.96-2.07-8.03-3.27-9.48-.31-.37-.39-.47-.69-.01-.23.35-1.16,3.13-1.21,3.62-.42,4.16,3.07,7.73.55,12.61-2.46,4.76-12.03,6.57-15.55,2.4-3.45-4.08.61-11.24.87-15.87Z"/>
      <path class="cls-2" d="M11.33.11c.62-.2,1.22-.12,1.82.13.78.32,4.37,3.71,4.5,4.48.3,1.72-3.42,5.86-5.06,5.93-.96.04-5.06-3.55-5.23-4.65-.15-.97,3.3-5.68,3.98-5.89ZM12.01,2.15l-2.61,3.54,3.19,2.95,3.3-3.55c-.7-.65-3.11-3.15-3.88-2.95Z"/>
      <path class="cls-1" d="M22.84,54.71v37.11l-4.52-.32-8.23-19.19c-.35-1.54-3.29-1.47-3.29-.38v19.89h-3.68v-37.11l4.52.33,8.46,19.29c.48,1.2,1.62,1.37,2.76.96l.36-20.04c.33-1,2.76-.4,3.63-.55Z"/>
      <path class="cls-1" d="M6.26,12.12c-.26,4.63-4.32,11.79-.87,15.87,3.52,4.16,13.09,2.36,15.55-2.4,2.52-4.88-.98-8.45-.55-12.61.05-.49.98-3.27,1.21-3.62.3-.46.38-.36.69.01,1.2,1.46,3.09,7.53,3.27,9.48.97,10.44-4.14,17.99-15.3,16.68C-.82,34.23.82,22.16,4.48,14.65c.44-.9.82-2.08,1.78-2.53Z"/>
      <path class="cls-1" d="M12.01,2.15c.77-.2,3.18,2.3,3.88,2.95l-3.3,3.55-3.19-2.95,2.61-3.54Z"/>
    </g>
  </g>
</svg>