<?xml version="1.0" encoding="UTF-8"?>
<svg id="Layer_2" data-name="Layer 2" xmlns="http://www.w3.org/2000/svg" viewBox="0 0 27.85 84.54">
  <defs>
    <style>
      .cls-1 {
        fill: #0f0f0f;
      }

      .cls-2 {
        fill: #d2d2d2;
      }
    </style>
  </defs>
  <g id="Layer_1-2" data-name="Layer 1">
    <g>
      <path class="cls-2" d="M10.72,68.17v14.65c0,2.01-7.22,2.48-7.51-.07l-.09-35.46c-.03-.92.25-1.91,1.13-2.32,1.06-.48,12.35-.43,14.24-.27,10.41.9,11.89,14.14,5.69,20.89-.67.74-1.96,1.1-2.1,2.07l5.12,13.87c.76,3.68-6.52,3.51-7.88,1.99l-7.23-15.18-1.38-.17ZM18.47,46.45c-4.02-.5-8.98.37-13.1,0l-.52.52v35.17c.53.7,1.75.61,2.6.53.32-.03.65.03.96-.07l.57-.46v-15.17c1.12-.96,3.77-.75,4.85.32l6.85,14.87c.85.98,3.27.31,4.51.49l-5.54-15.68c.07-.72,2.56-2.14,3.3-2.93,5.06-5.36,3.87-16.55-4.49-17.59Z"/>
      <path class="cls-2" d="M20.94,0c1.7-.09,2.89,2.21,3.52,3.56,4.22,9.17-1.96,25.81-13.82,24.51-2.74-.3-9.95-3.5-10.55-6.36-.95-4.52,6.12-1.46,8.04-1.45,3.73.02,9.35-3.12,11.36-6.25,1.7-2.64-2.99-4.33-2.9-7.02.02-.68,2.31-5.63,2.78-6.2.4-.48.96-.76,1.57-.79ZM2.1,20.93c-.76.71,4.09,3.81,4.7,4.09,2.75,1.29,6.79,1.68,9.55.32,5.91-2.91,9.06-14.01,6.95-19.93-.2-.56-1.91-4.2-2.59-3.25-.39,1.67-2.21,3.02-2.09,4.8.13,1.96,3.59,3.43,3.13,6.52-.36,2.38-5.27,6.09-7.45,7.04-4.36,1.9-7.7,1.58-12.19.4Z"/>
      <path class="cls-1" d="M18.47,46.45c8.36,1.04,9.56,12.23,4.49,17.59-.75.79-3.24,2.2-3.3,2.93l5.54,15.68c-1.23-.18-3.65.48-4.51-.49l-6.85-14.87c-1.08-1.07-3.72-1.29-4.85-.32v15.17l-.57.46c-.31.1-.64.04-.96.07-.86.07-2.07.17-2.6-.53v-35.17l.52-.52c4.13.37,9.09-.5,13.1,0ZM9.76,52.04c-.6.6-.57,7.14-.45,8.39.13,1.36.49,1.97,1.94,2.2,3.76.61,9.28.24,10.07-4.37,1.31-7.65-6.25-7.25-11.56-6.21Z"/>
      <path class="cls-1" d="M2.1,20.93c4.49,1.18,7.82,1.5,12.19-.4,2.18-.95,7.09-4.67,7.45-7.04.47-3.09-3-4.57-3.13-6.52-.12-1.78,1.7-3.13,2.09-4.8.67-.94,2.39,2.69,2.59,3.25,2.11,5.91-1.04,17.02-6.95,19.93-2.76,1.36-6.8.97-9.55-.32-.61-.28-5.45-3.38-4.7-4.09Z"/>
      <path class="cls-2" d="M9.76,52.04c5.31-1.03,12.87-1.43,11.56,6.21-.79,4.61-6.31,4.98-10.07,4.37-1.45-.23-1.8-.84-1.94-2.2-.12-1.25-.15-7.79.45-8.39ZM11.06,60.58c1.91-.24,3.76.63,5.67.32,2.61-.42,3.99-4.76,2.1-6.54-.19-.18-1.63-1.03-1.73-1.03h-6.03v7.24Z"/>
    </g>
  </g>
</svg>