<?xml version="1.0" encoding="UTF-8"?>
<svg id="Layer_2" data-name="Layer 2" xmlns="http://www.w3.org/2000/svg" viewBox="0 0 30.05 86.02">
  <defs>
    <style>
      .cls-1 {
        fill: #0f0f0f;
      }

      .cls-2 {
        fill: #d2d2d2;
      }
    </style>
  </defs>
  <g id="Layer_1-2" data-name="Layer 1">
    <g>
      <path class="cls-2" d="M13.68,45.97c5.1-.58,9.95,1.53,12.09,6.33,2.21,4.95,1.76,8.59-4.57,7.68-3.33-.48-2.09-2.45-3.29-3.95-1.37-1.7-5.04-1.28-5.72.86-1.59,5.02,4.2,3.92,7.02,4.74,8.56,2.49,10.37,13.33,5.18,19.88-5.27,6.64-16.71,5.9-20.46-1.83-1.01-2.08-1.93-7.71,1.05-8.27.78-.15,3.59-.12,4.29.17,2.23.93.26,4.6,4.82,5.53,2.81.57,4.97-.78,4.82-3.77-.22-4.55-4.97-3.5-8.06-4.38-11.22-3.2-8.55-21.69,2.83-22.99ZM25.14,57.95c0-7.04-5.3-11.08-12.16-9.92-8.01,1.36-10.68,15.43-2.41,18.8,3.31,1.35,8.11-.09,9.65,4.14,2.09,5.71-2.52,9.62-8.03,7.68-2.35-.82-3.1-2.81-3.58-5.04l-3.82-.15c-1.42,10.29,12.3,14.42,18.27,6.72,4.12-5.31,3.05-14.22-3.79-16.53-2.9-.98-7,.17-8.57-3.15-3.63-7.66,9.47-10.85,9.62-2.55h4.83Z"/>
      <path class="cls-2" d="M14.53,3.2c.56-.56,2.14-.53,2.79-.11.75.48.88,3.2,2.3,3.13-.53-3.38,1.34-6.17,4.48-3.45,1.62-4.49,4.44-3.06,5.42.97.91,3.75,1.01,8.34-2.54,10.7-2.15,1.43-2.95.8-5.09,1.11-2.14.32-1.73,3.25-2.22,5.02-1.09,3.95-3.24,8.36-7.29,9.95C5.8,33.12.14,29.15,0,22.22c-.07-3.33,1.84-12.83,3.62-15.62,1.26-1.97,3.97-1.24,3.95,1.15-.03,3.1-2.68,9.44-1.68,12.38.58,1.7,4.53,1.23,5.9.49,4.92-2.64.82-8.85,1.05-12.46.03-.42,1.51-4.78,1.69-4.96ZM27.2,2.09l-1.01.02c-.33.86-.66,3.15-1.64,3.4-.44.16-.66-.1-.99-.29-.84-.5-.87-1.83-1.88-1.74.18,2.17-.82,6.19-3.65,4.5-1.08-.65-1.07-2.5-2.21-3.12-2.92,5.27,3.16,11.73-1.72,16.39-2.25,2.15-8.96,2.92-9.94-.43-.94-3.24.92-8.68,1.3-12,.04-.35.26-1.61-.34-1.54-2,5.15-6.63,20.07,1.35,21.92,5.3,1.23,8.98-2.27,10.72-6.91.69-1.83,1.06-6.2,1.55-7.07.18-.31,2.39-1.58,2.84-1.66,1.59-.3,1.98.59,3.84-.28,4.27-1.99,2.52-7.62,1.76-11.17Z"/>
      <path class="cls-1" d="M25.14,57.95h-4.83c-.15-8.3-13.25-5.11-9.62,2.55,1.57,3.32,5.67,2.17,8.57,3.15,6.85,2.31,7.91,11.22,3.79,16.53-5.97,7.7-19.68,3.57-18.27-6.72l3.82.15c.48,2.23,1.23,4.22,3.58,5.04,5.51,1.93,10.12-1.97,8.03-7.68-1.55-4.23-6.34-2.79-9.65-4.14-8.27-3.37-5.6-17.44,2.41-18.8,6.86-1.17,12.15,2.88,12.16,9.92Z"/>
      <path class="cls-1" d="M27.2,2.09c.76,3.54,2.52,9.18-1.76,11.17-1.86.87-2.26-.01-3.84.28-.45.08-2.66,1.35-2.84,1.66-.49.87-.86,5.24-1.55,7.07-1.74,4.64-5.42,8.14-10.72,6.91-7.98-1.85-3.35-16.77-1.35-21.92.6-.07.38,1.19.34,1.54-.38,3.33-2.25,8.77-1.3,12,.98,3.35,7.69,2.58,9.94.43,4.88-4.66-1.2-11.12,1.72-16.39,1.14.62,1.13,2.48,2.21,3.12,2.82,1.69,3.83-2.34,3.65-4.5,1.01-.09,1.04,1.25,1.88,1.74.32.19.54.46.99.29.98-.25,1.31-2.54,1.64-3.4l1.01-.02Z"/>
    </g>
  </g>
</svg>