<?xml version="1.0" encoding="UTF-8"?>
<svg id="Layer_2" data-name="Layer 2" xmlns="http://www.w3.org/2000/svg" viewBox="0 0 26.88 94.18">
  <defs>
    <style>
      .cls-1 {
        fill: #0f0f0f;
      }

      .cls-2 {
        fill: #d2d2d2;
      }
    </style>
  </defs>
  <g id="Layer_1-2" data-name="Layer 1">
    <g>
      <path class="cls-2" d="M17.7,62.44l-.15,29.68c-.14,3.02-8.13,2.32-8.13.49v-30.17H2.35c-.11,0-1.39-1.31-1.48-1.62-.45-1.53-.5-6.07,1.64-6.5,6.68.18,14.31-.76,20.9-.17,5.03.45,2.71,8.29,1.36,8.29h-7.07ZM24.25,56.23H2.53v3.9c.06.23.77.58.86.58h7.76v30.52s.57.81.57.81l3.92.05v-30.86l.52-.52h7.59c1.04-1.1.32-3.05.52-4.48Z"/>
      <path class="cls-1" d="M24.25,56.23c-.2,1.43.52,3.39-.52,4.48h-7.59l-.52.52v30.86l-3.92-.05-.57-.81v-30.52s-7.76,0-7.76,0c-.1,0-.8-.35-.87-.58v-3.9h21.74Z"/>
      <g>
        <path class="cls-2" d="M18.21,20.72c-2.97.31-4.86,2.66-7.41,3.79,1.04-3.7-.32-8.71.35-12.23.19-1.01,1.42-1.32,1.36-2.73-.02-.44-2.36-8.09-2.59-8.46-1.8-2.86-5.6.58-6,2.93-.43,2.5.59,5.39.69,7.9.25,6.36-.22,12.79-.02,19.15-5.16-1.74-5.73,3.83-2.91,6.88,4.34,4.68,16.22,2.7,20.81-.87,6.92-5.37,5.76-17.38-4.28-16.35ZM7.87,38.65c-3.08-.31-7.46-2.72-5.51-6.2,1.69,1.08,3.2.65,3.95-1.21-.2-6.77.29-13.59.02-20.35-.12-3.06-2.32-7.95,2.05-8.78-.1,2.16,2,5.26,2.07,7.11.04,1.04-1.2,1.51-1.39,3.05-.17,1.48-.16,12.48.19,13.27,1.43,3.24,5.34-1.64,7.17-2.47,4.83-2.18,9.08,1.25,8.51,6.44-.82,7.54-10.8,9.77-17.06,9.13Z"/>
        <path class="cls-1" d="M16.43,23.07c-1.83.83-5.74,5.71-7.17,2.47-.35-.8-.36-11.8-.19-13.27.18-1.55,1.43-2.02,1.39-3.05-.08-1.85-2.17-4.95-2.07-7.11-4.37.83-2.17,5.71-2.05,8.78.26,6.76-.22,13.58-.02,20.35-.75,1.87-2.25,2.29-3.95,1.21-1.95,3.49,2.44,5.89,5.51,6.2,6.26.63,16.24-1.59,17.06-9.13.57-5.19-3.68-8.62-8.51-6.44ZM16.9,32.16c-1.43.55-7.72,2.7-6.74-.85.52-1.86,8.55-6.8,10.89-4.3,2.28,2.43-2.48,4.5-4.16,5.15Z"/>
        <path class="cls-2" d="M10.16,31.31c-.99,3.55,5.31,1.4,6.74.85,1.68-.65,6.43-2.72,4.16-5.15-2.35-2.5-10.38,2.44-10.89,4.3ZM16.06,30.64c-1.02.38-2.07.81-3.19.77.53-1.19,5.73-4.22,6.55-3.44.98.93-2.84,2.48-3.36,2.67Z"/>
      </g>
    </g>
  </g>
</svg>