<?xml version="1.0" encoding="UTF-8"?>
<svg id="Layer_2" data-name="Layer 2" xmlns="http://www.w3.org/2000/svg" viewBox="0 0 26.27 91.73">
  <defs>
    <style>
      .cls-1 {
        fill: #0f0f0f;
      }

      .cls-2 {
        fill: #d2d2d2;
      }
    </style>
  </defs>
  <g id="Layer_1-2" data-name="Layer 1">
    <g>
      <path class="cls-2" d="M17.91,51.77c1.13-1.03,6.11-1.25,6.8.81l.03,28.03c-2.71,15.45-22.32,14.65-23.48-1.61-.45-6.24-.63-18.4.06-24.47.17-1.47.27-2.63,1.8-3.16,1.82-.63,5.26-.65,5.95,1.61l.18,26.64c.65,4.8,7.03,3.9,7.9-.32.7-8.09-.86-17.56.01-25.48.06-.5.43-1.76.75-2.06ZM7.24,53.02l-3.43.05-.54.78.04,26.44c1.81,13.09,18.41,12.66,19.78-.99.81-8.07-.52-17.26.04-25.45l-.54-.78-3.43-.05v26.32c0,.14-.88,2.32-1.04,2.6-2.11,3.56-7.92,4.09-10.02.18-.15-.27-.86-2-.86-2.12v-26.98Z"/>
      <path class="cls-2" d="M14.92,18.99c-1.24-.21-3.48-2.05-4.04-3.2-1.98-4.06.68-13.26,5.01-15.14,10.03-4.36,10.89,14.33,10.2,20.2-.78,6.67-6.84,13.78-13.93,13.68C9.02,34.49.17,31.41,0,27.72c-.17-3.82,6.95-1.4,9.06-1.47,4.2-.16,9.39-3.23,11.24-7.05.34-.71.65-.98-.21-.21-1.6-.18-3.66.25-5.17,0ZM1.99,27.27c-1,.97,4.16,3.88,4.94,4.2,8.11,3.34,15.17-1.56,17.03-9.65.96-4.19.33-13.79-1.89-17.55-2.59-4.37-6.94-1.92-8.64,1.85-2.28,5.05-2.12,12.26,5.28,11.13.97-.15,3.02-1.58,3.82.02,1.17,2.34-3.91,7.21-5.8,8.34-5,2.99-9.2,2.48-14.72,1.66Z"/>
      <path class="cls-1" d="M7.24,53.02v26.98c0,.11.71,1.85.86,2.12,2.09,3.91,7.91,3.38,10.02-.18.17-.28,1.04-2.46,1.04-2.6v-26.32l3.43.05.54.78c-.56,8.19.77,17.38-.04,25.45-1.37,13.66-17.97,14.08-19.78.99l-.04-26.44.54-.78,3.43-.05Z"/>
      <path class="cls-1" d="M1.99,27.27c5.52.82,9.72,1.33,14.72-1.66,1.89-1.13,6.97-6,5.8-8.34-.8-1.6-2.84-.17-3.82-.02-7.4,1.13-7.56-6.09-5.28-11.13,1.71-3.77,6.05-6.22,8.64-1.85,2.23,3.76,2.85,13.37,1.89,17.55-1.85,8.09-8.91,12.98-17.03,9.65-.78-.32-5.93-3.23-4.94-4.2ZM16.04,7.36c-2.64.68-3.77,5.46.61,5.78,6.12.45,4.95-7.21-.61-5.78Z"/>
      <path class="cls-2" d="M16.04,7.36c5.56-1.43,6.74,6.23.61,5.78-4.39-.32-3.26-5.1-.61-5.78ZM18.85,11.03c1.19-1.75-3.09-3.38-3.43-.16.49.71,3.12.61,3.43.16Z"/>
    </g>
  </g>
</svg>