<?xml version="1.0" encoding="UTF-8"?>
<svg id="Layer_2" data-name="Layer 2" xmlns="http://www.w3.org/2000/svg" viewBox="0 0 27.59 92.37">
  <defs>
    <style>
      .cls-1 {
        fill: #0f0f0f;
      }

      .cls-2 {
        fill: #d2d2d2;
      }
    </style>
  </defs>
  <g id="Layer_1-2" data-name="Layer 1">
    <g>
      <path class="cls-2" d="M19.71,12.51c3.05-.07,7.26-.05,7.78,3.78.89,6.53-4.22,15.46-10.31,18.01C7.12,38.51-.77,32.4.06,21.66c.2-2.55,1.8-9.75,5.32-9.14,3.4.58.55,6.39.53,8.1-.08,7.83,11.33,5.25,14.49,1.04-13.09.72-6.92-12.88-1.21-18.11,1.51-1.38,6.79-5.81,7.96-2.08,1.56,5.01-4.91,7.96-7.43,11.05ZM5.23,14.24c-1.81.52-2.93,4.05-3.1,5.69-.88,8.75,1.84,15.09,11.81,13.53,6.84-1.07,12.55-10.41,11.65-17-.48-3.52-8.65-.61-7.9-4.38.52-2.58,8.94-5.79,7.72-9.92-.65-.93-3.31,1.34-3.98,1.9-3.24,2.7-7.06,8.02-6.92,12.42.17,5.49,10.75,1.06,7.43,6.36-2.31,3.68-11.24,6.02-14.97,3.62-4.47-2.88-2.14-8.12-1.74-12.22Z"/>
      <path class="cls-2" d="M12.74,69.97l4.64-17.06c.83-1.44,5.04-1.3,6.49-1.03,1.73.32,1.68,2.12,1.47,3.5-1.76,11.27-6.6,23.43-8.57,34.82-.6,2.87-6.64,2.78-7.71.34L.39,54.42c-.07-1.16.43-2.2,1.63-2.47,1.36-.31,5.43-.41,6.27.77l4.45,17.25ZM6.91,53.59H2.11l8.63,36.3.49.53,3.22-.12.67-1.04,8.55-35.13c-.2-.84-4.58-.68-4.81-.34l-5.08,20.48c-.53.67-1.23.67-1.76,0l-5.12-20.68Z"/>
      <path class="cls-1" d="M5.23,14.24c-.39,4.1-2.73,9.34,1.74,12.22,3.73,2.4,12.66.06,14.97-3.62,3.33-5.3-7.26-.87-7.43-6.36-.13-4.4,3.68-9.71,6.92-12.42.67-.56,3.34-2.83,3.98-1.9,1.21,4.13-7.2,7.34-7.72,9.92-.76,3.78,7.41.87,7.9,4.38.9,6.59-4.81,15.94-11.65,17-9.97,1.55-12.69-4.78-11.81-13.53.17-1.65,1.29-5.18,3.1-5.69Z"/>
      <path class="cls-1" d="M6.91,53.59l5.12,20.68c.53.67,1.23.67,1.76,0l5.08-20.48c.23-.34,4.6-.5,4.81.34l-8.55,35.13-.67,1.04-3.22.12-.49-.53L2.11,53.59h4.8Z"/>
    </g>
  </g>
</svg>