<?xml version="1.0" encoding="UTF-8"?>
<svg id="Layer_2" data-name="Layer 2" xmlns="http://www.w3.org/2000/svg" viewBox="0 0 30.26 86.61">
  <defs>
    <style>
      .cls-1 {
        fill: #0f0f0f;
      }

      .cls-2 {
        fill: #d2d2d2;
      }
    </style>
  </defs>
  <g id="Layer_1-2" data-name="Layer 1">
    <g>
      <path class="cls-2" d="M14.94,56.83l5.52-9.48c2.97-.3,7.89-1.19,7.08,3.28l-7.7,16.08,7.78,16.58c1.12,3.88-6.08,3.9-7.88,2.35-1.34-1.15-3.33-7.29-4.47-9.16l-4.07,8.17c-.87,2.64-7.99,2.44-8.63.2-.27-.96.24-1.88.57-2.74,1.91-4.96,5.4-10.06,7.3-15.14.08-1.25-5.99-12.42-6.95-14.74-.64-1.54-1.66-3.01-.12-4.38.99-.88,5.22-.99,6.38-.5,1.81.76,3.94,7.66,5.18,9.47ZM9.42,49.25h-4.83l7.93,17.44c.08.41-.14.72-.26,1.08-1.52,4.65-5.84,10.37-7.4,15.02-.18.55-.37,1.02-.27,1.63h4.83c1.34-2.65,2.79-7.56,4.52-9.79.58-.75,1.23-.72,2.04-.39l5.17,10.01,4.49.17-.16-1.39-7.69-16.31,7.86-16.95c.04-.73-.01-.45-.52-.52-.83-.12-3.6-.14-4.18.31-.86.67-3.54,7.89-4.47,9.32-.6,1.02-2.12,1.02-2.72,0l-4.33-9.63Z"/>
      <path class="cls-2" d="M18.79,20.35c-1.14,6.25-7.1,12.23-13.74,9.65C-.05,28.02-.24,23.56.11,18.74c.18-2.43,1.79-10.12,3.43-11.74.94-.93,2.94-1.07,3.4.42.84,2.76-2.18,9.09-1.32,12.63,1.81,1.62,5.68,1.07,6.86-1.02,2-3.55-1.38-9.1.25-11.82.84-1.39,2.22-1.17,3.24-1.93,1.62-1.2,2.48-3.56,4.94-4.71,3.72-1.74,8.02.7,8.96,4.61,1.86,7.72-3.12,14.73-11.08,15.17ZM17.4,18.61c4.3-.42,8.81-1.63,10.13-6.25,1.04-3.65,1.56-9.7-3.49-10.32-4.07-.5-4.84,3.14-7.4,4.96-.6.43-1.71.53-2.09,1.02-1.53,1.98,2.44,9.09-1.21,12.93-2.63,2.77-9.83,2.61-9.82-1.86,0-2.95,1.16-6.16,1.4-8.97.03-.38.25-1.29-.34-1.2-2.2,5.09-6.1,18.9,2.56,19.67,6.24.55,8.98-4.71,10.24-9.97Z"/>
      <path class="cls-1" d="M9.42,49.25l4.33,9.63c.6,1.02,2.12,1.02,2.72,0,.93-1.44,3.61-8.65,4.47-9.32.58-.45,3.35-.44,4.18-.31.51.07.55-.2.52.52l-7.86,16.95,7.69,16.31.16,1.39-4.49-.17-5.17-10.01c-.81-.34-1.45-.37-2.04.39-1.73,2.23-3.18,7.14-4.52,9.79h-4.83c-.1-.61.08-1.07.27-1.63,1.55-4.65,5.87-10.37,7.4-15.02.12-.36.34-.68.26-1.08l-7.93-17.44h4.83Z"/>
      <path class="cls-1" d="M17.4,18.61c-1.26,5.26-4,10.52-10.24,9.97-8.66-.76-4.76-14.58-2.56-19.67.59-.09.37.82.34,1.2-.24,2.81-1.4,6.03-1.4,8.97,0,4.47,7.19,4.63,9.82,1.86,3.65-3.84-.33-10.95,1.21-12.93.38-.49,1.49-.59,2.09-1.02,2.55-1.82,3.33-5.45,7.4-4.96,5.04.62,4.53,6.67,3.49,10.32-1.32,4.61-5.83,5.82-10.13,6.25ZM22.77,7.25c-4.56.45-5.77,6.45.54,5.03,2.88-.65,2.81-5.36-.54-5.03Z"/>
      <path class="cls-2" d="M22.77,7.25c3.35-.33,3.42,4.38.54,5.03-6.3,1.42-5.1-4.58-.54-5.03ZM23.55,9.25c-1.07-.14-2.39.04-2.41,1.38l2.08-.16.34-1.21Z"/>
    </g>
  </g>
</svg>