<?xml version="1.0" encoding="UTF-8"?>
<svg id="Layer_2" data-name="Layer 2" xmlns="http://www.w3.org/2000/svg" viewBox="0 0 24.4 94.08">
  <defs>
    <style>
      .cls-1 {
        fill: #0f0f0f;
      }

      .cls-2 {
        fill: #d2d2d2;
      }
    </style>
  </defs>
  <g id="Layer_1-2" data-name="Layer 1">
    <g>
      <path class="cls-2" d="M9.46,85.19h11.76c.1,0,1.3,1.26,1.38,1.55.2.71.17,3.71.07,4.56-.15,1.34-.87,2.13-2.18,2.4-2.63.54-14.71.42-17.66.08-3.91-.45-2.74-4.93-2.48-7.85l13.29-23.89H1.89c-2.31,0-2.65-7.78-.18-8.44l18.89-.17c3.16.66,1.82,4.34,2.09,6.8l-13.22,24.94ZM21.06,55.45c-.32.11-.7-.33-.81-.33H2.53c-1.16,0-1.16,5.29,0,5.29h12.89l.49.81-13.86,25.13v5.45h18.53c.84-1.12.63-3.56.18-4.81-.91-.65-10.03.25-12.1-.15s-.79-2.66-.22-3.85c1.53-3.22,12.62-21.44,12.62-22.75v-4.79Z"/>
      <path class="cls-2" d="M12.68,13.24c.04,1.38-.07,2.79,0,4.17.28,5.53,1.64,13.45,1.01,18.73-.46,3.77-5.03,5.45-5.66.96-1.13-8.09-.36-17.23-1.67-25.41-.07-.48.14-.88.29-1.31.37-1.08,5.36-7.67,6.36-8.68,2.05-2.08,3.46-2.26,5.85-.48.66.49,5.33,4.84,5.45,5.24.46,1.52-.81,6.78-2.77,6.78h-8.86ZM21.66,11.19c.15-1.14,1.38-3.32.89-4.3-.15-.31-4.68-4.16-5.21-4.5-1.23-.79-1.95-.66-2.99.32-.54.5-5.68,7.4-5.84,7.87-.39,1.13-.13,2.33-.18,3.49l1.67,23.9c1.37.26,1.82-1.42,2.01-2.5-.28-6.58-.87-13.14-1.01-19.72-.03-1.59-1.16-3.73,1.53-4.16,2.69-.43,6.27.25,9.13-.4Z"/>
      <path class="cls-1" d="M21.06,55.45v4.79c0,1.31-11.1,19.53-12.62,22.75-.56,1.19-1.89,3.43.22,3.85s11.19-.49,12.1.15c.45,1.25.66,3.69-.18,4.81H2.05v-5.45l13.86-25.13-.49-.81H2.53c-1.16,0-1.16-5.29,0-5.29h17.73c.11,0,.49.44.81.33Z"/>
      <path class="cls-1" d="M21.66,11.19c-2.85.65-6.43-.03-9.13.4-2.69.43-1.56,2.57-1.53,4.16.14,6.58.73,13.15,1.01,19.72-.19,1.07-.64,2.75-2.01,2.5l-1.67-23.9c.05-1.16-.21-2.36.18-3.49.16-.46,5.3-7.36,5.84-7.87,1.05-.98,1.77-1.11,2.99-.32.52.34,5.05,4.19,5.21,4.5.49.98-.74,3.16-.89,4.3ZM14.57,5.26c-.82.27-1.12,2.57.62,2.66,2.73.14,2.06-3.56-.62-2.66Z"/>
      <path class="cls-2" d="M14.57,5.26c2.68-.9,3.35,2.8.62,2.66-1.74-.09-1.44-2.39-.62-2.66Z"/>
    </g>
  </g>
</svg>