<?xml version="1.0" encoding="UTF-8"?>
<svg id="Layer_2" data-name="Layer 2" xmlns="http://www.w3.org/2000/svg" viewBox="0 0 566.93 107.72">
  <defs>
    <style>
      .cls-1 {
        fill: #c1bfbf;
      }

      .cls-2 {
        fill: #131415;
      }

      .cls-3 {
        fill: #fff;
      }

      .cls-4 {
        fill: #304b9f;
      }

      .cls-5 {
        fill: #0b0d22;
      }
    </style>
  </defs>
  <g id="Layer_1-2" data-name="Layer 1">
    <g>
      <path class="cls-3" d="M564.89,2.05c-.98-1.04-2.7-1.99-4.16-2.05L5.95.04C2.48.78.41,3.65,0,7.09l.03,93.78c.39,3.34,3.27,6.63,6.71,6.84l553.95-.04c3.4-.51,6.01-3.31,6.24-6.76V6.52c-.13-1.49-1.03-3.4-2.04-4.47Z"/>
      <path class="cls-2" d="M564.89,2.05c1.01,1.07,1.91,2.98,2.04,4.47v94.39c-.23,3.45-2.85,6.25-6.24,6.76l-553.95.04c-3.44-.21-6.33-3.5-6.71-6.84l-.03-93.78C.41,3.65,2.48.78,5.95.04l554.78-.04c1.46.06,3.18,1.01,4.16,2.05ZM343.36,3.66l-3.11-1.16h-70.31c-1.87.09-3,1.36-3.17,3.19-.41,4.42.01,10.15,0,14.74-.05,26.94.07,54.04,0,81.05.16,1.92.81,3.52,2.94,3.65.47.03,1.03-.21,1.6-.2,22.96.44,45.96-.3,68.92.02,1.15-.1,2.17-.26,2.9-1.24l.22-100.03ZM6.54,2.85c-1.65.28-3.31,1.96-3.52,3.67v44.71c0,.89.82,1.46,1.58,1.73l259.44-.07c1-.37,1.32-1.34,1.57-2.3l.08-44.91c0-1.29-.58-2.44-1.86-2.85H6.54ZM345.68,3.15c-.12.1-.73,1.12-.78,1.3l-.14,45.96c-.06,1.21.77,2.19,1.86,2.57l215.2.07c1.08.05,1.97-.55,2.27-1.6l.06-44.35c-.28-2.25-1.54-3.76-3.79-4.24l-212.99-.08c-.57.01-1.23-.02-1.7.37ZM4.33,54.75c-.61.39-1.3.94-1.31,1.73v44.71c.25,2,1.97,3.23,3.8,3.67l257.23-.06c.89-.28,1.41-1.39,1.62-2.25l.02-45.51c.01-.86-.97-2.19-1.8-2.35l-259.56.05ZM346.35,54.75c-1.02.23-1.45,1.36-1.58,2.29v45.26c-.07,1.21.76,2.19,1.86,2.57l212.72.07c2.56-.22,4.17-1.2,4.75-3.82l.07-44.35c-.02-.96-.66-1.76-1.58-2.02h-216.23Z"/>
      <path class="cls-4" d="M343.36,3.66l-.22,100.03c-.72.98-1.75,1.15-2.9,1.24-22.96-.33-45.96.41-68.92-.02-.57-.01-1.14.23-1.6.2-2.13-.13-2.78-1.72-2.94-3.65.07-27.01-.05-54.11,0-81.05,0-4.59-.41-10.31,0-14.74.17-1.83,1.3-3.1,3.17-3.19h70.31s3.11,1.16,3.11,1.16ZM303.37,9.26c-.38-.18-1.56-.19-1.88.03l-.26,1.54c-.72.29-.44-.5-.73-.56-.44-.1-1.01.06-1.47,0-.13.96.62,1.34,1.1,1.94l-2.75-.27c-.05.8.84,1.19,1.48,1.37l.17.85c-1.34-.34-2.93.77-2.76,2.22l2.2-.55c-.79.93-1.37,1.4-1.1,2.77l1.21-.3.32.59.95-.29c0,.52-.13,1.39.42,1.66.79.4-.06-1.48.96-1.11l.42,2.22,1.1-2.22c.33.4-.14,2.48.55,2.49,1.02.02.4-1.2.96-1.38.16,1.21.33,2.53.23,3.75-.04.45-.47.78-.52,1.37-.11,1.57.11,3.28.02,4.87h-2.76c-.31,1.15.86,1.07.55,2.22.97.38,1.13-.51,1.28-.56,1.02-.28.92.52,1.11.56.15.03,2.79.03,2.94,0,.19-.03.14-.48.38-.55.38-.11,1.07.13,1.34-.27l.12-1.41h-2.76c.52-2.67-.77-5.71-.57-8.22.08-.96.61-.61.73-1.19s-.24-1.12-.16-1.69c.34-.44,1.52,1.25,1.11,1.66,2.66.43-.21-1.98.27-2.49.75-.16,1.19,1.22,1.79,1.11.82-.16-.46-1.62-.41-1.94,1.48-.42,1.67.85,3.03.55.35-.92-.75-1-.83-1.25-.38-1.2,1.05-.19.83-1.25l-3.58-.98c-.2-.64.61-.4.96-.41.82-.04,1.66.03,2.48,0l.14-.55-1.91-.58v-1.65s-1.12,0-1.12,0l-.16-1.14c-.64-.49-1.43.11-1.87.05-.26-.03-.29-.67-.56-.87-1.04-.81-1.66.29-2.52.33-.48.02-.38-.45-.48-.5ZM296.74,29.8c-1.07-.34-3.64-.73-4.74-.65-.51.04-2.55.27-2.34,1.11.92.11,2.03-.14,2.91-.02.29.04,4.26,1.77,5.01,2.16,1.39.71,1.45,1.39,2.18,2.04.16.14,2.21,1.65,2.52,1.85s1.08.35,1.11.4c.73.89-1.65,2.01-2.03,2.74l-.14-.83-1.25.27-.11,1.54c-1.36.89-2.82-1.25-3.75-.46-1.3,1.11.76,3.08,1.95,3.1s1.93-.81,3.13-.9l.04-.78c.89-.35.7.82,1.51.55.86-.28-.3-.9-.13-1.38,1.32.12,1.3-1.64,2.63-1.7.2,0,1.94,1.44,2.06,1.84-.83.24-.55.75-.55,1.52,1.15.37,1.01-.86,2.02-.55.41.5,2.5,1.56,3.12,1.6.96.06,1.61-1.15,2.13-1.51.2-.14.6-.06.67-.13.19-.21-.02-1.24.05-1.64-.67.07-1.45-.1-2.09-.02-.51.07-.36.52-.58.57-.59.14-1.39-.07-2.02,0v-2.22s-1.65,1.11-1.65,1.11c.15-.54-1.66-1.69-1.67-1.82-.11-.98.89-1.02,1.45-1.52,2.99-2.75,4.05-3.76,8.16-5.17.65-.22,1.26-.61,1.34-.63.54-.13,3.03.2,3.12-.15.11-.59-1.27-.79-1.64-.85-3.82-.59-8.91,1.85-11.68,4.31-.21.18-.36,1.02-.83,1.31-.27.17-.7,0-.94.16-.19.12-.24.7-.47.73-.21.03-1.3-.62-1.59-.82-.61-.43-.72-1.18-.95-1.38-.52-.46-5.62-3.67-5.96-3.78ZM286.34,47.74c-.07.05-1.08-.89-1.64-.55v1.67c.75.03,1,.17,1.24-.56l.59.56.9-.04v-1.6c-1.17-.41-1.02.47-1.08.52ZM321.35,55.38c.2-.74,0-3.42,0-4.44,0-.09.94-1.02.79-1.64l-1.75-1.56c-.56-.02-.33.06-.49.36-.92,1.74.79,3.81.35,5.75h-1.66c.49-3.49-1.28-2.38-1.1,0h-1.1c-.22-.21.44-2.49-.41-2.22l-.7,2.21h-1.64s-.01-2.2-.01-2.2h-.82c.31,1.13-.85,1.08-.55,2.21h-1.38c1.73-3.48-3.81-4.06-3.86-.69-.02.42,1.73-.34,1.38.7h-2.76c.02-5.65-4-2.06-3.18,1.4l1.36.52c1.13.78-2.43,2.5-3.14,2.25.39,1.16,2.63,1.01,3.52.64.55-.22,1.28-2.27,1.45-2.87.91.22,1.97.43,2.91.3.55-.08.28-.62.79-.6.7.02,1.23.58,1.94.61,1.79.06,4.02-.46,5.81,0l.52-.58c.77.66,3.43.93,3.73-.14ZM324.36,54.95c.46-.29.49-7.24-.12-7.2-.53.52-1.29,2.22-1.24,2.9.03.48.48.91.54,1.42.1.96-.04,1.94.02,2.9l.8-.02ZM293.52,53.86h-3.86c-.53-1.64-.82-3.41-1.11-5.13-.08-.47.17-.47-.54-.42.31.96-.35,1-.52,1.34-.11.22-.02.63-.17.88-.72,1.18-3.35,1.99-2.57,4.41.89.27,2.05.99,2.88.34.32-.25.22-.9.66-.86l1.03,1.65,4.7-.05c.88-.51,1.13-5.43-.63-5.77-.6.63-.86,1.54-.41,2.3.17.29.88.23.55,1.31ZM295.72,56.08h3.86c.06,0,.56-.9.57-.96.21-1.58-.15-3.88-1.51-4.88-1.49-1.1-1.47.65-1.25,1.75.04.2,1.54,1.1,1.37,1.86h-3.03s0,2.22,0,2.22ZM291.86,59.96l.82-1.25c-1.65-2.29-2.85.14-.82,1.25ZM283.6,63.3v14.71h3.03s.03-4.24.03-4.24c.76-1.06,1.89-1.03,2.31-2.41.94.3.82,1.27,1.27,1.99.54.87,2.34,2.96,2.65,3.63.16.35.02,1.04.08,1.04h4.41c.08-.44-.05-.64-.27-.98-.71-1.13-2.3-2.58-2.95-3.55-.15-.23-.02-.66-.19-.92-.35-.53-2.29-3.04-2.31-3.33-.06-1,3.96-4.06,4.75-5.09.21-.28.53-.35.41-.83h-4.41s.06.79-.28.96l-5.37,4.87-.18-5.8-2.99-.03ZM308.86,63.95c-1.42-.78-5.04-.9-6.64-.64-3.2.51-4.47,4.62-1.99,6.83,1.53,1.37,3.38,1.1,5.23,1.49.14.03,1.65,1.59,2.42,1.55,0,3.81-6,3.46-6.4-.12-1.97-.19-3.73-.42-2.84,2.16.45,1.3,1.34,1.7,2.41,2.24.17.08.17.5.39.54,1.63.34,5.18.42,6.77-.01.2-.05.16-.39.43-.52.2-.09.56.03.79-.11,1.15-.73,2.06-3.41,1.73-4.72-.05-.21-.47-.15-.53-.39-.09-.33.06-.71-.09-1.12-.05-.15-1.61-1.37-1.92-1.51-1.6-.7-3.8-1.08-5.51-1.35l-.96-1.27c-.18-2.19,5.29-1.95,5.33.75l3.12-.31c.45-1-.39-1.35-.44-1.46-.13-.33-.05-.72-.18-.93-.04-.07-1.04-1.06-1.11-1.09ZM321.85,63.35c-3.67-.36-3.18-.25-4.39,2.49-.79,1.79-1.89,3.82-2.6,5.77-.16.45-.07.92-.17,1.37l-.75.05c-.24,1.7-1.72,2.97-1.69,4.97l3.54-.05,1.3-3.3,5.71.07c.76.08,1.45,3.14,1.61,3.24l3.55.03-6.12-14.65ZM333.04,80.99h-20.33c-.31,1.09.37.98.64,1.43.69,1.14,1.25,1.63,1.81,2.64,1.36,2.46,3.05,5.36,4.5,7.79.87,1.46,1.95,4.04,2.94,5.28.18.22.36.48.69.41,1.21-2.1,2.27-4.3,3.48-6.4,1.57-2.7,3.97-5.8,5.36-8.49.09-.18,1.02-2.56.91-2.66ZM305.02,83.73h-29.39v12.33h29.39v-12.33Z"/>
      <rect class="cls-1" x="275.63" y="83.73" width="29.39" height="12.33"/>
      <path class="cls-2" d="M333.04,80.99c.1.1-.82,2.47-.91,2.66-1.39,2.69-3.79,5.79-5.36,8.49-1.22,2.1-2.28,4.3-3.48,6.4-.32.06-.51-.19-.69-.41-.99-1.24-2.07-3.82-2.94-5.28-1.45-2.43-3.14-5.33-4.5-7.79-.55-1.01-1.12-1.5-1.81-2.64-.27-.44-.96-.34-.64-1.43h20.33Z"/>
      <path class="cls-5" d="M303.37,9.26c.09.04,0,.52.48.5.86-.03,1.47-1.14,2.52-.33.27.21.3.84.56.87.44.05,1.22-.55,1.87-.05l.16,1.14h1.11s.01,1.65.01,1.65l1.91.58-.14.55c-.82.03-1.66-.04-2.48,0-.36.02-1.17-.22-.96.41l3.58.98c.22,1.06-1.22.04-.83,1.25.08.24,1.18.32.83,1.25-1.36.3-1.55-.97-3.03-.55-.05.32,1.23,1.78.41,1.94-.6.11-1.04-1.27-1.79-1.11-.48.52,2.39,2.92-.27,2.49.41-.41-.76-2.1-1.11-1.66-.08.57.27,1.13.16,1.69s-.65.24-.73,1.19c-.2,2.51,1.09,5.54.57,8.22h2.76s-.12,1.41-.12,1.41c-.27.4-.95.16-1.34.27-.24.07-.19.52-.38.55-.15.03-2.79.02-2.94,0-.19-.04-.09-.84-1.11-.56-.15.04-.31.94-1.28.56.31-1.15-.86-1.07-.55-2.22h2.76c.1-1.59-.13-3.3-.02-4.87.04-.59.48-.92.52-1.37.1-1.22-.06-2.54-.23-3.75-.56.18.06,1.4-.96,1.38-.69-.02-.22-2.09-.55-2.49l-1.1,2.22-.42-2.22c-1.02-.37-.17,1.5-.96,1.11-.55-.27-.43-1.15-.42-1.66l-.95.29-.32-.59-1.21.3c-.27-1.38.31-1.84,1.1-2.77l-2.2.55c-.17-1.45,1.41-2.56,2.76-2.22l-.17-.85c-.64-.18-1.53-.56-1.48-1.37l2.75.27c-.48-.6-1.22-.98-1.1-1.94.47.05,1.04-.1,1.47,0,.29.06,0,.85.73.56l.26-1.54c.32-.22,1.49-.21,1.88-.03Z"/>
      <path class="cls-5" d="M283.6,63.3l2.99.03.18,5.8,5.37-4.87c.34-.16.23-.96.28-.96h4.41c.12.48-.2.55-.41.83-.79,1.04-4.82,4.1-4.75,5.09.02.29,1.96,2.8,2.31,3.33.17.26.04.69.19.92.65.97,2.24,2.42,2.95,3.55.22.34.35.54.27.98h-4.41c-.05,0,.09-.68-.08-1.04-.31-.68-2.11-2.76-2.65-3.63-.45-.72-.33-1.69-1.27-1.99-.41,1.38-1.54,1.36-2.31,2.41l-.03,4.24h-3.03v-14.71Z"/>
      <path class="cls-5" d="M308.86,63.95c.07.04,1.07,1.03,1.11,1.09.13.21.05.61.18.93.05.12.89.47.44,1.46l-3.12.31c-.05-2.69-5.51-2.94-5.33-.75l.96,1.27c1.7.28,3.91.65,5.51,1.35.31.14,1.87,1.36,1.92,1.51.15.41,0,.79.09,1.12.06.24.48.19.53.39.33,1.31-.58,3.98-1.73,4.72-.23.14-.59.03-.79.11-.27.12-.23.46-.43.52-1.59.43-5.15.35-6.77.01-.22-.05-.22-.46-.39-.54-1.07-.54-1.96-.94-2.41-2.24-.9-2.59.87-2.36,2.84-2.16.41,3.58,6.41,3.93,6.4.12-.76.04-2.27-1.52-2.42-1.55-1.85-.38-3.7-.12-5.23-1.49-2.48-2.21-1.21-6.32,1.99-6.83,1.61-.26,5.23-.13,6.64.64Z"/>
      <path class="cls-5" d="M296.74,29.8c.35.11,5.45,3.32,5.96,3.78.23.2.34.95.95,1.38.28.2,1.38.84,1.59.82.23-.03.28-.61.47-.73.24-.15.68.01.94-.16.47-.29.62-1.13.83-1.31,2.77-2.45,7.86-4.89,11.68-4.31.37.06,1.75.25,1.64.85-.08.35-2.57.02-3.12.15-.08.02-.69.41-1.34.63-4.11,1.41-5.17,2.42-8.16,5.17-.55.51-1.56.55-1.45,1.52.01.13,1.81,1.28,1.67,1.82l1.65-1.11v2.22c.63-.08,1.43.13,2.02,0,.22-.05.07-.5.58-.57.64-.08,1.42.1,2.09.02-.07.4.14,1.43-.05,1.64-.07.07-.47,0-.67.13-.52.36-1.17,1.57-2.13,1.51-.62-.04-2.71-1.11-3.12-1.6-1.01-.3-.87.92-2.02.55,0-.77-.28-1.29.55-1.52-.12-.4-1.85-1.85-2.06-1.84-1.33.06-1.31,1.82-2.63,1.7-.16.49,1,1.1.13,1.38-.81.27-.62-.91-1.51-.55l-.04.78c-1.2.09-1.89.92-3.13.9s-3.24-1.99-1.95-3.1c.93-.79,2.39,1.35,3.75.46l.11-1.54,1.25-.27.14.83c.37-.73,2.75-1.85,2.03-2.74-.04-.05-.8-.19-1.11-.4s-2.36-1.71-2.52-1.85c-.73-.64-.79-1.32-2.18-2.04-.76-.39-4.72-2.12-5.01-2.16-.88-.12-1.99.13-2.91.02-.2-.83,1.84-1.07,2.34-1.11,1.1-.08,3.67.31,4.74.65Z"/>
      <path class="cls-2" d="M321.85,63.35l6.12,14.65-3.55-.03c-.16-.1-.85-3.16-1.61-3.24l-5.71-.07-1.3,3.3-3.54.05c-.03-2,1.45-3.27,1.69-4.97l.75-.05c.1-.45,0-.92.17-1.37.7-1.95,1.8-3.98,2.6-5.77,1.21-2.74.72-2.85,4.39-2.49ZM318.05,72.45h3.86c-.06-.56.11-1.22-.01-1.75-.04-.18-.42-.18-.51-.42-.19-.53-.88-2.98-1.28-3.11l-1.44,2.99c.21,1.23-.63,1.35-.62,2.28Z"/>
      <path class="cls-5" d="M321.35,55.38c-.3,1.07-2.96.8-3.73.14l-.52.58c-1.79-.46-4.02.06-5.81,0-.72-.02-1.24-.59-1.94-.61-.51-.01-.24.53-.79.6-.94.13-2-.07-2.91-.3-.16.59-.9,2.64-1.45,2.87-.88.36-3.12.51-3.52-.64.71.26,4.27-1.47,3.14-2.25l-1.36-.52c-.82-3.46,3.2-7.05,3.18-1.4h2.76c.35-1.04-1.4-.28-1.38-.7.05-3.36,5.59-2.78,3.86.69h1.38c-.3-1.13.86-1.09.55-2.22h.82s.01,2.22.01,2.22h1.64s.7-2.22.7-2.22c.85-.27.19,2.01.41,2.22h1.1c-.18-2.38,1.59-3.49,1.1,0h1.66c.44-1.95-1.27-4.01-.35-5.75.16-.3-.07-.38.49-.36l1.75,1.56c.15.63-.79,1.55-.79,1.64,0,1.02.2,3.7,0,4.44Z"/>
      <path class="cls-5" d="M293.52,53.86c.33-1.08-.38-1.02-.55-1.31-.45-.76-.18-1.67.41-2.3,1.76.33,1.51,5.26.63,5.77l-4.7.05-1.03-1.65c-.44-.04-.34.6-.66.86-.83.65-2-.08-2.88-.34-.78-2.42,1.86-3.23,2.57-4.41.15-.25.06-.66.17-.88.17-.34.83-.38.52-1.34.71-.05.46-.04.54.42.29,1.72.58,3.49,1.11,5.13h3.86Z"/>
      <path class="cls-5" d="M295.72,56.08v-2.22s3.03,0,3.03,0c.17-.77-1.33-1.67-1.37-1.86-.22-1.1-.24-2.85,1.25-1.75,1.36,1,1.72,3.3,1.51,4.88,0,.06-.52.96-.57.96h-3.86Z"/>
      <path class="cls-5" d="M324.36,54.95l-.8.02c-.06-.96.09-1.94-.02-2.9-.05-.52-.51-.95-.54-1.42-.05-.68.72-2.37,1.24-2.9.6-.03.57,6.92.12,7.2Z"/>
      <path class="cls-5" d="M286.34,47.74c.06-.04-.09-.93,1.08-.52v1.6s-.9.04-.9.04l-.59-.56c-.24.73-.49.59-1.24.56v-1.67c.56-.34,1.57.6,1.64.55Z"/>
      <path class="cls-5" d="M291.86,59.96c-2.03-1.11-.83-3.54.82-1.25l-.82,1.25Z"/>
      <path class="cls-4" d="M318.05,72.45c0-.93.84-1.05.62-2.28l1.44-2.99c.39.13,1.09,2.58,1.28,3.11.09.25.47.24.51.42.12.53-.05,1.19.01,1.75h-3.86Z"/>
    </g>
  </g>
</svg>