<?xml version="1.0" encoding="UTF-8"?>
<svg id="Layer_2" data-name="Layer 2" xmlns="http://www.w3.org/2000/svg" viewBox="0 0 567.27 109.72">
  <defs>
    <style>
      .cls-1 {
        fill: #298141;
      }

      .cls-2 {
        fill: #fff;
      }

      .cls-3 {
        fill: #100e0e;
      }
    </style>
  </defs>
  <g id="Layer_1-2" data-name="Layer 1">
    <g>
      <rect class="cls-2" x=".66" y="1" width="566" height="107.72" rx="10.17" ry="10.17" transform="translate(-.2 1.03) rotate(-.21)"/>
      <g>
        <path class="cls-3" d="M561.55.38c2.89,1.2,4.94,3.61,5.37,6.83l.35,93.25c-.47,3.72-3.02,6.51-6.66,7.23L7.35,109.72c-3.61-.42-6.3-3.14-7-6.73L0,8.94C.65,5.21,3.23,2.77,6.81,2.03L559.76,0c.49.26,1.44.23,1.79.38ZM561.38,3.49c-.43-.2-1.46-.51-1.94-.56L7.15,4.95c-2.26.48-3.99,2.08-4.25,4.47l.36,93.23c.37,2.25,2.24,4.1,4.57,4.15l552.58-2.06c2.2-.44,3.73-2.36,3.97-4.6l-.34-92.61c-.08-1.45-1.37-3.45-2.66-4.06Z"/>
        <path class="cls-1" d="M294.93,43.27c.36.17.98.54,1.4.77,11.3,6.49,16.11,20.79,10.57,32.89-8.67,18.94-34.72,20.02-44.93,1.87-12.15-21.6,10.8-46.33,32.96-35.53ZM294.61,46.37c-17.26-9.23-37.55,6.31-32.56,25.59,4.1,15.87,23.71,22.8,36.29,11.91,1.07-.92.91-1.2,1.5-2.14.3-.48,1.75-1.24,2.19-1.8,1.38-1.75,3.45-6.1,3.82-8.26.11-.64-.07-1.42.01-2.09.49-3.71.62-5.57-.42-9.22-1.65-5.8-5.49-11.13-10.83-13.99Z"/>
        <path class="cls-3" d="M319.33,22.73c.03.24.35,1.39.46,1.66.15.38.53.71.79,1.01,1.66-.22,4.3.84,4.55-1.54.17-1.64.18-6.21-.03-7.82-.02-.17-.7-.81-.63-1.26l1.81-2.71.58,1.65c1.36.94.03,1.74-.02,2.15-.38,3.28.44,7.46.06,10.74-.01.1-.86,1.34-1.01,1.43-.27.16-1.15.41-1.48.44-1.81.21-6.05.21-7.87.03-1.2-.12-1.43-.75-2.4-1.13-.47-.11-1.11,1.09-1.33,1.14-.5.11-3.08.09-3.67.02-.95-.11-1.06-1.13-1.76-1.13s-1.04,1.01-2.08,1.14c-2.33.27-7.74.25-10.13.04-1.15-.1-2.22-1.15-2.73-1.15-.81,0-1.1,1.13-1.93,1.15l-9.06.14c-1.16.36-1.08,3.72-2.57,4.86-.68.52-1.97.96-2.81,1.06-.99.12-3.1-.15-4.12-.34-.47-.09-1.23-.57-.57-.98.57-.36,1.82-.54,2.55-.83,1.26-.5,3.54-1.4,3.18-3.12-.13-.64-1.95-.54-2.61-.76-1.32-.46-.91-3.37-.74-4.54.18-1.24.87-3.72,1.92-4.46,1.93-1.35,3.27.31,4.27,1.84.34.53.64,1.45,1.06,1.98.52.65,1.12.9,1.93.97,2.26.19,4.84-.16,7.13-.06l.34-1.48c-1.6-1.26-2.56-1.42-.97-3.44,1.06-1.35,3.04-2.21,4.57-1.08.6.44,1.19,1.8,1.22,2.52.02.51-.27.75-.32,1.14-.12.93-.13,2,.89,2.34l10.89-.06c.68-1,.96-2.08,1.94-2.9.81.94-.05,2.09.91,2.98.55.51,2.45.67,2.88.18s1.68-3.88,2.31-3.83c.47.77.21,3.8,1.6,3.73.99-.05.89-1.45,1.13-2.12.26-.72,1.08-1.8,1.84-1.95.06.75-.08,1.62,0,2.36ZM277.85,22.52c-.51-.21-1.42-.05-1.83.34-.91.88-.65,3.07.68,3.19,1.67.15,2.32-.63,1.96-2.32-.05-.26-.64-1.14-.81-1.21Z"/>
        <path class="cls-3" d="M240.13,15.95c.38.27-.27,3.34-.3,3.98-.11,1.83.2,4.67,2.38,5.07,1.36.25,6.02.16,7.52.02.55-.05.73-.08,1.1-.51,1.04-1.19-.06-2.14-.08-3.33-.02-.82.34-1.76.89-2.36,1.29.06,2.51,4.03,2.51,5.12,0,.7-.5,2.79-.77,3.45-.22.54-.58,1.33-1.23,1.36-3.66-.31-7.97.44-11.55.01-1.65-.2-1.68-1.87-2.58-1.93-1.23-.09-.87.15-1.44.61-1.22.98-1.53,1.16-3.23,1.04-.77-.05-1.56-.31-2.26-.64-1.17-.55-1.27-1.12-.95-2.42.19-.79,2.6-3.9,3.34-4.41,1.23-.85,2.85-1.01,4.03-1.85l1.16-1.55c.27-.67.66-1.57,1.45-1.66ZM237.38,24.85c1.68-1.73-.64-4.73-2.54-2.79-1.7,1.74-.31,3.83,1.83,3.33.13-.03.12-.25.23-.32.14-.09.36-.1.47-.21Z"/>
        <path class="cls-3" d="M263.49,17.58c3.02,2.4,5.08,4.04,3.95,8.41-.27,1.06-.96,2.5-2.15,2.7-.64.1-6.51.1-6.82-.05-.8-.39-.08-2.68.34-3.3l4.5-.38c.31-.11.6-1.21.61-1.55.05-2.11-2.63-2.33-2.75-3.57-.02-.25.66-2.37.86-2.53.64-.5,1.05-.06,1.46.26Z"/>
        <path class="cls-3" d="M331.18,14.57c.06-.22,1.26-1.9,1.6-1.55.05,2.95-.02,5.91.03,8.86.02,1.44.45,2.61-.06,4.13-.21.62-.83,1.75-1.52,1.96l-.05-13.4Z"/>
        <path class="cls-3" d="M238.43,10.51c.41.38.52.43.35,1.1-.08.3-.89,1.22-1.16,1.27-.9.16-1.16-.61-1.31-.64-1.5-.33-1.95,1.36-3.11.58-1.08-.73-1.18-1.24-.47-2.23,1-1.38,1.84-.02,3.13-.13,1.07-.09,1.21-1.21,2.57.06Z"/>
        <path class="cls-3" d="M252.78,32.57c.53.68.53.95-.16,1.68-.93.99-.93.08-1.63-.1-1.41-.37-1.79.78-2.65.62-.08-.02-1.03-1.08-1.06-1.25-.09-.48.84-1.64,1.04-1.68.82-.14,1.06.95,2.43.53,1.09-.33.97-1.17,2.02.2Z"/>
        <path class="cls-1" d="M287.78,70.36c.31.1.35.79.09,1.06-.33.34-.95.16-1.33.28-.32.1-.43.57-.84.62-.37.05-.75-.21-1.12-.18-.35.02-.58.34-.77.31-.21-.03-.61-.38-1.04-.42-.72-.06-1.63.48-2.29-.1-.71-.62-.61-1.61.41-1.71.67-.06,1.53.62,1.95-.46.4-1.02-.01-1.69.02-2.55s.65-4.95.12-5.4c-.38-.32-1.2-.11-1.09-1.33-.47.23-.66.92-1.28.82l-.18-.79-1.27-.02c.16-1.65-3.15-.72-2.82-2.74l1.04-1.31-1.5-.02c-1.1-1.64,1.45-1.62,2.44-2.12.23-.92-1.13-1.19-.95-2.09.29-.3,2.26.82,2.41.06.1-.54-1.24-.96-1.13-1.69.79-.4,1.79.76,2.33.64.6-.13-.66-1.37.39-1.72.77-.25,1.5.46,2.33.42.67-.04,1.06-.82,1.85-.42.27.14.34.7.8.82.36.1,1.15-.24,1.61-.1.15.52-.11.79-.23,1.15-.27.81,1.01.05,1.53.39.49.4-.39.81-.09,1.23l2.17.65v.46c-.27.45-2.37-.43-2.07.66.66.32,2.58.54,2.42,1.53l-1.29.11c-.27.23,1.39,1.2.66,1.71-.54.38-1.34-.35-1.94-.24l.15,1.6-1.27.09c-.33.23.08,1.22-.4,1.38-.59.2-.86-.69-1.5-.47.16.99-.78,1.18-1.04,1.63-.61,1.05-.09,4.75-.05,6.08.02.72-.53,1.55.24,2.19h2.57Z"/>
        <path class="cls-1" d="M277.84,71.44c1.14.64,2.43,1.57,3.48,2.36.88.67,1.76,1.77,2.78,2.1,1.68-1.4,3.42-2.71,5.13-4.09.34-.28.73.06.56-.81.75.23.96-.26,1.4-.45.9-.39,2.41-1.04,3.34-1.18.74-.11,3.1-.13,3.85-.03.24.03.82.62.46.83-.89.42-1.98.18-2.84.36-2.73.58-7.23,3.92-9.47,5.67-.2.16.08.63-.56.52-.26,1,.32.81.68,1.11.15.13.03.35.22.5.13.1.59.19.78.33l.66-.64c1.67.03.43,1.76,1.23,2.14,1.12.53,1.75-.66,2.12-.71,1.44-.18,2.52.87,1.54,2.15-.08.11-1.36,1.14-1.45,1.18-1.34.55-3.12-.87-4.29-1.49-.57-.1-.93.87-1.63.44-.48-.3.22-1.03.26-1.24.13-.58-.89-1.21-1.27-1.57-.15-.15-.3-.51-.35-.54-1.06-.6-1.95,1.32-2.78,1.76-.3.42.99,1.28.17,1.63-.43.18-.6-.73-1.24-.62-.13.02-1.01.52-1.27.65-.11.05-.13.23-.26.29-.32.15-1.22.49-1.54.52-.78.07-1.49-.28-2.06-.81s-1.08-1.67,0-1.91c.99-.22,1.55,1.25,3.24.67,1.09-.37.39-1.18.48-2.02.77-.06.6.94,1.56.52.11-.05,1.68-1.57,1.73-1.68.12-.28.09-.5-.03-.77-2.19-1.67-4.35-3.54-6.84-4.79-.79-.4-2.17-.96-3-1.18-.76-.2-1.87-.2-2.5-.39-.21-.07-.31-.23-.27-.45,1.54-.73,3.84-.12,5.43.42.89.3,1.73.79,2.54,1.25Z"/>
      </g>
    </g>
  </g>
</svg>