<?xml version="1.0" encoding="UTF-8"?>
<svg id="Layer_2" data-name="Layer 2" xmlns="http://www.w3.org/2000/svg" viewBox="0 0 566.93 107.72">
  <defs>
    <style>
      .cls-1 {
        fill: #28387c;
      }

      .cls-2 {
        fill: #737a82;
      }

      .cls-3 {
        fill: #b2afb3;
      }

      .cls-4 {
        fill: #fff;
      }

      .cls-5 {
        fill: #59b75e;
      }

      .cls-6 {
        fill: #28b7bd;
      }

      .cls-7 {
        fill: #d1da30;
      }

      .cls-8 {
        fill: #213a71;
      }

      .cls-9 {
        fill: #2f89c9;
      }

      .cls-10 {
        fill: #73bb44;
      }
    </style>
  </defs>
  <g id="Layer_1-2" data-name="Layer 1">
    <g>
      <path class="cls-4" d="M8.08,0h551.16c4.25,0,7.69,3.45,7.69,7.69v92.36c0,4.23-3.43,7.66-7.66,7.66H8.2c-4.52,0-8.2-3.67-8.2-8.2V8.08C0,3.62,3.62,0,8.08,0Z"/>
      <path d="M563.28.84c1.64.91,2.76,2.5,3.39,4.26.38,32.35.31,64.84.03,97.19-.79,2.39-2.35,4.29-4.75,5.06-.39.13-.76-.17-.96.35H6.82c-3.84-.52-6.13-3.54-6.8-7.18V7.29C.52,3.81,2.51.75,6.06,0l555.49.07c.58.24,1.18.46,1.72.77ZM524.96,2.75L6.67,2.71c-1.59.54-2.97,1.47-3.42,3.18-.33,31.87-.34,63.86,0,95.73.57,1.87,2.06,3.13,4.04,3.19h517.3c.33-.08,1.29-.75,1.49-1.02.09-.13.04-.59.38-.83V5.03c-.03-.33-.21-1.07-.38-1.31-.04-.06-1.04-.94-1.11-.97ZM563.28,103.13c.34-.47.82-1.52.88-2.1l-.06-94.81c-.58-1.78-1.83-3.19-3.72-3.52h-31.1c-.6.52-1.16.86-1.41,1.69-.27,15.56-.15,31.2-.16,46.8,0,16.99.03,34.1,0,51.13.12,1.17.73,2.34,2.01,2.49h30.34c1.13-.1,2.54-.76,3.21-1.68Z"/>
      <path d="M543.45,15.6l-1.96-.69-1.25-.84c.43-1.04,2.32.29,3.05.4-.45-.58-1.89-1.06-1.68-1.94,1.38-.03,1.79.58,2.64,1.45.22-.72-1.55-1.47-.93-2.06.46-.31,1.1-.18,1.6-.02.15.05.1.46.66.31.12-.03.1-.33.41-.42.63-.17,1.34-.02,1.3.74.79-.46,1.16-.36,1.76.24l-1.44,1.05,2.24-.32-.48.97,1.77.57-.09.41c-.97-.3-1.82.09-2.81,0-.07.42.06.29.35.37.43.12,3.01.27,2.86,1.16-.07.42-.38.06-.5.03-.31-.1-1.09-.63-1.26-.18-.04.1,1.97.87,1.05,1.51l-2.65-1.1,1.6,1.85-.4.35c-.85-.19-1.1-1.16-1.85-1.56l.89,1.77c.07.17.11.36.05.54-.31,1.03-1.28-1.33-1.59-1.02l.16,1.93-.48-.48c-.07-.04-.27.16-.29.26-.08.43.35,2.02.41,2.61.11,1.07.05,2.07.04,3.18,0,.3.19.58.16.89h2.41c0,.28-.73.97-.88.98-.19.01-.51-.18-.55-.16-.05.03-.1.52-.45.61s-.83-.12-.93-.46l-.48.64-.8-.64-.17.34-.62-.19-.33.33-.87-1.07c-.06-.65,1.63-.29,2.06-.38.29-.87-.01-1.88.03-2.62.09-1.37.43-2.71.27-4.22-.05-.49-.44-.98-.31-1.54l-.19,1.33-.37.6c-.68-.65-.36-1.63-.24-2.42l-1.04,1.94-.08-1.61c-.51.11-.63.58-.88.97-.95-.24-.02-1.39-.08-1.45-.5-.12-.72.97-1.12.4l.48-1.21c-.9.01-.66,1.09-1.44.97-.03-.34-.02-.63.09-.96.16-.47.62-.64.87-.97l-1.66.17c-.71-.4.7-1.3.94-1.3h2.97Z"/>
      <path d="M546.71,30.82c3.09-2.3,5.68-4.46,9.82-4.08.25.02.48.12.72.16.05.42,0,.25-.23.32-.71.22-1.56.2-2.33.4-1.96.53-5.72,2.76-7.16,4.16-.19.18-.28.51-.54.68.38.09,1.4,1.49,1.53,1.54.59.19.28-.34.49-.5.6-.46,1.16.66.39.9.89,1.53,2.75-.54,3.37.16.74.84-.85,2.05-1.67,2.02-.75-.03-2.6-1.09-2.75-1.09s-.37.56-.8.45-.3-.85.24-.81v-.32c-.62-.12-1.2-1.46-1.82-1.41-.37.03-1.28,1.25-1.7,1.49-.11.29.95.52.32.97-.53.38-.93-.38-1.05-.38-.15,0-1.89,1.23-2.85,1.07-.81-.13-2.14-1.22-1.37-2.03.54-.56,1.24.36,1.65.44.36.07,1.42,0,1.51-.42-.7-.75.19-1.41.64-1.02.1.08-.17.57.25.47.28-.52,1.11-.97,1.38-1.36.45-.67-1.29-1.28-1.58-1.85-2.63-1.85-5.26-3.41-8.54-3.63.19-.23.44-.35.73-.39,4.11-.63,7.42,2.13,10.39,4.55.68.28.69-.27.96-.48Z"/>
      <path d="M548.7,70.66c.41.48.64,1.25.53,1.88l-1.65.14c-.42-.13-.42-.8-.83-1.11-.73-.56-2.48-.47-2.81.57.02,1.09,2.92,1.33,3.78,1.69,1.39.58,2.02,1.84,1.83,3.31-.01.11-.32,1.12-.35,1.17-.04.06-1.04.85-1.12.89-1.39.61-3.18.61-4.56,0-1.11-.49-2.02-1.81-1.63-3.07l1.75.05c.19.13.16.69.33.96.82,1.33,4.11.96,3.48-.93-.23-.7-2.43-.91-3.15-1.18-1.53-.59-2.68-1.7-2.24-3.48.58-2.33,5.28-2.49,6.65-.88Z"/>
      <path d="M543.78,54.64v4.03c.71-.16,3.63-4.03,3.93-4.03h2.49l-1.02,1.4-2.28,2.39.57,1.25c1.15,1.3,1.88,2.91,2.97,4.32l-.16.32h-2.33c-.65-1.57-1.82-2.78-2.41-4.35-.35-.26-1.36,1.3-1.76,1.29v3.06h-1.93v-9.68h1.93Z"/>
      <path d="M546.81,83.85l3.71,9.66-2.09-.08-1.07-2.15-3.6.07-.78,2.08-2.25.08,3.7-9.67h2.38ZM545.54,86.26l-1.12,3.15c.03.32,2.43.46,2.34-.09-.08-.48-.59-1.72-.8-2.27-.07-.2-.22-.74-.42-.78Z"/>
      <path d="M554.52,42.38c-.08.48.79.77.82.91.1.47-.34.83-.41,1.16-.11.61.36,1.7-.24,2.36l-6.04.09-.31-.34c-.33.65-2.07.13-2.31.34-.19,1.92-1.38,1.66-2.9,1.43.65-.62,1.8-.36,2.25-1.37-1.49-.11-1.17-1.41-.54-2.32,1.05-1.52,1.24,1.12,1.61,1.25l1.18.02c.07-.42-.35-.49-.64-.48.27-1.91,2.71-1.56,2.25.49l.62-.03.75-1.26.08,1.29c1.09.18.76-.78,1.36-1.29l.08,1.29c.77.18.58-.89,1.04-1.29.53-.28,0,1.22.08,1.29,2.07.32.57-1.58.65-2.65.01-.18.34-1.14.63-.89ZM545.38,45.93c.04-.3,0-.47-.24-.64l-.24.24.16.4h.32Z"/>
      <path d="M539.12,45.93c-.11-.78-.69-1.4.08-2.09.87.9.85,1.94.38,3.04-1.12-.15-2.87.55-3.43-.62h-.24s-.39.48-.39.48l-1.39-.41c-.03-1.7,1.75-1.65,1.94-3.29.44-.3.71,2.66.95,2.83l2.09.07ZM536.07,44.96c-.11-.1-.64.08-.64.24,0,.48.94.04.64-.24Z"/>
      <path d="M540.57,46.9v-.97s1.6,0,1.6,0c.05-1.09-1.36-.95-.56-2.26,1.24.49,1.63,2.01,1.2,3.23h-2.25Z"/>
      <path d="M556.61,46.9c-.28-.1-.4-.84-.44-1.09-.14-1.01-.38-2.48.36-3.26.55,1.4.56,2.95.08,4.35Z"/>
      <path d="M538.8,48.35c.06-.05-.2-.7.4-.49.31.11.71,1.15-.31.99l-.17-.34-.88.32v-.97s.96.48.96.48Z"/>
      <path d="M535.11,42.7c.12-.69.5-.57.77-.06l-.22.55c-.72-.52-1.07.33-1.5-.43l.39-.54.56.48Z"/>
      <g>
        <path class="cls-1" d="M282.22,12.4l3.63,3.47-3.48,3.62-3.63-3.47"/>
        <path class="cls-3" d="M290.52,16.02l3.62,3.47,3.48-3.62-3.63-3.47"/>
        <path class="cls-7" d="M285.41,20.58l2.82,2.7,2.71-2.82-2.82-2.7"/>
        <path class="cls-10" d="M295.76,22.13l2.82,2.7,2.71-2.82-2.82-2.7"/>
        <path class="cls-7" d="M280.8,24.89l2.82,2.7,2.71-2.82-2.82-2.7"/>
        <path class="cls-6" d="M290.27,25.22l2.82,2.7,2.71-2.82-2.82-2.7"/>
        <path class="cls-10" d="M286.56,28.46l1.99,1.9,1.91-1.98-1.99-1.9"/>
        <path class="cls-5" d="M294.05,29.95l1.99,1.9,1.91-1.98-1.99-1.9"/>
        <path class="cls-9" d="M310.41,14.88l6.16-1.13,1.13,6.15-6.16,1.13-1.13-6.15Z"/>
        <path class="cls-8" d="M302.37,17.45l4.94-.9.9,4.93-4.94.9-.9-4.93Z"/>
        <path class="cls-6" d="M311.93,24.33l4.94-.91.9,4.93-4.94.91-.9-4.93Z"/>
        <path class="cls-7" d="M305.11,25.05l3.85-.71.7,3.84-3.85.71-.7-3.84Z"/>
        <path class="cls-3" d="M312.6,32.35l3.85-.71.7,3.84-3.85.71-.7-3.84Z"/>
        <path class="cls-6" d="M299.35,26.61l3.85-.71.7,3.84-3.85.71-.7-3.84Z"/>
        <path class="cls-10" d="M306.33,31.64l3.85-.71.7,3.84-3.85.71-.7-3.84Z"/>
        <path class="cls-3" d="M301.43,32.11l2.71-.5.5,2.7-2.71.5-.5-2.7Z"/>
        <path class="cls-5" d="M306.63,37.69l2.71-.49.49,2.7-2.71.49-.49-2.7Z"/>
        <path class="cls-1" d="M328.73,35.02l-2.69,5.65,5.66,2.69,2.69-5.64"/>
        <path class="cls-6" d="M320.71,32.41l-2.16,4.53,4.54,2.15,2.16-4.53"/>
        <path class="cls-10" d="M324.42,43.56l-2.16,4.53,4.54,2.15,2.16-4.53"/>
        <path class="cls-7" d="M318.47,40.17l-1.68,3.53,3.53,1.68,1.68-3.53"/>
        <path class="cls-7" d="M320.27,50.46l-1.68,3.53,3.53,1.68,1.68-3.53"/>
        <path class="cls-9" d="M312.88,38.07l-1.68,3.53,3.53,1.68,1.68-3.53"/>
        <path class="cls-3" d="M315.6,46.23l-1.68,3.53,3.53,1.68,1.68-3.53"/>
        <path class="cls-10" d="M311.35,43.74l-1.18,2.48,2.49,1.18,1.18-2.48"/>
        <path class="cls-6" d="M311.1,53.78l1.18-2.48,2.48,1.18-1.18,2.48-2.48-1.18Z"/>
        <path class="cls-9" d="M331.78,62.05l-5.49,3.01,3.01,5.48,5.49-3.01"/>
        <path class="cls-6" d="M326.8,55.25l-4.4,2.41,2.42,4.4,4.4-2.41"/>
        <path class="cls-6" d="M323.27,66.46l-4.41,2.41,2.42,4.4,4.4-2.41"/>
        <path class="cls-1" d="M320.44,60.23l-3.43,1.88,1.88,3.42,3.43-1.88"/>
        <path class="cls-5" d="M315.86,69.63l-3.43,1.88,1.88,3.42,3.43-1.88"/>
        <path class="cls-8" d="M317.14,55.27l-3.43,1.88,1.88,3.43,3.43-1.88"/>
        <path class="cls-7" d="M314.56,63.47l-3.43,1.88,1.88,3.42,3.43-1.88"/>
        <path class="cls-3" d="M312.57,58.97l-2.41,1.32,1.32,2.41,2.41-1.32"/>
        <path class="cls-6" d="M308.9,65.66l-2.41,1.32,1.32,2.41,2.41-1.32"/>
        <path class="cls-10" d="M311.42,91.17l.77-6.21,6.22.77-.77,6.21-6.22-.77Z"/>
        <path class="cls-8" d="M312.76,81.69l.62-4.98,4.99.62-.62,4.98-4.99-.62Z"/>
        <path class="cls-6" d="M303.32,88.72l.62-4.98,4.99.62-.62,4.98-4.99-.62Z"/>
        <path class="cls-10" d="M305.92,81.07l.48-3.88,3.88.48-.48,3.88-3.88-.48Z"/>
        <path class="cls-3" d="M296.69,86.01l.48-3.88,3.88.48-.48,3.88-3.88-.48Z"/>
        <path class="cls-3" d="M306.15,75.1l.48-3.88,3.88.48-.48,3.88-3.88-.48Z"/>
        <path class="cls-10" d="M299.25,80.24l.48-3.88,3.88.48-.48,3.88-3.88-.48Z"/>
        <path class="cls-3" d="M301.57,74.44l.34-2.73,2.73.34-.34,2.73-2.73-.34Z"/>
        <path class="cls-3" d="M294.66,77.71l.34-2.73,2.73.34-.34,2.73-2.73-.34Z"/>
        <path class="cls-7" d="M293.67,97.16l-4.59-4.25-4.26,4.58,4.59,4.25"/>
        <path class="cls-10" d="M292.82,9.6l-4.59-4.25-4.26,4.58,4.59,4.25"/>
        <path class="cls-6" d="M298.56,90.3l-3.68-3.41-3.42,3.68,3.68,3.41"/>
        <path class="cls-10" d="M286.79,90.49l-3.68-3.41-3.42,3.68,3.68,3.41"/>
        <path class="cls-9" d="M291.81,85.85l-2.87-2.66-2.66,2.86,2.87,2.66"/>
        <path class="cls-7" d="M281.44,84.47l-2.87-2.66-2.66,2.86,2.87,2.66"/>
        <path class="cls-7" d="M295.5,81.15l-2.87-2.66-2.66,2.86,2.87,2.66"/>
        <path class="cls-3" d="M286.88,81.29l-2.87-2.66-2.66,2.86,2.87,2.66"/>
        <path class="cls-8" d="M290.53,77.99l-2.02-1.87-1.87,2.01,2.02,1.87"/>
        <path class="cls-3" d="M283.02,76.62l-2.02-1.87-1.87,2.01,2.02,1.87"/>
        <path class="cls-9" d="M259.54,87.07l6.14-1.23,1.23,6.13-6.14,1.23-1.23-6.13Z"/>
        <path class="cls-6" d="M268.99,85.33l4.93-.99.99,4.92-4.93.99-.99-4.92Z"/>
        <path class="cls-10" d="M259.33,78.61l4.93-.99.99,4.92-4.93.99-.99-4.92Z"/>
        <path class="cls-7" d="M267.44,78.65l3.84-.77.77,3.83-3.84.77-.77-3.83Z"/>
        <path class="cls-1" d="M273.18,76.99l3.84-.77.77,3.83-3.84.77-.77-3.83Z"/>
        <path class="cls-9" d="M266.11,72.07l3.84-.77.77,3.83-3.84.77-.77-3.83Z"/>
        <path class="cls-10" d="M272.37,72.44l2.7-.54.54,2.69-2.7.54-.54-2.69Z"/>
        <path class="cls-3" d="M267.08,66.94l2.7-.54.54,2.69-2.7.54-.54-2.69Z"/>
        <path class="cls-6" d="M248.26,72.13l2.6-5.69-5.7-2.59-2.6,5.69"/>
        <path class="cls-7" d="M256.33,74.61l2.08-4.56-4.57-2.08-2.08,4.56"/>
        <path class="cls-9" d="M252.43,63.51l2.08-4.56-4.57-2.08-2.08,4.57"/>
        <path class="cls-6" d="M254.87,65.2l1.62-3.55,3.56,1.62-1.62,3.55-3.56-1.62Z"/>
        <path class="cls-3" d="M263.2,75.7l1.62-3.55-3.56-1.62-1.62,3.55"/>
        <path class="cls-1" d="M252.92,54.93l1.62-3.55,3.56,1.62-1.62,3.55-3.56-1.62Z"/>
        <path class="cls-5" d="M260.51,67.2l1.62-3.55,3.56,1.62-1.62,3.55-3.56-1.62Z"/>
        <path class="cls-7" d="M257.65,59.09l1.62-3.55,3.56,1.62-1.62,3.55-3.56-1.62Z"/>
        <path class="cls-8" d="M265.5,63.12l1.14-2.5-2.5-1.14-1.14,2.5"/>
        <path class="cls-10" d="M264.43,55.57l1.14-2.5-2.5-1.14-1.14,2.5"/>
        <path class="cls-6" d="M244.76,45.15l5.44-3.1-3.1-5.43-5.44,3.1"/>
        <path class="cls-10" d="M249.86,51.87l4.37-2.48-2.49-4.36-4.36,2.49"/>
        <path class="cls-8" d="M253.2,40.6l4.37-2.48-2.49-4.36-4.36,2.49"/>
        <path class="cls-9" d="M256.13,46.78l3.4-1.93-1.94-3.39-3.4,1.93"/>
        <path class="cls-10" d="M260.56,37.31l3.4-1.93-1.94-3.39-3.4,1.93"/>
        <path class="cls-6" d="M259.52,51.69l3.4-1.93-1.94-3.39-3.4,1.93"/>
        <path class="cls-7" d="M261.96,43.45l3.4-1.93-1.94-3.39-3.4,1.93"/>
        <path class="cls-3" d="M264.03,47.91l2.39-1.36-1.36-2.39-2.39,1.36"/>
        <path class="cls-10" d="M267.59,41.17l2.39-1.36-1.36-2.39-2.39,1.36"/>
        <path class="cls-10" d="M257.75,21.24l.66-6.22,6.23.67-.66,6.22-6.23-.67Z"/>
        <path class="cls-3" d="M257.93,29.66l.53-4.99,5,.53-.53,4.99-5-.53Z"/>
        <path class="cls-6" d="M267.25,22.47l.53-4.99,5,.53-.53,4.99-5-.53Z"/>
        <path class="cls-7" d="M266.01,29.2l.42-3.88,3.89.42-.42,3.88-3.89-.42Z"/>
        <path class="cls-9" d="M275.14,24.09l.41-3.88,3.89.42-.41,3.88-3.89-.42Z"/>
        <path class="cls-6" d="M265.87,35.16l.42-3.88,3.89.42-.42,3.88-3.89-.42Z"/>
        <path class="cls-10" d="M272.69,29.9l.42-3.88,3.89.42-.42,3.88-3.89-.42Z"/>
        <path class="cls-8" d="M271.75,34.72l.29-2.73,2.74.29-.29,2.73-2.74-.29Z"/>
        <path class="cls-3" d="M278.59,31.33l.29-2.73,2.74.29-.29,2.73-2.74-.29Z"/>
        <path class="cls-2" d="M308.14,57.38c-3.28-1.89-7.84-2.44-12.57-.71-2.07.78-4.13,2.14-5.88,3.48-1.1-6.66-.56-12.85-.31-15.89,0-.02.02-.03.04-.02,2.36,1.48,1.7,5.63,1.2,6.82,0,.02.03.04.04.02,2.94-3.47,1.5-7.31.9-8.28-.11-.18.56.36,1.1,1.06,2.06,2.62,1.11,5.56,1.34,5.49,0,0,.01,0,.02,0,1.37-2.68.93-6.08-1.88-8.54-.13-.11.37.05.53.11,2.4.83,3.65,3.3,3.63,5.5,0,.48,1.62-4.13-2.29-6.48-.73-.44-1.48-.68-1.97-.74-.38-.04,2.1-.41,3.84.77,1.05.71,1.32,1.56,1.29,1.32-.3-3.09-3.95-4.31-6.16-3.39-.23.12.87-1.52,3-1.39.41.02.79.11,1.09.26.02,0,.04-.02.03-.04-1.61-1.84-4.26-1.88-5.67.25,0,.01-.03.01-.04,0-.53-.96-.98-2.18-1.17-3.33-.05-.3-.14,1.43-1.21,3.33,0,.01-.03.01-.04,0-1.41-2.14-4.06-2.09-5.67-.25-.02.02,0,.05.03.04,1.08-.51,3.11-.36,4.12,1.1.01.02,0,.05-.03.04-2.28-.96-5.85.34-6.16,3.39,0,.03.03.04.05.02.1-.19.35-.6.82-1.01,1.82-1.6,4.68-1.14,4.26-1.09-1.12.14-3.42,1.13-4.26,3.41-.69,1.86-.03,4.31,0,3.7.02-2.07,1.21-4.84,4.14-5.55.02,0,.04.03.02.04-4.55,4-1.8,8.91-1.84,8.53-.14-1.59-.26-4.42,2.37-6.56.02-.02.05,0,.04.03-.6.97-2.04,4.81.9,8.28.02.02.05,0,.04-.02-.49-1.19-1.16-5.33,1.2-6.82.02,0,.04,0,.04.02.26,3.04.79,9.22-.31,15.89-3.74-2.86-7.42-4.73-12.16-4.52-2.38.1-4.65.8-6.29,1.75-.06.03-.02.12.05.1,6.89-2.2,12.86.47,18.41,5.09-2.8,2.44-5.34,5-6.82,5.77-.34-.47-.94-.74-1.6-.6-1.23.27-1.53,1.82-.86,2.48,2.42,2.42,6.21-2.38,10.74-6.39,4.36,3.85,8.32,8.8,10.74,6.39.19-.19.42-.83.3-1.33-.29-1.26-1.97-1.63-2.76-.54-1.42-.72-3.92-3.24-6.82-5.77,5.59-4.66,11.49-7.26,18.41-5.09.06.02.11-.07.05-.1"/>
      </g>
    </g>
  </g>
</svg>