<?xml version="1.0" encoding="UTF-8"?>
<svg id="Layer_2" data-name="Layer 2" xmlns="http://www.w3.org/2000/svg" viewBox="0 0 566.93 107.72">
  <defs>
    <style>
      .cls-1 {
        fill: #fff;
      }
    </style>
  </defs>
  <g id="Layer_1-2" data-name="Layer 1">
    <g>
      <rect class="cls-1" width="566.93" height="107.72" rx="9.65" ry="9.65"/>
      <g>
        <path d="M561.58.39c2.92,1.25,4.93,3.62,5.35,6.85v93.26c-.48,3.63-2.99,6.52-6.69,7.2l-553.25.03c-3.6-.46-6.27-3.22-6.97-6.76V6.91C.69,3.14,3.44.64,7,.02l552.62-.02c.49.24,1.59.23,1.95.39ZM561.56,3.49c-.38-.19-.97-.24-1.38-.48L7.01,2.95c-2.17.44-3.78,2.05-4.11,4.29l.02,93.39c.54,2.96,2.53,4.13,5.36,4.33l550.84-.03c2.76-.27,4.56-1.79,4.92-4.6V7.39c-.11-1.41-1.21-3.29-2.47-3.91Z"/>
        <path d="M338.29,42.5c.05.08.22.13.3.27.97,1.64-.23,1.1-.38,2.31-.49,3.96.39,8.92,0,12.99-.35,1.16-1.07,2.07-2.24,2.45-3.48-.17-7.78.5-11.17.08-1.23-.15-1.28-1.25-2.41-1.31-1.26-.08-.81,1.2-2.12,1.43-.8.15-4.23.15-4.85-.22-.86-.51-.97-1.98-2.57-.79-.29.22-.43.62-.62.72-.23.12-1.4.3-1.73.32-2.92.23-10.1.34-12.81-.2-.97-.19-1.77-1.48-2.74-1.39-.51.05-.99,1.28-1.97,1.42l-11.63.27c-.13.04-.85.67-.92.77-.09.13,0,.36-.06.47-.26.55-.2.53-.38,1.12-.48,1.56-.8,2.9-2.07,4-1.75.86-3.63.99-5.66.87-.57-.03-3.47-.29-3.6-.92.65-1.05,2.37-1.05,3.51-1.46,1.65-.6,2.99-1.26,3.73-2.86.07-.15.27-.14.3-.25.13-.52-.05-1.06-.35-1.47-1.58-.38-3.86.13-4.14-2.06-.26-2.01.6-6.7,1.7-8.36.65-.98,1.92-2.12,3.17-1.79.11.03.11.24.16.26.53.22,1.11.48,1.56.94,1.4,1.42,1.87,4.03,3.64,5.28,1.31-.25,2.62.27,3.82.33,1.04.06,5.45.15,6.15-.13.76-.31.99-1.69.68-2.35-.12-.27-1.51-.65-1.81-1.29-.67-1.47,1.52-3.78,2.82-4.22.62-.21,2.37-.23,2.96,0,1.22.46,2.02,2.28,1.98,3.53-.02.63-.28.89-.32,1.31-.16,1.39-.18,2.8,1.4,3.12l13.12.03c.93-.15,1.19-1.9,1.72-2.65l1.02-1.08c.34.16.37,2.93.82,3.56.61.87,3.04,1.03,3.92.41.84-1.64,1.61-3.29,2.65-4.79l.4.1c.06,1.52-.03,4.94,2.29,4.45.3-.06.78-1.25.88-1.57.22-.72.16-1.28.7-2.05.15-.21,1.4-1.61,1.58-1.41.22,1.7-.21,4.84,1.28,5.93.81.6.93.23,1.69.23s3.3.15,3.71-.14c.29-.21.8-1.37.82-1.74.02-.27-.12-.61-.12-.95.03-1.95.32-7.73-.2-9.22-.13-.35-.46-.63-.53-1.02l2.02-3.5c.68.54.38,1.36.87,2.21ZM274.36,53.82c-.03.06-.35,1.09-.37,1.18-.21,1.15.61,2.58,1.83,2.68,3.54.3,2.74-4.96.19-4.71-.37.04-1.5.53-1.65.85Z"/>
        <path d="M230.68,55.36c.79.47,1.29.78,2.27.86,2.12.18,7.12.25,9.16,0,1.55-.19,1.83-1.26,1.68-2.69-.17-1.74-.99-1.91-.19-3.92.48-1.21.97-1.32,1.79-.25,1.28,1.68,1.95,4.31,1.75,6.43-.1,1.09-.65,2.9-1.02,3.84-.26.66-.83.98-1.5,1.09-4.41.69-10.16-.64-14.72-.13-1.01-.14-.76-.58-1.17-1.09-.7-.86-1.28-1.52-2.49-1.3-.85.15-.87.83-1.41,1.3-.11.09-1.27.77-1.34.78-1.55.2-3.72-.07-5.08-.9-1.01-.61-1.31-1.24-1.11-2.44.18-1.02,3.32-5.06,4.29-5.77,1.72-1.26,3.99-1.27,5.45-2.81.72-.77,1.41-2.42,2.13-3.24.16-.19.4-.27.56-.45.5,1.27-.16,2.94-.24,4.31-.14,2.23-.12,4.48,1.18,6.37ZM225.6,51.56c-1.39-.51-3.24,1.31-3.34,2.63-.06.86.55,2.09,1.42,2.31.91.23,2.03.07,2.7-.6,1.02-1.01,1.08-2.49.16-3.59-.08-.1-.88-.73-.94-.75Z"/>
        <path d="M258.69,46.52s.5.63.65.76c3.43,2.9,6.07,4.74,4.64,9.95-.4,1.47-1.29,3.3-2.94,3.52s-5.81.17-7.54.02c-.73-.06-1.23-.35-1.19-1.21.01-.34.5-2.09.68-2.42.02-.04.45-.54.48-.56,1.12-.46,4.08.45,5.41-.46.48-.33.82-1.55.82-2.11,0-1.88-1.22-2.09-2.46-3.01-.8-.6-1-1.47-.76-2.48.03-.12.26-.09.31-.23.29-.94.35-2.43,1.9-1.78Z"/>
        <path d="M345.78,41.11v16.16c-.53.41-1.27,2.45-1.55,2.69-.79.66-.43-1.84-.44-2.06-.11-4.64-.14-9.29-.09-13.93.09-.58,1.09-1.94,1.5-2.45.16-.19.29-.48.57-.4Z"/>
        <path d="M223.17,37.77c.06.03.03.23.3.26.32.04,1.13.04,1.45-.02.6-.11.98-.93,1.74-.78.51.1,1.64,1.26,1.56,1.83-.03.22-1.06,1.64-1.23,1.7-.25.08-.47.03-.7-.05-1.02-.33-.81-.95-2.33-.75-1.2.16-1.31,1.48-2.68.65-.1-.06-.98-1.06-1.01-1.13-.28-.61.84-2.04,1.36-2.2.58-.18,1.04.24,1.54.49Z"/>
        <path d="M245.02,65.05c.27.16,1.01.97,1.01,1.32s-.96,1.6-1.22,1.69c-.75.25-1.38-1.25-2.94-.7-.63.22-.74,1.02-1.82.69-.34-.1-1.08-1.05-1.15-1.41-.14-.76.99-1.92,1.8-1.7.98.27,1.23.84,2.65.51.56-.13.89-.85,1.66-.4Z"/>
      </g>
    </g>
  </g>
</svg>