<?xml version="1.0" encoding="UTF-8"?>
<svg id="Layer_2" data-name="Layer 2" xmlns="http://www.w3.org/2000/svg" viewBox="0 0 566.93 107.72">
  <defs>
    <style>
      .cls-1 {
        fill: #fff;
      }
    </style>
  </defs>
  <g id="Layer_1-2" data-name="Layer 1">
    <g>
      <path class="cls-1" d="M10.61,0h548.44c4.35,0,7.88,3.53,7.88,7.88v91.14c0,4.8-3.9,8.7-8.7,8.7H16.38c-9.04,0-16.38-7.34-16.38-16.38V10.61C0,4.75,4.75,0,10.61,0Z"/>
      <g>
        <path d="M6.01,0h555.21c3.26.78,5.25,3.47,5.71,6.72l-.02,94.72c-.62,3.36-3.26,6.02-6.72,6.27l-553.9-.08c-3.8-.67-6.1-4.07-6.28-7.81V7.56C.52,4.09,2.26.62,6.01,0ZM264.26,2.76l-257.99-.06c-1.47,1.3-2.95,1.65-3.22,4.01v44.88c.15.78,1.23,1.69,2.05,1.55l258.8-.02c1.21-.42,1.81-1.67,1.81-2.89-.24-15.3.44-30.72-.35-45.94-.3-.22-1-1.46-1.1-1.53ZM341.97,2.77l-73.12-.09c-.91.64-1.9,1.36-1.79,2.64l.13,98.24,1.53,1.24,73.25-.08c.87-.51,1.53-1.33,1.46-2.41V5.6c.18-.84-.83-2.47-1.46-2.83ZM561.08,2.78l-214.71-.07c-.6.81-1.62,1.14-1.58,2.34l.07,46.21c.35,1.15.95,1.97,2.27,1.88l215.48-.07c.92-.25,1.56-1.05,1.58-2.01V6.72c-.25-2.07-1.83-2.68-3.11-3.93ZM5.18,54.58c-1.13.27-2.13.65-2.14,2.01v44.62c.29,1.97,1.89,3.28,3.74,3.72l257.27-.11c.87-.38,1.4-1.07,1.57-2.02l.07-45.65c-.18-1.51-.94-2.29-2.42-2.56H5.18ZM347.21,54.59c-1.09.17-1.84.51-2.29,1.57l-.13,46.43c-.01.86.97,2.18,1.8,2.34,71.47-.16,143.01.35,214.43-.26,1.61-.46,2.67-1.67,3.09-3.26l-.08-45.5-1.99-1.33h-214.83Z"/>
        <path d="M315.68,97.91c-9.31-8.99,3.37-23.57,13.55-15.97,11.95,8.92-3.08,26.09-13.55,15.97Z"/>
        <path d="M304.55,10.46c.95-2.62,2-.13,2.37-.04.47.11,2.66-.77,1.88.9l-.94.8,2.48-.28-.83,1.38c.17.14,2.71.03,2.48,1.11-1.16-.22-2.27-.17-3.44,0-.48.07-.46-.15-.41.55.92-.09,3.78.36,4.13,1.25-.06,1.12-1.64-.43-2.2-.14-.18.27,2.89,2.19,1.52,2.21-.18,0-2.65-1.44-3.45-1.1.05.44,2.36,2.13,1.93,2.49-.77.65-2.3-1.76-3.03-1.94.34,1.17,1.38,1.94,1.1,3.32-1.29-.01-.39-2.02-1.93-1.66v2.49s-.83-.28-.83-.28c-.25,1.16.46,2.12.55,3.18s-.23,5.19.12,5.7l3.19.26c-.26,1.45-1.34.85-1.87,1.17s-.03,1.3-1.85.2l-.29.58c-.58-.02-.88-.42-1.48-.5-1.19-.14-1.43,1.16-2.51-1.05-.24-.82,1.85-.2,2.3-.45,1.13-.85.43-2.51.5-3.43.11-1.43.61-3.28.49-4.69-.02-.3-.48-2.85-.82-2.38v1.66c-1.45.26-.51-3.04-.97-3.05l-.97,2.49-.28-2.21-1.65,1.38.27-2.21c-.79.27-.59,1.41-1.65,1.11l1.1-1.93c-.81-.04-1.3.63-1.65,1.25-1.63-.78.45-2.13,1.1-2.91l-2.75.55c-.75-.79,2.48-2.48,3.3-1.94.66-.5-2.2-1.22-2.2-1.8.8-.95,2.01-.05,3.03-.14-.38-.76-1.51-.88-1.38-1.94,1.52,0,2.4.72,3.44,1.66.43-.66-.88-1.22-1.11-1.66l.15-.7c1.05-.77,2.2-.02,3.02.69Z"/>
        <path d="M286.64,63.38v6.37l6.48-6.37h4l-5.74,5.68,6.02,8.73h-4.13l-3.86-6.65c-.29-.22-2.75,2.17-2.75,2.35v4.29h-3.58v-13.99c.88-.83,2.44-.26,3.58-.42Z"/>
        <path d="M310.62,67.53l-3.05.15c-.62-2.41-4.34-2.98-5.51-.83-.05.34.1.57.27.84,1.06,1.6,7.13.76,8.42,4.28,2.73,7.45-12.45,8.41-12.26,1.1l3.02-.27c.11,4.97,8.92,2.16,5.88-.3-2.23-1.81-9.29-.32-8.33-6.2.7-4.29,11.75-4.27,11.56,1.23Z"/>
        <path d="M321.6,63.43l6.38,14.36-3.31-.13-1.55-3.15-6.47.13-1.11,3.12-3.27.04,5.82-14.37,3.51.02ZM321.92,72.24l-2.07-5.27-2.07,5.27h4.13Z"/>
        <path d="M319.58,29.58c.11.02.79.27.69.55-5.41.24-9.8,3.47-13.78,6.8l2.07,2.34h.4c.1-.69.38-.95,1.11-.82-.55,1.31.29,2.85,1.73,2.48.29-.07,1.08-1.8,2.29-.85,1.25.99-1.15,3.33-2.71,3.02-.81-.16-2.81-1.67-3.36-1.63l-.57.84c-1.68-1.29.29-1.07.13-1.79l-2.34-2.11c-.92-.1-1.91,1.58-2.61,2.11l.82.69-.69,1.1c-1.07-1.68-3.05.82-4.7.87-.74.02-2.89-1.96-2.08-2.96,1.14-1.4,2.02,1.05,3.41.7.07-.02,1.01-.9,1.02-.97.07-.26-1.09-1.25-.14-1.51,1.01-.27.85,1.32,1.51.83.04-.03.02-.38.17-.52.4-.36,1.89-1.31,1.76-1.82-4.01-3.26-8.4-6.53-13.78-6.8-.09-.07.35-.55.41-.55h4.41c.62,0,3.38,1.31,4.09,1.71,2.11,1.17,4.29,3.08,6.14,4.65.36.06,4.85-3.82,5.79-4.37.61-.36,4.21-1.98,4.64-1.98,1.24,0,2.98-.16,4.13,0Z"/>
        <path d="M320.8,55.88c-2.78.06-5.57-.16-8.35-.16-1.51,0-2.84.13-4.17.19-.91.04-1.83-.06-2.74-.03-.73,3.43-2.4,3.49-5.4,2.51l2.67-.77,1.46-1.31c.26-.65-1.16-.36-1.52-.96-1.3-2.2,2.8-7.67,2.9-1.39h3.03c-.11-1.07-1.88-.24-1.65-.96.59-1.84,2.3-2.71,3.87-1.34.45.8.18,1.5-.02,2.31h1.64c-.03-.91.25-1.81,1.11-2.21l-.27,2.21,1.62-.03c.09-.77.36-1.57,1.13-1.91l-.27,1.94h1.37c-.03-.91.25-1.81,1.11-2.21l-.27,2.22h1.93c0-.68.04-1.36-.04-2.04-.19-1.78-1.48-2.77.17-4.33,0,.8,1.67,1.39,1.77,1.83.08.33-.69,1.3-.79,1.93-.22,1.39.16,3.07-.31,4.54Z"/>
        <path d="M289.4,53.96h4.13c-.51-1.51-1.18-1.99-.27-3.6.62-.1.75.39.96.83.75,1.56.33,3.1.14,4.71h-5.37l-.69-1.66-.99,1.34-2.86-.52c-.22-.25.86-2.59,1.19-2.94.37-.4,1.19-.58,1.57-1.06.49-.62.51-1.8,1.23-2.36l.96,5.26Z"/>
        <path d="M299.87,55.9h-3.86v-1.94s3.03,0,3.03,0c-.38-.84-.98-1.72-1.92-1.96l.69-1.92c2.61.76,2.04,3.67,2.06,5.82Z"/>
        <path d="M324.12,55.9l-.85-5.68.99-2.63c.45,2.69.87,5.7-.14,8.31Z"/>
        <path d="M291.87,57.84c.08.05.1.97.69.83.27,0,.2-.97.83-.83,1.25.27.48,3.05-.82,1.11l-.83.82-.94-1.2c.19-.34.74-.94,1.07-.73Z"/>
        <path d="M287.47,48.97c-.46.13-.75-.47-1.01-.51-.53-.08-.52.94-1.67.04-.17-.13-.73-.18-.35-.63.69-.81,1.54-.02,1.74-.05.48-.08.83-1.13,1.51.22l-.22.93Z"/>
      </g>
    </g>
  </g>
</svg>