<?xml version="1.0" encoding="UTF-8"?>
<svg id="Layer_2" data-name="Layer 2" xmlns="http://www.w3.org/2000/svg" viewBox="0 0 566.93 107.72">
  <defs>
    <style>
      .cls-1 {
        fill: #0c713c;
      }

      .cls-2 {
        fill: #ddb232;
      }

      .cls-3 {
        fill: #fff;
      }
    </style>
  </defs>
  <g id="Layer_1-2" data-name="Layer 1">
    <g>
      <path class="cls-3" d="M8.08,0h551.16c4.25,0,7.69,3.45,7.69,7.69v92.36c0,4.23-3.43,7.66-7.66,7.66H8.2c-4.52,0-8.2-3.67-8.2-8.2V8.08C0,3.62,3.62,0,8.08,0Z"/>
      <path d="M563.28.84c1.64.91,2.76,2.5,3.39,4.26.38,32.35.31,64.84.03,97.19-.79,2.39-2.35,4.29-4.75,5.06-.39.13-.76-.17-.96.35H6.82c-3.84-.52-6.13-3.54-6.8-7.18V7.29C.52,3.81,2.51.75,6.06,0l555.49.07c.58.24,1.18.46,1.72.77ZM524.96,2.75L6.67,2.71c-1.59.54-2.97,1.47-3.42,3.18-.33,31.87-.34,63.86,0,95.73.57,1.87,2.06,3.13,4.04,3.19h517.3c.33-.08,1.29-.75,1.49-1.02.09-.13.04-.59.38-.83V5.03c-.03-.33-.21-1.07-.38-1.31-.04-.06-1.04-.94-1.11-.97ZM563.28,103.13c.34-.47.82-1.52.88-2.1l-.06-94.81c-.58-1.78-1.83-3.19-3.72-3.52h-31.1c-.6.52-1.16.86-1.41,1.69-.27,15.56-.15,31.2-.16,46.8,0,16.99.03,34.1,0,51.13.12,1.17.73,2.34,2.01,2.49h30.34c1.13-.1,2.54-.76,3.21-1.68Z"/>
      <path d="M543.45,15.6l-1.96-.69-1.25-.84c.43-1.04,2.32.29,3.05.4-.45-.58-1.89-1.06-1.68-1.94,1.38-.03,1.79.58,2.64,1.45.22-.72-1.55-1.47-.93-2.06.46-.31,1.1-.18,1.6-.02.15.05.1.46.66.31.12-.03.1-.33.41-.42.63-.17,1.34-.02,1.3.74.79-.46,1.16-.36,1.76.24l-1.44,1.05,2.24-.32-.48.97,1.77.57-.09.41c-.97-.3-1.82.09-2.81,0-.07.42.06.29.35.37.43.12,3.01.27,2.86,1.16-.07.42-.38.06-.5.03-.31-.1-1.09-.63-1.26-.18-.04.1,1.97.87,1.05,1.51l-2.65-1.1,1.6,1.85-.4.35c-.85-.19-1.1-1.16-1.85-1.56l.89,1.77c.07.17.11.36.05.54-.31,1.03-1.28-1.33-1.59-1.02l.16,1.93-.48-.48c-.07-.04-.27.16-.29.26-.08.43.35,2.02.41,2.61.11,1.07.05,2.07.04,3.18,0,.3.19.58.16.89h2.41c0,.28-.73.97-.88.98-.19.01-.51-.18-.55-.16-.05.03-.1.52-.45.61s-.83-.12-.93-.46l-.48.64-.8-.64-.17.34-.62-.19-.33.33-.87-1.07c-.06-.65,1.63-.29,2.06-.38.29-.87-.01-1.88.03-2.62.09-1.37.43-2.71.27-4.22-.05-.49-.44-.98-.31-1.54l-.19,1.33-.37.6c-.68-.65-.36-1.63-.24-2.42l-1.04,1.94-.08-1.61c-.51.11-.63.58-.88.97-.95-.24-.02-1.39-.08-1.45-.5-.12-.72.97-1.12.4l.48-1.21c-.9.01-.66,1.09-1.44.97-.03-.34-.02-.63.09-.96.16-.47.62-.64.87-.97l-1.66.17c-.71-.4.7-1.3.94-1.3h2.97Z"/>
      <path d="M546.71,30.82c3.09-2.3,5.68-4.46,9.82-4.08.25.02.48.12.72.16.05.42,0,.25-.23.32-.71.22-1.56.2-2.33.4-1.96.53-5.72,2.76-7.16,4.16-.19.18-.28.51-.54.68.38.09,1.4,1.49,1.53,1.54.59.19.28-.34.49-.5.6-.46,1.16.66.39.9.89,1.53,2.75-.54,3.37.16.74.84-.85,2.05-1.67,2.02-.75-.03-2.6-1.09-2.75-1.09s-.37.56-.8.45-.3-.85.24-.81v-.32c-.62-.12-1.2-1.46-1.82-1.41-.37.03-1.28,1.25-1.7,1.49-.11.29.95.52.32.97-.53.38-.93-.38-1.05-.38-.15,0-1.89,1.23-2.85,1.07-.81-.13-2.14-1.22-1.37-2.03.54-.56,1.24.36,1.65.44.36.07,1.42,0,1.51-.42-.7-.75.19-1.41.64-1.02.1.08-.17.57.25.47.28-.52,1.11-.97,1.38-1.36.45-.67-1.29-1.28-1.58-1.85-2.63-1.85-5.26-3.41-8.54-3.63.19-.23.44-.35.73-.39,4.11-.63,7.42,2.13,10.39,4.55.68.28.69-.27.96-.48Z"/>
      <path d="M548.7,70.66c.41.48.64,1.25.53,1.88l-1.65.14c-.42-.13-.42-.8-.83-1.11-.73-.56-2.48-.47-2.81.57.02,1.09,2.92,1.33,3.78,1.69,1.39.58,2.02,1.84,1.83,3.31-.01.11-.32,1.12-.35,1.17-.04.06-1.04.85-1.12.89-1.39.61-3.18.61-4.56,0-1.11-.49-2.02-1.81-1.63-3.07l1.75.05c.19.13.16.69.33.96.82,1.33,4.11.96,3.48-.93-.23-.7-2.43-.91-3.15-1.18-1.53-.59-2.68-1.7-2.24-3.48.58-2.33,5.28-2.49,6.65-.88Z"/>
      <path d="M543.78,54.64v4.03c.71-.16,3.63-4.03,3.93-4.03h2.49l-1.02,1.4-2.28,2.39.57,1.25c1.15,1.3,1.88,2.91,2.97,4.32l-.16.32h-2.33c-.65-1.57-1.82-2.78-2.41-4.35-.35-.26-1.36,1.3-1.76,1.29v3.06h-1.93v-9.68h1.93Z"/>
      <path d="M546.81,83.85l3.71,9.66-2.09-.08-1.07-2.15-3.6.07-.78,2.08-2.25.08,3.7-9.67h2.38ZM545.54,86.26l-1.12,3.15c.03.32,2.43.46,2.34-.09-.08-.48-.59-1.72-.8-2.27-.07-.2-.22-.74-.42-.78Z"/>
      <path d="M554.52,42.38c-.08.48.79.77.82.91.1.47-.34.83-.41,1.16-.11.61.36,1.7-.24,2.36l-6.04.09-.31-.34c-.33.65-2.07.13-2.31.34-.19,1.92-1.38,1.66-2.9,1.43.65-.62,1.8-.36,2.25-1.37-1.49-.11-1.17-1.41-.54-2.32,1.05-1.52,1.24,1.12,1.61,1.25l1.18.02c.07-.42-.35-.49-.64-.48.27-1.91,2.71-1.56,2.25.49l.62-.03.75-1.26.08,1.29c1.09.18.76-.78,1.36-1.29l.08,1.29c.77.18.58-.89,1.04-1.29.53-.28,0,1.22.08,1.29,2.07.32.57-1.58.65-2.65.01-.18.34-1.14.63-.89ZM545.38,45.93c.04-.3,0-.47-.24-.64l-.24.24.16.4h.32Z"/>
      <path d="M539.12,45.93c-.11-.78-.69-1.4.08-2.09.87.9.85,1.94.38,3.04-1.12-.15-2.87.55-3.43-.62h-.24s-.39.48-.39.48l-1.39-.41c-.03-1.7,1.75-1.65,1.94-3.29.44-.3.71,2.66.95,2.83l2.09.07ZM536.07,44.96c-.11-.1-.64.08-.64.24,0,.48.94.04.64-.24Z"/>
      <path d="M540.57,46.9v-.97s1.6,0,1.6,0c.05-1.09-1.36-.95-.56-2.26,1.24.49,1.63,2.01,1.2,3.23h-2.25Z"/>
      <path d="M556.61,46.9c-.28-.1-.4-.84-.44-1.09-.14-1.01-.38-2.48.36-3.26.55,1.4.56,2.95.08,4.35Z"/>
      <path d="M538.8,48.35c.06-.05-.2-.7.4-.49.31.11.71,1.15-.31.99l-.17-.34-.88.32v-.97s.96.48.96.48Z"/>
      <path d="M535.11,42.7c.12-.69.5-.57.77-.06l-.22.55c-.72-.52-1.07.33-1.5-.43l.39-.54.56.48Z"/>
      <g>
        <path class="cls-1" d="M281.25,37.66l-4.17,10c-.32.21-1.21-2.42-1.29-2.62-.66-1.44-1.52-2.47-1.43-4.24.11-2.13.65-4.53.72-6.7,0-.22.15-.28-.16-.48l-9.71,10,1.86-9.34,5.2-6.79-9.63,2.66,4.55-6.31,7.97-4.01-6.42-.89.24-.48,4.44-3.29c2.56.01,5.03.67,7.58.88l2.57-2.55,2.74,2.49,7.29-.86,4.81,3.49c.09.13-.43.41-.6.45-1.5.32-3.52.32-5.08.54-.2.03-.87.07-.9.3l7.96,3.93,4.55,6.15c.07.39-.3.25-.52.2-2.56-.57-5.46-1.87-8.03-2.57-.35-.1-.7-.16-1.07-.13l5.19,6.79.38,1.08,1.48,8.27-9.95-10,.79,8.3c-.86,1.66-1.46,3.94-2.38,5.51-.09.15.08.32-.33.23l-4.17-10v33.15c-.42.44-1.82,2.17-2.3,2.13-.37-.03-1.85-1.74-2.19-2.13v-33.15Z"/>
        <path class="cls-2" d="M271.24,64.82c1.81,1.12,3.75,2.6,5.43,3.97,2.43,2,4.6,4.32,6.88,6.44,3.01-3.11,6.16-6.12,9.68-8.67,6.81-4.94,15.99-8.62,24.5-7.11.98.17,2.35.48,3.15,1.03-8.17.02-16.22,2.89-22.99,7.37-4.35,2.88-7.89,6.66-11.65,10.24l5.04,5.54c1.02-2.03,5.35-2.44,5.19.46-.71.12-3.57.27-3.32,1.53.04.2,2.36,2.65,2.7,2.93,2.48,2.05,5.18,2.22,7.69.14.81-.67,1.26-1.87,2.41-1.66.61,3.55-.11,6.43-4.08,6.76-4.48.37-7.6-1.75-10.75-4.64-1.44,1.44-5.08,1.75-4.83-1.02.23-.32,3.09.03,2.96-1.17l-5.7-6.23-5.75,6.28.12.44,2.78.68c.21,2.85-3.39,2.37-4.92,1.04-1.05,1.01-2.13,1.96-3.38,2.74-2.32,1.44-4.18,2.06-6.97,1.88-4.23-.26-4.99-2.95-4.4-6.78,1.1-.24,1.34.73,2,1.29,2.72,2.35,5.23,2.59,8.11.24.35-.29,2.66-2.72,2.7-2.93.24-1.26-2.62-1.42-3.32-1.53-.04-2.92,4.1-2.51,5.19-.46l5.04-5.54c-2.61-2.44-5.12-5.16-7.87-7.43-7.41-6.11-17.06-10.14-26.78-10.18.49-.32,1.5-.73,2.04-.85,7.9-1.73,16.39,1.04,23.09,5.18Z"/>
      </g>
    </g>
  </g>
</svg>