<?xml version="1.0" encoding="UTF-8"?>
<svg id="Layer_2" data-name="Layer 2" xmlns="http://www.w3.org/2000/svg" viewBox="0 0 425.2 212.6">
  <defs>
    <style>
      .cls-1 {
        fill: #0a0a0a;
      }

      .cls-2 {
        fill: #fff;
      }

      .cls-3 {
        fill: silver;
      }
    </style>
  </defs>
  <g id="Layer_1-2" data-name="Layer 1">
    <g>
      <rect class="cls-2" width="425.2" height="212.6" rx="15.05" ry="15.05"/>
      <g>
        <path class="cls-1" d="M11.96.07l400.75-.07c6.67.51,11.61,6.08,12.48,12.55v187.5c-.86,6.4-5.71,11.9-12.28,12.55H12.73c-6.5-.46-11.1-5.62-12.42-11.77C-.31,138.54.23,76.15.04,13.81.61,7.11,5.06,1,11.96.07ZM13.01,5.55c-4.3.49-7.18,3.86-7.72,8.06v87.1c.37,2.08,2.02,4.13,4.29,4.11l210.13-.15c2.08-.5,3.35-2.98,3.41-5.01V10.44c-.29-2.78-2.26-5.02-5.14-4.96l-204.97.07ZM229.77,5.55c-2.51.41-3.94,2.18-4.15,4.68v90.07c.1,2.25,1.78,4.37,4.09,4.54h139.98c2.6-.13,4.07-2.6,4.3-4.96V10.44c-.3-2.74-2.27-5.04-5.14-4.96l-139.08.06ZM380.65,5.55c-2.37.39-3.94,2.05-4.16,4.47l.03,192.96c.47,2.28,1.97,3.84,4.31,4.11,11.05-.18,22.22.47,33.2-.34,3.45-1.13,5.54-4.02,6.13-7.55l-.02-185.99c-.86-4.48-3.87-7.42-8.47-7.73-10.06-.66-20.87.47-31.01.06ZM8.8,107.83c-1.89.45-3.13,2.22-3.52,4.06v86.9c.47,4.76,3.71,8,8.49,8.33h204.41c2.78-.02,4.64-2.32,4.93-4.96v-89.43c-.21-2.4-1.7-4.8-4.3-4.96l-210.01.06ZM229.14,107.83c-2.08.51-3.38,2.38-3.52,4.48v90.07c.24,2.85,2.07,4.65,4.93,4.75h138.51c2.92-.06,4.7-2.41,4.93-5.17v-89.22c-.21-2.4-1.7-4.79-4.3-4.96l-140.55.06Z"/>
        <path class="cls-1" d="M409.59,197.12c-13.67,13.87-34.74-7.4-20.68-21.1,13.75-13.4,34.28,7.3,20.68,21.1Z"/>
        <rect class="cls-3" x="384.48" y="149.74" width="29.38" height="12.44"/>
        <path class="cls-1" d="M398.33,38.6c-.02-.54.18-1.04.22-1.57.05-.8-.22-1.95-.16-2.51.18-1.56.62-3.24.55-4.85-.06-1.26-.52-2.65-.61-3.92l-.73,2.95c-1.16-1.02-.67-2.66-.53-4l-.94,1.68c-.49,3.36-1.5.17-.52-1.26-.82-.22-1.49,2.28-2.1,1.69-.14-.97.1-1.66.42-2.53l-1.57,1.47c-.43.09-.35-.21-.3-.51.11-.61.59-.99.62-1.59-.78-.13-1.15.62-1.27,1.26-1.94-.22-.26-2.51.64-3.15l-2.73.42c-.2-1.25.25-1.58,1.35-1.91,1.73-.51,3.42-.43,5.15,0-.04-.29-.69-.55-.94-.64-.94-.35-1.96-.41-2.89-.89-.28-.15-1.82-1.19-1.22-1.53,1.67-.49,3.1.66,4.62,1.06-.69-.6-1.55-1.17-2.2-1.79-.71-.67-1.56-1.47.19-1.26,1.58.19,2.36,1.4,3.48,2.31.3-1-1.78-2.16-1.87-2.45-.34-1.12,1.97-1.01,2.6-.91.78.13.75.78,1.37.83.06-1.57,2.72-1.45,2.52.21,1.09-.54,2.64-.72,2.72.83l-1.88,1.06c1.23-.25,2.29-.72,3.57-.21.08.82-.98.77-1.26,1.26l2.93,1.17c.32.65-1.41.13-1.58.14-.42.01-.82.31-1.27.37-.64.09-1.65-.27-1.98.44,1.16-.12,5.02.49,5.25,1.79.06.34,0,.35-.31.32-.8-.1-1.43-.71-2.21-.84.37,1.08,2.12,1.39,1.89,2.74-1.71.02-2.98-1.38-4.61-1.68l2.52,2.84c-.79,2.06-3.02-2.31-3.58-1.79.59,1.26,2.04,2.47,1.47,4-1.2-.34-1.4-1.64-2.3-2.32-.07.63.73,2.8.2,3.16-.61.42-.73-.76-1.05-.53-.31,1.61.47,2.94.61,4.45.09.99.15,2.21.21,3.13.05.76-.42,2.16-.19,3.07h3.78c.11.4-.6,1.43-.9,1.55-.46.18-1.23-.21-1.4-.06-.06.05,0,.45-.12.61-.53.76-1.97-.65-2.2-.41.03.3-.1.94-.52.84l-.87-.82c-1.05.91-1.36-.65-1.86.61-.7-.01-2.18-2.32-1.26-2.32h3.04Z"/>
        <path class="cls-1" d="M417.84,38.18c-6.52-.07-12.12,3.98-16.78,8.12.68.21,2.64,2.88,3.14,2.43-.14-1.3,1.62-1.06,1.24.09-.11.35-.8.22-.61.65,1.7,2,3.06-.05,4.3-.12,2.29-.15,1.03,3.42-1.68,3.41-1.32,0-3.33-1.15-4.41-1.91,0,1.38-1.83,1.22-1.55.14.13-.52.99-.44.82-.88l-2.65-2.41-3.01,2.62c2.14.62-.19,2.97-.52.53-1.83,1.36-5.46,3.08-7.04.53-.55-.89-.16-2.32.86-2.12,1.41.27,2.42,2.17,4.39.21.19-.43-.48-.28-.6-.65-.09-.28-.02-.63-.03-.92l1.07.09.2.75c.35.32,2.47-1.81,2.74-2.21.13-.19.31-.29.11-.54-4.78-3.88-10.02-7.86-16.49-7.8.16-.47.81-.47,1.22-.57,4.37-1.03,8.02.67,11.56,3.01.84.55,5.04,4.07,5.38,4.11.64.06,1.18-.87,1.67-1.27,4.4-3.52,10.02-7.54,15.97-5.73.28.09.64.08.7.45Z"/>
        <path class="cls-1" d="M396.23,75.51v6.54l5.98-6.54h4.09l-5.46,6.01,5.88,9.18h-4.2l-3.78-6.96c-.35-.1-.34.1-.5.23-.24.2-2.01,2.04-2.01,2.19v4.53h-3.15v-15.18h3.15Z"/>
        <path class="cls-1" d="M404.62,103.56l-2.8.2c-.35-.11-.47-1.21-1.07-1.68-2.02-1.57-5.98.23-3.75,1.87,2.11,1.55,7.48.81,8.03,4.8.69,4.99-3.29,6.2-7.43,5.78-2.75-.28-4.74-2.51-4.72-5.27l2.81-.19.24.18c0,3.81,7.32,3.23,5.87,0-.78-1.74-6.97-.93-8.22-4.81-2.21-6.83,11.44-7.76,11.06-.89Z"/>
        <path class="cls-1" d="M406.72,136.25h-3.57l-1.07-3.35-6.09.11-1.34,3.24h-3.04l5.97-15.2,3.16.22,5.98,14.97ZM397.07,130.34h3.78c-.11-.63-1.52-5.19-1.79-5.27-.4-.12-.31.2-.41.42-.23.51-1.77,4.68-1.58,4.85Z"/>
        <path class="cls-1" d="M412.8,61.8c-.23.98,1.48,1.11,1.48,1.79,0,.41-.73.92-.84,1.49-.21,1.16.57,2.66-.43,3.79l-9.35.11-.72-.64c-.03,1.27-2.92.29-3.34.66-.51,2.97-2.49,2.9-4.85,1.87l2.45-.59,1.32-1.2-1.41-.58c-.69-.73.39-3.54,1.32-3.74,1.45-.3,1.02,2.27,1.69,2.5l2.18.03c-.28-.62-.68-.76-1.26-.42-.07-3.13,4.9-2.56,3.36.42l1.27-.09c.29-.74.47-1.6,1.24-2.02l-.21,2.11,1.23-.03c.12-.08.47-1.89,1.18-1.87l-.1,1.9.81-.03c.27-.8.36-1.6,1.29-1.87l-.21,1.9h1.68c-.11-1.02-.26-2.03-.44-3.04-.06-.32-.38-.59-.39-.86,0-.25.7-1.93,1.04-1.58Z"/>
        <path class="cls-1" d="M388.88,67.28c-.31-1.34-1.16-1.89.1-3.16,1.36,1.26,1.21,3.17.54,4.75l-4.48.05-.88-1.22c-.56,1.51-2.07.59-3.25.42.29-.63.3-1.37.66-1.97.47-.79,1.96-1.33,2.03-1.44.14-.23.23-1.68.77-2.07.42,0,.48,4.25,1.26,4.64h3.25Z"/>
        <path class="cls-1" d="M394.55,68.97h-3.25l-.23-.43.12-1.26h2.52c-.02-.92-.9-1.27-1.45-1.82l.51-1.55c1.99.67,2.31,3.29,1.78,5.07Z"/>
        <path class="cls-1" d="M415.95,68.97c-.41-.09-.37-.42-.42-.74-.34-2.12-.85-4.66.53-6.44.45,2.33.94,4.91-.11,7.17Z"/>
        <path class="cls-1" d="M388.25,71.08l.32-.63c1.68.69.83,2.44-.63,1.05l-.63.63-.75-.94.56-.73,1.12.62Z"/>
        <path class="cls-1" d="M382.83,61.63h.56c.59.86.5.99-.28,1.64l-.42-.63-.84.63c-.34-.35-.95-.68-.64-1.26l.61-.41.66.61.35-.59Z"/>
      </g>
    </g>
  </g>
</svg>