<?xml version="1.0" encoding="UTF-8"?>
<svg id="Layer_2" data-name="Layer 2" xmlns="http://www.w3.org/2000/svg" viewBox="0 0 425.2 212.6">
  <defs>
    <style>
      .cls-1 {
        fill: #c1bfbf;
      }

      .cls-2 {
        fill: #080a1a;
      }

      .cls-3 {
        fill: #fff;
      }

      .cls-4 {
        fill: #304b9f;
      }

      .cls-5 {
        fill: #040407;
      }
    </style>
  </defs>
  <g id="Layer_1-2" data-name="Layer 1">
    <g>
      <rect class="cls-3" width="425.2" height="212.6" rx="15.98" ry="15.98"/>
      <g>
        <path class="cls-5" d="M11.71.07L412.92,0c6.5.59,11.31,6.04,12.28,12.34v187.71c-.76,6.3-5.64,11.85-12.07,12.55H12.49C5.47,211.99.61,205.79,0,198.99V13.6C.59,7.07,5.06,1.13,11.71.07ZM13.19,5.55c-4.48.46-7.31,3.69-7.93,8.06v86.68c.2,2.27,1.86,4.54,4.29,4.53,70.09-.15,140.25.26,210.3-.21,2.02-.57,3.15-2.98,3.25-4.96V10.65c-.25-2.91-2.11-5.15-5.14-5.17l-204.77.07ZM229.97,5.55c-2.57.33-4.2,2.07-4.37,4.68v90.07c.12,2.25,1.8,4.31,4.09,4.54h140c2.6-.13,4.07-2.61,4.3-4.96V10.65c-.25-2.95-2.13-5.06-5.14-5.17l-138.88.07ZM417.35,7.69c-1.26-1.08-3.41-2.03-5.07-2.19l-32.22.1c-2.22.91-3.65,2.51-3.57,5.06v191.51c.03,2.46,1.55,4.3,3.91,4.93l32.25-.04c4.15-.76,6.94-3.73,7.45-7.91l.07-185.32c-.16-1.86-1.4-4.91-2.81-6.13ZM8.77,107.83c-1.97.48-3.23,2.32-3.51,4.27v86.69c.62,4.94,3.71,8.01,8.7,8.33h204.21c2.97-.1,4.83-2.53,4.93-5.38v-89.01c-.23-2.35-1.71-4.84-4.3-4.96l-210.03.06ZM229.12,107.83c-1.99.53-3.41,2.41-3.52,4.48v90.07c.26,2.99,2.18,4.69,5.14,4.75h138.32c2.93-.18,4.69-2.34,4.93-5.17v-89.22c-.22-2.09-1.31-4.13-3.4-4.8l-141.46-.09Z"/>
        <path class="cls-4" d="M417.35,7.69c1.41,1.22,2.65,4.27,2.81,6.13l-.07,185.32c-.51,4.19-3.3,7.16-7.45,7.91l-32.25.04c-2.35-.63-3.88-2.48-3.9-4.93V10.65c-.08-2.55,1.35-4.14,3.57-5.06l32.22-.1c1.66.16,3.81,1.11,5.07,2.19ZM404.1,38.6h-3.46l-.08-7.24c-.59-1.02-.63-1.93-.55-3.09l.74.16.28-.3.03-2.39c.47-.11.34.05.48.26.45.64.53,1.67,1.61,1.43-.05-.48.1-1.09,0-1.54-.02-.08-.98-.7-.62-1.41,1.15.02.89.93,1.08,1.22.2.32,1.28.26,1.62.01.62-.73-2.65-2.79-2.28-3.14.87.43,1.68.74,2.56,1.07.18.07.17.36.31.4.45.1,1.05-.05,1.53,0,0-.28.04-.52-.07-.79-.15-.39-1.49-.72-1.4-1.32l2.1.42c.2-.67-.25-.93-.81-1.24-.45-.25-2.07-.76-2.66-.86s-1.2.03-1.77-.01c-.34-.26,0-.38.31-.42.59-.07,1.26.06,1.88-.01.72-.08,1.29-.68,2.32-.2.6-1.17-1.99-1.03-2.41-1.48-.17-.73.51-.26.8-.45.11-.07.37-.77.04-.93l-2.95.11.92-.77c1.3-.15-.01-1.52-1.01-1.33-.47.09-.72.42-1.17.41.19-1.63-2.05-1.79-2.63-.41-1.28-.75-2.47-1.09-3.87-.43-.37.54,1.61,1.79,1.81,2.17.06.12.55,1.55.49,1.62-.29.34-.81-.97-1.21-.89.29-.68-1.93-1.96-2.47-2.04-.44-.07-.91,0-1.35-.01-.6.6,2.67,2.09,2.1,2.74-.62-.06-.61-.55-1.35-.64s-1.58.09-2.32.01l-.1.42c1.14.93,2.29,1.61,3.81,1.76l1.22.78c-1.11-.72-5.63-.38-6.19.63-.22.4-.17.99.19,1.28.93.7,1.22-.72,2.22-.65.15.59-.11.5-.26.69-.77.98-1.26,1.22-.99,2.68,1.04.24.93-.47,1.29-1.23l.8-.04c-.3.74-.57,1.25-.42,2.11.66.23,1.07-1.85,1.68-1.26.08.08-.38,1.01-.42,1.36-.31,2.27,1.23-.09,1.68-.52v2.53s.74-.2.74-.2l.11-1.33.83-.78c.17,1.06-.56,2.89.84,3.16l.63-2.95c.06,1.74,1.02,4.09.63,5.76-.04.17-.4.07-.44.45-.05.56.2,1.05.19,1.49-.06,1.63-.31,3.3-.17,4.96l-3.37.31c-.48.27.61,2.2,1.17,2.24.67.05.39-.4.82-.46,1.23-.17,2.28.89,2.77.02l.4-.02c.58.59.95.47,1.78.44v-.85s1.89,0,1.89,0c-.03-.54-.12-.78.43-.95l-.32-.53ZM390.48,38.48c-2.88-1.19-5.66-1.4-8.73-.72-.05.55-.02.35.32.41.78.14,1.83.09,2.5.23,3.94.84,8.67,3.72,11.7,6.33.46.4,1.58,1.32,1.33,1.88-.05.12-1.61,1.87-1.73,1.9-1.19.38-.86-1.01-1.95-.85-.48.69.21,1.58.19,1.76-.12.83-1.93.92-2.56.76-.07-.02-1.06-.81-1.13-.83-.28-.07-1.12-.06-1.34.09-.91,2.02,1.13,3.62,3.05,3.27.75-.14,2.56-.88,3.31-1.27.19-.1.11-.38.27-.41h.31c.21,1.19,1.8,1.08,1.46-.08-.08-.27-.55-.25-.62-.48-.25-.85.49-.75.92-1.15.38-.36,1.45-1.64,1.92-1.66.76.9,1.62,1.85,2.62,2.43l-.85.64c-.08.86.43,1.26,1.27,1.16v-.85c.3-.29,2.15.97,2.7,1.19.82.32,1.55.59,2.46.51,2.7-.23,3.51-4.15.45-3.39-.25.06-.24.66-.71.81-1.08.33-1.98-.05-2.79-.7-.13-.49.5-.28.61-.65.07-.22-.1-1.03-.22-1.11-.83-.53-1.06,1.02-1.72.79-.13-.05-1.96-1.69-2.03-1.82-.57-1.06.69-1.2,1.17-1.62,4.04-3.55,7.88-5.94,12.99-6.66.59-.08,1.2-.22,1.79-.32-.01-.62-2.43-.74-3.04-.75-4.61-.05-8.73,2.58-12.23,5.22-.9.68-1.48,1.83-2.68,2.17-.96-.69-1.95-1.39-2.88-2.12-1.86-1.45-3.91-3.2-6.12-4.12ZM382.12,61.66c-.47-.28-1.23.38-1.22.47.02.33.69,1.32,1.16,1.16l.42-.64c.38-.04.53.88.94.62.03-.02.41-.53.42-.56.16-.63-.25-.69-.55-1.13l-1.02.44c-.12,0-.09-.32-.15-.36ZM412.76,62.07c-.2-.09-.37-.08-.58-.06-.14.33-.11.82-.23,1.11-.1.24-.37.08-.41.26-.09.45.26.19.41.48.06.11.41.78.42.83.17.69-.11,1.83,0,2.59l-1.68-.21.31-1.69c-.95.01-.93,2.16-1.99,1.9l.42-1.9-.86.13-.6,1.67-1.06.09c-.16-.15.32-2.16-.31-1.9-.69.29-.79,2.13-1.68,1.89-.56-.15.11-1.21-.3-1.77-.13-.18-.41-.08-.57-.19-.28-.2-.07-.52-.8-.59-1.24-.12-2.25.74-2.21,1.92h.84s0,.63,0,.63l-1.76-.03c-.51-.17-.28-.88-.4-1.29-.17-.59-.86-1.8-1.59-1.38-.59,1.38-1.89,2.49-1.1,4.08l1.48.51-1.41,1.26-1.82.2-.12.65c2.84.26,3.54.46,4.77-2.32.68-.03,1.37.04,2.05,0,3.32-.18,6.56.08,9.87.01,1.34-.03,1.68-.41,1.78-1.81.05-.73-.27-1.55-.18-2.06.11-.63,1.11-1.29.57-2.24-.81.3-1.04-.7-1.28-.81ZM416.16,62.01l-.47.27c-1.09,1.85-.11,4.39-.16,6.48h.63c.67-2.28.5-4.46,0-6.75ZM384.68,62.85c-.66-.66-1.21,1.68-1.32,1.84-.23.35-1.67.93-1.93,1.54-.21.49-.26,1.51-.53,2.1l2.6.42c.88-1.8.61-.39,1.02-.04.46.39,4.88.4,5.15,0,.23-1.05.64-1.9.48-3.02-.03-.23-.87-1.07-.89-1.53l-.58-.03-.6,1.4.8,1.54c-.17.22-2.99.23-3.41,0l-.79-4.22ZM393.06,63.73l-.41.1c-1.34,2.09.85,1.87.85,3.45-.19.2-2.66-1.01-2.52,1.16.02.26.1.41.35.49.44.14,3.34.12,3.44-.32-.05-.94.1-1.89-.11-2.82-.19-.8-1.22-1.52-1.6-2.08ZM389.67,70.91c-.52-.9-1.49-.04-1.74-.04-.31,0-.57-.48-1.02-.43-.05,0-.58.6-.56.73.27,1.76,1.36.54,1.79.54.31,0,.57.47,1.02.43.17-.01.74-.82.5-1.23ZM396.23,75.51h-3.15v15.18h3.15v-4.53c.46-.45,1.43-1.78,1.89-2.07.16-.11.22-.23.52-.14l3.99,6.75h3.88l-5.48-8.75c-.06-.51.22-.82.46-1.21.99-1.59,4.02-3.26,4.81-5.23h-4.41c-1.5,2.38-3.7,4.31-5.67,6.33v-6.33ZM396.02,109.25h-3.15c.07,1.7.7,3.44,2.2,4.44.58.38,2.25.96,2.97,1.02,3.14.3,6.63-.87,7.17-4.35.15-.98-.43-2.95-1.08-3.66-1.47-1.6-4.98-1.68-6.82-2.64-.66-.34-1.31-1.01-.76-1.78.04-.05.98-.63,1.04-.64,2.08-.25,3.73-.27,4.01,2.14.92-.08,3.45.38,3.25-1.14-.02-.13-.34-.12-.41-.3-.23-.62-.15-.97-.65-1.63-1.5-1.95-5.43-2.17-7.61-1.57-.15.04-.12.3-.33.39-.14.07-.43-.03-.6.08-.09.06-1.02.98-1.11,1.1-.97,1.29-.57,2.66-.62,4.17.84,1.16,2.12,2.16,3.52,2.62,1.03.34,4.49.75,4.83,1.89.8,2.66-2.7,2.5-4.42,2.38-.68-.72-1.47-1.39-1.41-2.52ZM391.4,136.25h3.36l1.24-3.24,6.08-.1c.12.08.53,1.98.68,2.34.08.21.66.32.4,1.01h3.36l-5.91-15.15-3.02-.05-6.18,15.2ZM413.86,149.74h-29.38v12.44h29.38v-12.44ZM413.65,173.36h-28.96c.15.6.49,1.29.78,1.84,3.93,7.47,8.63,14.19,12.59,21.93l1.21,1.54,14.38-25.31Z"/>
        <path class="cls-5" d="M413.65,173.36l-14.38,25.31-1.21-1.54c-3.96-7.74-8.66-14.46-12.59-21.93-.29-.55-.63-1.24-.78-1.84h28.96Z"/>
        <rect class="cls-1" x="384.47" y="149.74" width="29.38" height="12.44"/>
        <path class="cls-2" d="M404.1,38.6l.32.53c-.54.17-.46.41-.43.95h-1.89s0,.85,0,.85c-.83.03-1.2.15-1.78-.44l-.4.02c-.49.88-1.54-.19-2.77-.02-.43.06-.15.5-.82.46-.56-.04-1.64-1.97-1.17-2.24l3.37-.31c-.14-1.66.11-3.33.17-4.96.01-.43-.24-.93-.19-1.49.04-.38.4-.28.44-.45.39-1.67-.56-4.02-.63-5.76l-.63,2.95c-1.4-.28-.67-2.1-.84-3.16l-.83.78-.11,1.33-.74.2v-2.53c-.46.44-2,2.79-1.69.52.05-.36.5-1.29.42-1.36-.6-.59-1.02,1.49-1.68,1.26-.16-.86.12-1.36.42-2.11l-.8.04c-.36.76-.25,1.47-1.29,1.23-.26-1.47.22-1.71.99-2.68.15-.19.42-.1.26-.69-1-.07-1.29,1.35-2.22.65-.36-.29-.41-.89-.19-1.28.56-1.01,5.08-1.36,6.19-.63l-1.22-.78c-1.52-.15-2.67-.83-3.81-1.76l.1-.42c.74.08,1.61-.1,2.32-.01s.73.58,1.35.64c.58-.65-2.7-2.14-2.1-2.74.44.02.91-.06,1.35.01.55.08,2.76,1.37,2.47,2.04.41-.08.93,1.23,1.21.89.05-.06-.43-1.5-.49-1.62-.2-.38-2.19-1.63-1.81-2.17,1.4-.66,2.59-.32,3.87.43.58-1.38,2.83-1.22,2.63.41.45,0,.7-.32,1.17-.41,1-.19,2.31,1.19,1.01,1.33l-.92.77,2.95-.11c.33.16.06.86-.04.93-.3.19-.97-.28-.8.45.42.45,3.01.31,2.41,1.48-1.03-.48-1.59.12-2.32.2-.62.07-1.29-.06-1.88.01-.31.04-.65.16-.31.42.57.05,1.21-.08,1.77.01.59.1,2.21.61,2.66.86.56.31,1.01.57.81,1.24l-2.1-.42c-.09.6,1.25.93,1.4,1.32.1.27.08.51.07.79-.48-.05-1.08.1-1.53,0-.14-.03-.13-.33-.31-.4-.89-.33-1.69-.65-2.56-1.07-.37.34,2.89,2.41,2.28,3.14-.34.25-1.42.3-1.62-.01-.19-.3.07-1.21-1.08-1.22-.36.71.61,1.33.62,1.41.1.45-.05,1.06,0,1.54-1.08.25-1.17-.78-1.61-1.43-.14-.21-.02-.37-.48-.26l-.03,2.39-.28.3-.74-.16c-.08,1.16-.04,2.07.55,3.09l.08,7.24h3.46Z"/>
        <path class="cls-2" d="M390.48,38.48c2.21.91,4.27,2.67,6.12,4.12.93.73,1.92,1.43,2.88,2.12,1.19-.33,1.78-1.49,2.68-2.17,3.5-2.64,7.62-5.27,12.23-5.22.61,0,3.02.12,3.04.75-.59.1-1.19.23-1.79.32-5.11.73-8.95,3.11-12.99,6.66-.48.42-1.74.56-1.17,1.62.07.13,1.9,1.77,2.03,1.82.66.24.88-1.31,1.72-.79.12.08.29.89.22,1.11-.11.38-.74.17-.61.65.82.65,1.72,1.03,2.79.7.47-.15.46-.75.71-.81,3.06-.76,2.25,3.16-.45,3.39-.9.08-1.63-.19-2.46-.51-.55-.22-2.4-1.48-2.7-1.19v.85c-.84.11-1.35-.29-1.27-1.16l.85-.64c-1-.58-1.86-1.53-2.62-2.43-.46.02-1.53,1.3-1.92,1.66-.43.4-1.17.31-.92,1.15.07.24.54.21.62.48.34,1.16-1.25,1.27-1.46.09h-.31c-.16.02-.08.3-.27.4-.75.39-2.56,1.14-3.31,1.27-1.92.35-3.96-1.25-3.05-3.27.21-.15,1.06-.16,1.34-.09.07.02,1.06.81,1.13.83.63.16,2.44.07,2.56-.76.03-.19-.67-1.08-.19-1.76,1.09-.16.75,1.22,1.95.85.12-.04,1.68-1.79,1.73-1.9.25-.56-.87-1.48-1.33-1.88-3.02-2.61-7.76-5.49-11.7-6.33-.67-.14-1.73-.09-2.5-.23-.34-.06-.36.14-.32-.41,3.07-.68,5.85-.48,8.73.72Z"/>
        <path class="cls-2" d="M396.23,75.51v6.33c1.96-2.02,4.17-3.94,5.67-6.33h4.41c-.79,1.97-3.82,3.63-4.81,5.23-.24.39-.52.7-.46,1.21l5.48,8.75h-3.88l-3.99-6.75c-.3-.09-.36.03-.52.14-.46.29-1.43,1.62-1.89,2.07v4.53h-3.15v-15.18h3.15Z"/>
        <path class="cls-2" d="M396.02,109.25c-.06,1.14.73,1.8,1.41,2.52,1.72.12,5.22.29,4.42-2.38-.34-1.14-3.8-1.55-4.83-1.89-1.4-.46-2.68-1.46-3.52-2.62.05-1.51-.35-2.88.62-4.17.09-.12,1.02-1.04,1.11-1.1.17-.11.46-.01.6-.08.21-.1.17-.35.33-.39,2.18-.6,6.11-.38,7.61,1.57.5.66.41,1,.65,1.63.07.18.39.17.41.3.21,1.52-2.33,1.06-3.25,1.14-.28-2.4-1.94-2.39-4.01-2.14-.06,0-1.01.59-1.04.64-.55.77.11,1.44.76,1.78,1.83.96,5.34,1.04,6.82,2.64.66.71,1.24,2.68,1.08,3.66-.54,3.48-4.02,4.65-7.17,4.35-.71-.07-2.39-.64-2.97-1.02-1.5-1-2.13-2.73-2.2-4.44h3.15Z"/>
        <path class="cls-2" d="M391.4,136.25l6.18-15.2,3.02.05,5.91,15.15h-3.36c.26-.69-.32-.81-.4-1.01-.14-.36-.56-2.26-.68-2.34l-6.08.1-1.24,3.24h-3.36ZM397.28,130.34h3.36c.14-1.77-1.14-3.3-1.27-5.05l-.72-.02c-.07.84-1.82,4.6-1.37,5.07Z"/>
        <path class="cls-2" d="M412.76,62.07c.24.11.46,1.11,1.28.81.54.95-.46,1.61-.57,2.24-.09.51.24,1.32.18,2.06-.1,1.39-.44,1.78-1.78,1.81-3.32.06-6.55-.2-9.87-.01-.68.04-1.37-.03-2.05,0-1.23,2.79-1.93,2.58-4.77,2.32l.12-.65,1.82-.2,1.41-1.26-1.48-.51c-.79-1.59.51-2.7,1.1-4.08.72-.42,1.42.79,1.59,1.38.12.41-.11,1.12.4,1.29l1.76.03v-.63s-.84,0-.84,0c-.04-1.18.97-2.04,2.21-1.92.73.07.52.38.8.59.16.11.44.01.57.19.41.56-.25,1.62.3,1.77.89.23.99-1.61,1.68-1.89.63-.26.16,1.75.31,1.9l1.06-.09.6-1.67.86-.13-.42,1.9c1.06.26,1.04-1.88,1.99-1.9l-.31,1.69,1.68.21c-.11-.76.17-1.9,0-2.59-.01-.05-.36-.72-.42-.83-.15-.29-.51-.03-.41-.48.04-.19.32-.03.41-.26.12-.29.09-.78.23-1.11.21-.02.38-.03.58.06Z"/>
        <path class="cls-2" d="M384.68,62.85l.79,4.22c.42.23,3.24.22,3.41,0l-.8-1.54.6-1.4.58.03c.01.46.85,1.3.89,1.53.16,1.12-.25,1.98-.48,3.02-.27.4-4.7.38-5.15,0-.41-.35-.14-1.76-1.02.04l-2.6-.42c.27-.59.32-1.62.53-2.1.26-.61,1.7-1.19,1.93-1.54.1-.16.66-2.5,1.32-1.84Z"/>
        <path class="cls-2" d="M393.06,63.73c.38.56,1.41,1.27,1.6,2.08.22.93.06,1.88.11,2.82-.1.44-3,.46-3.44.32-.26-.08-.34-.23-.35-.49-.14-2.17,2.33-.97,2.52-1.16,0-1.59-2.19-1.37-.85-3.45l.41-.1Z"/>
        <path class="cls-2" d="M416.16,62.01c.5,2.29.67,4.47,0,6.75h-.63c.05-2.09-.93-4.63.16-6.48l.47-.27Z"/>
        <path class="cls-2" d="M389.67,70.91c.24.41-.33,1.22-.5,1.23-.45.04-.71-.43-1.02-.43-.43,0-1.52,1.21-1.79-.54-.02-.13.51-.73.56-.73.45-.04.72.44,1.02.43.25,0,1.22-.86,1.74.04Z"/>
        <path class="cls-2" d="M382.12,61.66c.06.04.03.36.15.36l1.02-.44c.29.43.71.5.55,1.13,0,.03-.39.54-.42.56-.41.27-.56-.66-.94-.62l-.42.64c-.47.16-1.15-.83-1.16-1.16,0-.09.76-.75,1.22-.47Z"/>
        <path class="cls-4" d="M397.28,130.34c-.46-.47,1.29-4.23,1.37-5.07l.72.02c.14,1.75,1.41,3.28,1.27,5.05h-3.36Z"/>
      </g>
    </g>
  </g>
</svg>