<?xml version="1.0" encoding="UTF-8"?>
<svg id="Layer_2" data-name="Layer 2" xmlns="http://www.w3.org/2000/svg" viewBox="0 0 425.2 212.6">
  <defs>
    <style>
      .cls-1 {
        fill: #fff;
      }
    </style>
  </defs>
  <g id="Layer_1-2" data-name="Layer 1">
    <g>
      <rect class="cls-1" x="0" width="425.2" height="212.6" rx="15.47" ry="15.47"/>
      <g>
        <path d="M11.35.08l401.59-.08c6.89.49,11.75,5.73,12.25,12.59v187.43c-.42,6.54-4.77,11.65-11.28,12.58H11.52c-6.14-.53-11.06-5.65-11.52-11.85V11.85C.58,5.7,5.24.81,11.35.08ZM11.59,5.21c-3.61.63-6.18,3.45-6.5,7.14v188.16c.29,3.43,3.2,6.65,6.67,6.97h401.67c3.9-.56,6.39-3.82,6.67-7.7V12.59c-.35-4.03-3.19-6.93-7.16-7.45l-401.35.07Z"/>
        <path d="M283.54,38.98c.07.99.27,2.9.61,3.78.2.53.88,1.55,1.39,1.77.62.27,6.49.34,7.33.18,1.03-.2,2.07-2.32,2.07-3.29,0-3.82.19-10.37-.24-13.94-.12-.95-1.14-2.21-1.13-2.68,0-.31,2.92-5.11,3.19-5.25.47-.24.35.38.39.57.15.6.19,1.21.4,1.8.29.81,1.49,2.07,1.49,2.64,0,.73-.8,1.12-1.01,1.65-.81,2.03,0,13.02.06,15.94.06,3.65-.23,7.79-4.72,8.19-3.81.34-11.75.37-15.53-.01-2.37-.24-2.13-1.29-3.28-1.82-2.24-1.03-2.39,1.51-3.57,1.77-2.35-.27-5.63.91-7.76-.14-1.36-.67-1.35-2.35-3.45-1.63-1.02.35-1.32,1.83-2.55,1.83-6.44-.44-13.55.55-19.91,0-2.46-.21-2.37-.87-4.01-1.82-1.91-1.11-2.14.45-3.34,1.24-1.63,1.07-8.23.5-10.6.56-2.13.06-5.27.02-7.27.25-4.08.47-2.52,7.29-6.35,9.73-2.3,1.47-6.29,1.49-8.93,1.26-.78-.07-5.22-.64-5.21-1.34,1.22-1.45,3.47-1.44,5.22-2.07,2.75-.98,7.5-3.15,6.11-6.79-1.34-1.45-6.01.89-6.49-3.6-.38-3.62,1.16-14.06,5.51-14.97,5.29-1.11,6.62,7.13,10.01,9.59l9.32.63c2.14-.29,6.52.95,7.11-1.9.67-3.26-2.75-2.27-3.09-4.61-.3-2.07,2.82-5.1,4.67-5.78,3.19-1.17,6.26.35,7.14,3.66.71,2.68-.8,3.85-.36,6.23.17.91.81,1.96,1.78,2.12,2.31.37,5.97-.06,8.48,0,3.33.08,8.65.79,11.82.2,1.61-.3,1.9-2.84,2.89-4.17.22-.29,1.3-1.64,1.65-1.38.79,2.85-.35,5.77,3.39,6.48,4.37.84,4.55-2.87,6.36-5.83.31-.5,1.2-2.12,1.77-2.13.22,1.97.21,7.72,3.39,7.09,1.33-.26,1.44-2.76,1.81-3.8.61-1.7,1.83-3.17,3.41-4.02.07,1.25-.09,2.54,0,3.79ZM202.22,38.92c-2.25.47-2.59,3.65-1.89,5.46,1.12,2.89,7.59,1.78,5.71-3.31-.68-1.84-1.87-2.56-3.82-2.15Z"/>
        <path d="M132.68,26.4c-.18,4.53-2.57,13.44,1.96,16.48,1.03.69,2.93.81,4.22.88,3.34.19,8.63.29,11.9,0,1.67-.15,2.81-.78,3.03-2.57.29-2.36-1.2-3.98-.68-6.55.11-.53,1.15-2.64,1.72-2.59,3.05,2.34,4.36,7.03,4.04,10.83-.12,1.44-1.11,5.75-2.05,6.73-1.53,1.61-4.66.73-6.55.71-5.32-.06-11.86.52-16.98,0-2.2-.22-1.53-.69-2.55-1.83-.83-.93-1.48-1.78-2.78-1.85-2.31-.13-2.04,1.29-3.54,2.32-2.45,1.69-7.67.85-9.93-.96-2.53-2.01-.61-4.26.73-6.36,1.45-2.29,3.63-5.08,6-6.42,2.15-1.22,4.57-1.28,6.5-2.99,1.66-1.47,2.47-4.04,3.88-5.38.35-.34.54-.58,1.1-.48ZM124.12,36.72c-3.38.71-4.66,6.94-.28,7.5,6.32.8,5.8-8.65.28-7.5Z"/>
        <path d="M174.81,28.89c1.31-.41,2.05.55,2.99,1.29,3.1,2.47,6.96,5.78,7.28,10.01.18,2.43-.88,8.27-3.08,9.62-.91.56-3.6.72-4.8.78-1.74.09-7.99.27-9.31-.17-1.92-.64-.57-5.23.7-6.06,2.85-1.86,9.23,2.39,9.46-3.92.15-3.98-4.72-4-5.06-6.66-.1-.79,1.09-4.67,1.82-4.9Z"/>
        <path d="M309.25,20.78v24.56c0,.23-2.05,3.58-2.35,3.97-.16.21,0,.44-.56.31v-25.04c0-.29,1.99-3,2.35-3.48.16-.2,0-.44.56-.31Z"/>
        <path d="M118.94,19.47c-1.12-1.13-1.45-1.74-.45-3.1,2.37-3.22,3.12.06,6.08-.22,1.33-.13,2-1.41,3.12-1.24.46.07,2.26,1.85,2.33,2.34.11.78-1.6,2.97-2.32,3.05-.8.08-1.71-1.06-2.67-1.21-.54-.09-1.59-.09-2.11.04-1.61.42-1.62,2.72-3.98.34Z"/>
        <path d="M148.38,56.73c1.02-.28,1.68.93,2.43,1.13,2.23.59,3.15-1.29,4.25-1.12.82.13,2.32,1.82,2.08,2.72-.08.3-1.5,2.01-1.84,2.1-1.25.34-2.08-1.92-4.53-.92-.81.33-1.42,1.43-2.39,1.16-.34-.09-2.08-1.92-2.12-2.29-.07-.71,1.57-2.61,2.12-2.77Z"/>
      </g>
    </g>
  </g>
</svg>